<mxfile host="app.diagrams.net" modified="2024-02-06T13:24:05.345Z" agent="Mozilla/5.0 (Windows NT 10.0; Win64; x64) AppleWebKit/537.36 (KHTML, like Gecko) Chrome/121.0.0.0 Safari/537.36" etag="yGY9S9M4N8XMoga3VK1Q" version="23.0.2" type="github">
  <diagram name="Page-1" id="sv2SFpmToBjan8LXC85o">
    <mxGraphModel dx="1500" dy="807" grid="1" gridSize="10" guides="1" tooltips="1" connect="1" arrows="1" fold="1" page="1" pageScale="1" pageWidth="827" pageHeight="1169" math="0" shadow="0">
      <root>
        <mxCell id="0" />
        <mxCell id="1" parent="0" />
        <mxCell id="EoUMbDXSJmn96Bxg5w5c-2" value="" style="shape=image;verticalLabelPosition=bottom;verticalAlign=top;imageAspect=0;aspect=fixed;image=data:image/svg+xml,PHN2ZyB4bWxucz0iaHR0cDovL3d3dy53My5vcmcvMjAwMC9zdmciIHZpZXdCb3g9IjAgMCA0NDggNTEyIj48cGF0aCBkPSJtNDAwIDMyaC0zNTJjLTI2LjUgMC00OCAyMS41LTQ4IDQ4djM1MmMwIDI2LjUgMjEuNSA0OCA0OCA0OGgzNTJjMjYuNSAwIDQ4LTIxLjUgNDgtNDh2LTM1MmMwLTI2LjUtMjEuNS00OC00OC00OHptLTEyMi43IDM4My43Yy04LjQgMS41LTExLjUtMy43LTExLjUtOCAwLTUuNC4yLTMzIC4yLTU1LjMgMC0xNS42LTUuMi0yNS41LTExLjMtMzAuNyAzNy00LjEgNzYtOS4yIDc2LTczLjEgMC0xOC4yLTYuNS0yNy4zLTE3LjEtMzkgMS43LTQuMyA3LjQtMjItMS43LTQ1LTEzLjktNC4zLTQ1LjcgMTcuOS00NS43IDE3LjktMTMuMi0zLjctMjcuNS01LjYtNDEuNi01LjZzLTI4LjQgMS45LTQxLjYgNS42YzAgMC0zMS44LTIyLjItNDUuNy0xNy45LTkuMSAyMi45LTMuNSA0MC42LTEuNyA0NS0xMC42IDExLjctMTUuNiAyMC44LTE1LjYgMzkgMCA2My42IDM3LjMgNjkgNzQuMyA3My4xLTQuOCA0LjMtOS4xIDExLjctMTAuNiAyMi4zLTkuNSA0LjMtMzMuOCAxMS43LTQ4LjMtMTMuOS05LjEtMTUuOC0yNS41LTE3LjEtMjUuNS0xNy4xLTE2LjItLjItMS4xIDEwLjItMS4xIDEwLjIgMTAuOCA1IDE4LjQgMjQuMiAxOC40IDI0LjIgOS43IDI5LjcgNTYuMSAxOS43IDU2LjEgMTkuNyAwIDEzLjkuMiAzNi41LjIgNDAuNiAwIDQuMy0zIDkuNS0xMS41IDgtNjYtMjIuMS0xMTIuMi04NC45LTExMi4yLTE1OC4zIDAtOTEuOCA3MC4yLTE2MS41IDE2Mi0xNjEuNXMxNjYuMiA2OS43IDE2Ni4yIDE2MS41Yy4xIDczLjQtNDQuNyAxMzYuMy0xMTAuNyAxNTguM3ptLTk4LjEtNjEuMWMtMS45LjQtMy43LS40LTMuOS0xLjctLjItMS41IDEuMS0yLjggMy0zLjIgMS45LS4yIDMuNy42IDMuOSAxLjkuMyAxLjMtMSAyLjYtMyAzem0tOS41LS45YzAgMS4zLTEuNSAyLjQtMy41IDIuNC0yLjIuMi0zLjctLjktMy43LTIuNCAwLTEuMyAxLjUtMi40IDMuNS0yLjQgMS45LS4yIDMuNy45IDMuNyAyLjR6bS0xMy43LTEuMWMtLjQgMS4zLTIuNCAxLjktNC4xIDEuMy0xLjktLjQtMy4yLTEuOS0yLjgtMy4yczIuNC0xLjkgNC4xLTEuNWMyIC42IDMuMyAyLjEgMi44IDMuNHptLTEyLjMtNS40Yy0uOSAxLjEtMi44LjktNC4zLS42LTEuNS0xLjMtMS45LTMuMi0uOS00LjEuOS0xLjEgMi44LS45IDQuMy42IDEuMyAxLjMgMS44IDMuMy45IDQuMXptLTkuMS05LjFjLS45LjYtMi42IDAtMy43LTEuNXMtMS4xLTMuMiAwLTMuOWMxLjEtLjkgMi44LS4yIDMuNyAxLjMgMS4xIDEuNSAxLjEgMy4zIDAgNC4xem0tNi41LTkuN2MtLjkuOS0yLjQuNC0zLjUtLjYtMS4xLTEuMy0xLjMtMi44LS40LTMuNS45LS45IDIuNC0uNCAzLjUuNiAxLjEgMS4zIDEuMyAyLjguNCAzLjV6bS02LjctNy40Yy0uNC45LTEuNyAxLjEtMi44LjQtMS4zLS42LTEuOS0xLjctMS41LTIuNi40LS42IDEuNS0uOSAyLjgtLjQgMS4zLjcgMS45IDEuOCAxLjUgMi42eiIvPjwvc3ZnPg==" vertex="1" parent="1">
          <mxGeometry x="290.75" y="150" width="61.25" height="70" as="geometry" />
        </mxCell>
        <mxCell id="EoUMbDXSJmn96Bxg5w5c-3" value="" style="shape=image;verticalLabelPosition=bottom;verticalAlign=top;imageAspect=0;aspect=fixed;image=data:image/svg+xml,PHN2ZyB4bWxucz0iaHR0cDovL3d3dy53My5vcmcvMjAwMC9zdmciIHZpZXdCb3g9IjAgMCA3MiA3MiI+PHBhdGggZmlsbD0iIzkyZDNmNSIgZD0ibTE3LjEzNDcgNTguODk4OXMtMi0xMy41IDEwLTEzLjVjMy4xOTE4IDIuMTI3OSA1LjkyNjQgMy41OTg0IDkgMy41OTIyaC0uMTI0N2MzLjA3MzYuMDA2MiA1LjQwODEtMi4xNjQzIDguNi00LjI5MjIgMTUuNTcwNSAwIDEwLjggMTQuMiAxMC44IDE0LjIiLz48cGF0aCBmaWxsPSIjNjFiMmU0IiBkPSJtNDkuMjk3IDU4Ljg2MXYtMTIuODc1bC00LjQ5MS0uNzg0djcuMjQ1aC0xNy44NzdsLjAwMi03LjI0NS00LjY2Ni43ODR2MTIuODc1eiIvPjxwYXRoIGZpbGw9IiNkMGNmY2UiIGQ9Im02Ny4wODcgNDMuNDIzLTYuOTUgMTYuMzQ5aC0yNC45OWw2Ljk1LTE2LjM0OXoiLz48cGF0aCBmaWxsPSIjOWI5YjlhIiBkPSJtNjcuMzAzIDQzLjQyMy02Ljk1IDE2LjM0OWgtLjIyLTguNzdsNi45NS0xNi4zNDloOC43N3oiLz48cGF0aCBmaWxsPSIjZjRhYTQxIiBkPSJtNDkuMTYzMSAzMy43ODgzYy0yLjExMzEgNS4yODQ3LTcuNDE5MiA4LjcwMjQtMTMuNjMxMSA4LjcwMjQtNS4zNTUxIDAtMTEuMzEtMy4zMDc1LTEzLjQyMzMtOC41OTIybC0uMDc0Mi0uMTgxM2MtLjY3LTEuNjU3Ni0uNTYyMi0zLjY4NjUtLjU2MjItNS41ODM1bDIuMTUzOC0xOC43NjM3IDYuMDA3NiA1Ljg0MjlhMTQuMzU0NSAxNC4zNTQ1IDAgMCAxIDUuNTg2LTEuMTIzOWguNjI0NmExNC4zNTQ1IDE0LjM1NDUgMCAwIDEgNS41ODYgMS4xMjM5bDYuNTk1MS02LjQyMjkgMi4xODYzIDE5LjYzNjRhMTQuMjY3MiAxNC4yNjcyIDAgMCAxIC0xLjA0IDUuMzY1NyIvPjxwYXRoIGZpbGw9IiNlMjcwMjIiIGQ9Im0zNS41MzIgNDIuNDkwN2M2LjIzMTIuMTk4NSAxMS45NTUzLTMuMzk4MSAxNC4wNjg0LTguNjgyOGwuMDY1MS0uMTMzOWMuNjctMS42NTc2LjU2MjYtMy45OTc2LjU2MjYtNS44OTQ2bC0yLjIwMjctMTguOTg5NCIvPjxwYXRoIGZpbGw9IiNiMzk5YzgiIGQ9Im0yMi42NTIgMTcuNy0uNDg3IDQuNzI4IDI3LjEzMi0xLjY0MS0uMjgzLTIuNDU0eiIvPjxwYXRoIGZpbGw9IiNiMzk5YzgiIGQ9Im01MC44OTcyIDE5LjZhMiAyIDAgMSAxIC0yLTIgMi4wMDA3IDIuMDAwNyAwIDAgMSAyIDIiLz48cGF0aCBmaWxsPSIjZmZmIiBkPSJtNDcuMDcyMyAyNC45NzQ4cy04LjE2NzggMy40MDc1LTcuNzgzNyAzLjg0YzcuODE1NCA3LjAxNTkgOC40Mjg2LTIuODYyNyA3Ljc4MzctMy44NHoiLz48cGF0aCBmaWxsPSIjZmZmIiBkPSJtMjQuNjI4MSAyNC45NzQ4czcuNTU2OSA0LjAxIDcuNzgzNyAzLjg0Yy03LjU0NDUgNy4zODM5LTguNTQ1NS0yLjIzNjktNy43ODM3LTMuODR6Ii8+PHBhdGggZmlsbD0iI2ZmZiIgZD0ibTUzLjcyMTYgNTEuNzM3NmEzLjQyIDMuNDIgMCAwIDEgLTIuODQ4OSAyYy0xLjEwMzUgMC0xLjYyLS44OTU1LTEuMTUxMS0yYTMuNDIxMiAzLjQyMTIgMCAwIDEgMi44NDktMmMxLjEwMzUgMCAxLjYxOTQuODk2NSAxLjE1MSAyIi8+PGcgc3Ryb2tlLWxpbmVqb2luPSJyb3VuZCIgc3Ryb2tlLWxpbmVjYXA9InJvdW5kIiBzdHJva2U9IiMwMDAiIGZpbGw9Im5vbmUiPjxwYXRoIHN0cm9rZS13aWR0aD0iMiIgZD0ibTM2Ljg3MjMgNDguMzk4NmE2Ljg0NzIgNi44NDcyIDAgMCAxIC0xLjA2NjUuMDgxMWguMTI1Yy0zLjA3MzYuMDA2My01LjgwODEtMS40NjQyLTktMy41OTIxLTEyIDAtMTAgMTMtMTAgMTMiLz48cGF0aCBzdHJva2Utd2lkdGg9IjIiIGQ9Im0zNS40NjcgNTIuMTMzaC04LjUzOGwuMDAyLTcuMjQ1Ii8+PHBhdGggc3Ryb2tlLXdpZHRoPSIyIiBkPSJtMjIuMjY0OSA0NS43NTY5djEyLjEwOTciLz48cGF0aCBzdHJva2Utd2lkdGg9IjIiIGQ9Im0zNS4xNDcgNTkuNzcyaDI0Ljk5bDYuOTUtMTYuMzQ5aC0yNC45OXoiLz48cGF0aCBzdHJva2Utd2lkdGg9IjIiIGQ9Im0yNC4xNzY3IDU5Ljc3MjVoMTAuOTciLz48cGF0aCBzdHJva2Utd2lkdGg9IjEuOCIgZD0ibTM4LjI5MzYgMzUuNTg5LTIuNDQzNC0zLjAxNDMiLz48cGF0aCBzdHJva2Utd2lkdGg9IjEuOCIgZD0ibTMzLjQwNjggMzUuNTg5IDIuNDQzNC0zLjAxNDMiLz48cGF0aCBzdHJva2Utd2lkdGg9IjEuOCIgZD0ibTMzLjQwNjggMzIuNTc0N2g0Ljg4NjgiLz48cGF0aCBzdHJva2Utd2lkdGg9IjIiIGQ9Im00OS43NjY3IDIzLjg2OS40Mzg3IDQuMTg0NGExMy42NjQgMTMuNjY0IDAgMCAxIC0xLjAxNzEgNS4xODkiLz48cGF0aCBzdHJva2Utd2lkdGg9IjIiIGQ9Im0yMi41MTIxIDMzLjI0MjNhMTMuNjYzNSAxMy42NjM1IDAgMCAxIC0xLjAxNzEtNS4xODg5bDIuMTM4LTE4Ljk5IDYuNDQ5MiA2LjIxMDlhMTQuMTc1IDE0LjE3NSAwIDAgMSA1LjQ2MjYtMS4wODY4aC42MTA4YTE0LjE4MjUgMTQuMTgyNSAwIDAgMSA1LjQ2MzIgMS4wODY4bDYuNDQ4NS02LjIxMDkuNjY1NSA2LjM5OSIvPjxwYXRoIHN0cm9rZS13aWR0aD0iMS44IiBkPSJtMjguMTExOSAzOS43MjE5YTE0LjEyMDcgMTQuMTIwNyAwIDAgMCA3LjQzMjkgMi4wOTY5aC42MTA4YTE0LjExOTEgMTQuMTE5MSAwIDAgMCA3LjQzMjktMi4wOTY5Ii8+PC9nPjxlbGxpcHNlIHJ5PSIxLjIwNTciIHJ4PSIxLjIyMTciIGN5PSIyNy43NTIiIGN4PSIyOC41MTk5Ii8+PGVsbGlwc2Ugcnk9IjEuMjA1NyIgcng9IjEuMjIxNyIgY3k9IjI3Ljc1MiIgY3g9IjQzLjE4MDUiLz48cGF0aCBzdHJva2Utd2lkdGg9IjEuNiIgc3Ryb2tlLWxpbmVqb2luPSJyb3VuZCIgc3Ryb2tlLWxpbmVjYXA9InJvdW5kIiBzdHJva2U9IiMwMDAiIGZpbGw9Im5vbmUiIGQ9Im00Ny4wNzIzIDI0Ljk0NzRzLTguMTY3OCAzLjQwNzUtNy43ODM3IDMuODRjNy44MTU0IDcuMDE1OSA4LjQyODYtMi44NjI3IDcuNzgzNy0zLjg0eiIvPjxwYXRoIHN0cm9rZS13aWR0aD0iMS42IiBzdHJva2UtbGluZWpvaW49InJvdW5kIiBzdHJva2UtbGluZWNhcD0icm91bmQiIHN0cm9rZT0iIzAwMCIgZmlsbD0ibm9uZSIgZD0ibTUwLjkyMTYgMzcuMTk0Ny01LjQ5NzctMy4wMTQzIi8+PHBhdGggc3Ryb2tlLXdpZHRoPSIxLjYiIHN0cm9rZS1saW5lam9pbj0icm91bmQiIHN0cm9rZS1saW5lY2FwPSJyb3VuZCIgc3Ryb2tlPSIjMDAwIiBmaWxsPSJub25lIiBkPSJtNDguNjc4MiAzOS44MDg5LTUuNDk3Ny0zLjAxNDIiLz48cGF0aCBzdHJva2Utd2lkdGg9IjEuNiIgc3Ryb2tlLWxpbmVqb2luPSJyb3VuZCIgc3Ryb2tlLWxpbmVjYXA9InJvdW5kIiBzdHJva2U9IiMwMDAiIGZpbGw9Im5vbmUiIGQ9Im0yNC42MjgxIDI0Ljk0NzRzNy41NTY5IDQuMDEgNy43ODM3IDMuODRjLTcuNTQ0NSA3LjM4MzgtOC41NDU1LTIuMjM2OS03Ljc4MzctMy44NHoiLz48cGF0aCBzdHJva2Utd2lkdGg9IjEuNiIgc3Ryb2tlLWxpbmVqb2luPSJyb3VuZCIgc3Ryb2tlLWxpbmVjYXA9InJvdW5kIiBzdHJva2U9IiMwMDAiIGZpbGw9Im5vbmUiIGQ9Im0yMC43Nzg4IDM3LjE5NDcgNS40OTc3LTMuMDE0MyIvPjxwYXRoIHN0cm9rZS13aWR0aD0iMS42IiBzdHJva2UtbGluZWpvaW49InJvdW5kIiBzdHJva2UtbGluZWNhcD0icm91bmQiIHN0cm9rZT0iIzAwMCIgZmlsbD0ibm9uZSIgZD0ibTIzLjAyMjIgMzkuODA4OSA1LjQ5NzctMy4wMTQyIi8+PHBhdGggc3Ryb2tlLXdpZHRoPSIxLjYiIHN0cm9rZS1saW5lam9pbj0icm91bmQiIHN0cm9rZS1saW5lY2FwPSJyb3VuZCIgc3Ryb2tlPSIjMDAwIiBmaWxsPSJub25lIiBkPSJtNDYuOTk4IDE4LjI4NC0yNC4zNDYtLjU4NC0uNDg3IDQuNzI4IDI0Ljg0LTEuNTAyIi8+PHBhdGggc3Ryb2tlLXdpZHRoPSIxLjYiIHN0cm9rZS1saW5lam9pbj0icm91bmQiIHN0cm9rZS1saW5lY2FwPSJyb3VuZCIgc3Ryb2tlPSIjMDAwIiBmaWxsPSJub25lIiBkPSJtNTAuNDk3MiAxOS42YTIgMiAwIDEgMSAtMi0yIDIuMDAwNyAyLjAwMDcgMCAwIDEgMiAyIi8+PC9zdmc+" vertex="1" parent="1">
          <mxGeometry x="280" y="8" width="72" height="72" as="geometry" />
        </mxCell>
        <mxCell id="EoUMbDXSJmn96Bxg5w5c-4" value="" style="shape=image;verticalLabelPosition=bottom;verticalAlign=top;imageAspect=0;aspect=fixed;image=data:image/svg+xml,PHN2ZyB4bWxucz0iaHR0cDovL3d3dy53My5vcmcvMjAwMC9zdmciIHdpZHRoPSIyNTUuNjE1MjQ5NjMzNzg5MDYiIHZpZXdCb3g9IjAuMjYzNzUxMDI5OTY4MjYxNyAwLjMwMTk5NDMyMzczMDQ2ODc1IDI1NS42MTUyNDk2MzM3ODkwNiAzMTMuODM1OTk4NTM1MTU2MjUiIHByZXNlcnZlQXNwZWN0UmF0aW89InhNaWRZTWlkIiBoZWlnaHQ9IjMxMy44MzU5OTg1MzUxNTYyNSI+JiN4YTsgPGcgdHJhbnNmb3JtPSJ0cmFuc2xhdGUoMCAyODEuODYpIiBmaWxsPSIjMWExOTE4Ij4mI3hhOyAgPHBhdGggZD0ibTY3LjUxNjggMzIuMDAzNWMtLjU0MTUyIDAtMS4xMjYxNy0uMTM2ODUtMS41MzIxMi0uNjg1ODNsLTE3LjM4MzUtMjIuODYxMnYyMy4zMTg3aC0zLjk2NDMxdi0yOC43MTQyYzAtMS4xNDI1My45NDU5Mi0yLjA1NzEgMi4wMjc4LTIuMDU3MS42Mjk3MSAwIDEuMTcwODQuMTgyNiAxLjU3NDg1LjczMTU4bDE3LjMzOTYgMjIuODE1OXYtMjMuMjI3NmgzLjk2MzkydjI4LjY2ODFjMCAxLjE4OTA3LS45NDU5MiAyLjAxMTc1LTIuMDI2MjUgMi4wMTE3NSIvPiYjeGE7ICA8cGF0aCBkPSJtMTAwLjMwNiAzMi4yNzhjLTMuOTYyNzYgMC04LjEwNjkzLS44MjM0Ny0xMS45ODAzLTIuMjg1ODRsLjk0NjMxLTMuMjkyN2MzLjU1Nzk3IDEuMTQzMzIgNy40MzA5OSAxLjk2NjM5IDExLjAzNCAxLjk2NjM5IDQuOTk5NTggMCA3LjYxMTYzLTEuNzgzNCA3LjYxMTYzLTQuMjk3NTkgMC0yLjI4NjYzLTIuMDI3NDEtMy40Mjk1Ni05LjAwODE3LTYuNzIxODctNi45ODA3Ni0zLjI5MTkyLTkuNzI3MjItNS4zOTQ3Ny05LjcyNzIyLTkuNTEwNTUgMC01LjE2NTYzIDMuOTYyNzYtNy4yNzAwNiAxMS40Mzg0LTcuMjcwMDYgMy4xMDgxMyAwIDcuODgxNjIuNjQwODcgMTAuNjMgMS40NjM5NWwtLjYzMDg3IDMuMzgzMDJjLTMuMDE4MzktLjczMTE5LTYuODAwNTEtMS4yMzQwMi05LjkwODY0LTEuMjM0MDItNS4yNjgzOSAwLTcuNDMwNiAxLjAwNTI4LTcuNDMwNiAzLjUyMDY2IDAgMi40Njg0NCAxLjU3NTYyIDMuNTIwMjYgOC45NjE5NCA2Ljk0OTgyIDcuNzkxODggMy42MTIxNiA5Ljc3MzQ1IDUuNDQxMyA5Ljc3MzQ1IDkuMTg5OTIgMCA1LjQ0MTctNS4xMzUxNSA4LjEzODg4LTExLjcxIDguMTM4ODgiLz4mI3hhOyAgPHBhdGggZD0ibTEzMC43OTggMS4zMjM2N2g0LjA5ODMzdjMwLjQ1MTFoLTQuMDk4MzN6Ii8+JiN4YTsgIDxwYXRoIGQ9Im0xNjkuNzU4IDE3Ljk2NjloLTEwLjE3OTh2MTAuMzM0aDEwLjE3OThjMy40Njc0NiAwIDUuNTg0MjItMi4xOTUxNCA1LjU4NDIyLTUuMjU5MSAwLTIuODgwNTctMi4yMDY1LTUuMDc0OTItNS41ODQyMi01LjA3NDkybS0xLjk4Mjc0LTEzLjE2ODVoLTguMTk3MDV2OS43MzkyOWg4LjE5NzA1YzMuMjg4MzggMCA1LjY3NTEyLTIuMTAzNjQgNS42NzUxMi01LjAyOTU3IDAtMi44ODA1Ny0yLjA3MjA4LTQuNzA5NzItNS42NzUxMi00LjcwOTcybTIuMDI3NDEgMjYuOTc2NmgtMTIuMjQ5OWMtMS4xNzE2MiAwLTIuMDcyNDctLjkxNDk3LTIuMDcyNDctMi4wNTc1di0yNi4zMzYxYzAtMS4wOTc5Ni45MDA4Ni0yLjA1NzUgMi4wNzI0Ny0yLjA1NzVoMTAuMTMzMmM2LjIxNTA5IDAgOS45MDc4NiAzLjA2MzE3IDkuOTA3ODYgNy44NjQzOSAwIDIuNjA1NjktMS41MzEzNCA1LjAyOTE3LTMuODczOCA2LjQ0NjU5IDMuNDY5NCAxLjA1MTgyIDUuODA5OTIgMy45MzIgNS44MDk5MiA3LjQwNjkxIDAgNC44NDY1Ny00LjAwNzQzIDguNzMzMjItOS43MjcyMiA4LjczMzIyIi8+JiN4YTsgIDxwYXRoIGQ9Im0xOTkuMjEyIDMxLjc3NTFjLTEuMTI0MjIgMC0yLjAyNTQ3LS45NjAzMi0yLjAyNTQ3LTIuMDU3NXYtMjguMzkzNmg0LjA5NzU1djI2Ljc0NzloMTYuMzA0djMuNzAzMjZoLTE4LjM3NjF6Ii8+JiN4YTsgIDxwYXRoIGQ9Im0yNDUuNTI2IDMyLjI3OGMtOC4zNzczIDAtMTMuNDIxNS0zLjEwODkyLTEzLjQyMTUtOS4zNzI5MSAwLTIuOTcyMDcgMS42NjY5MS01LjgwNjkgNC45MDk4NC03LjEzMjgxLTIuNjEyNDQtMS42NDYxNi0zLjk2MzE0LTMuOTc4MTQtMy45NjMxNC02LjUzODQ4IDAtNS42NjkyNiA0LjM2OTg3LTguMzY4MDIgMTIuNTY1OC04LjM2ODAyIDIuNzQ3NjMgMCA2LjYyMDI2LjMyMDYzIDkuODYzNTggMS4wNTI2MWwtLjQ1MTAxIDMuMzgzMDJjLTMuNDIyMDEtLjU0ODk4LTYuNjIxMDQtLjg2ODA0LTkuNzI4MzktLjg2ODA0LTUuMzE0NjIgMC04LjE1MjM4IDEuNDYyMzctOC4xNTIzOCA0Ljk4MzQzIDAgMi43ODk0NyAyLjYxMjgzIDQuOTgzODIgNi4wODE0NiA0Ljk4MzgyaDcuMDI1MDRjLjk5MDk4IDAgMS43NTYyNi43NzczMyAxLjc1NjI2IDEuNzM3MjYgMCAxLjAwNTY4LS43NjUyOCAxLjc4MzAxLTEuNzU2MjYgMS43ODMwMWgtNy41NjUwMWMtMy45NjQ3IDAtNi40ODU0NiAxLjk2NTYxLTYuNDg1NDYgNC45ODQyMSAwIDQuNDM0ODQgNC4wOTgzMyA1Ljc2MDc1IDkuMjMyMzIgNS43NjA3NSAyLjc5MjY5IDAgNi41NzQ0Mi0uMzY0OCA5LjYzNjcxLTEuMDk2NzhsLjU4Njk3IDMuMzM3MjdjLTIuOTI4MjcuODIzNDctNi43NTcgMS4zNzE2Ni0xMC4xMzQ3IDEuMzcxNjYiLz4mI3hhOyAgPHBhdGggZD0ibTE0LjEzOCA3LjAzNDcgNy4xNzc3MSAxNy45ODQzLTEwLjg0MDYtOC42NjkzMyAzLjY2Mjg2LTkuMzE0OTN6bTEyLjc1MTQgMjIuMTI3Ny0xMS4wMzk5LTI2Ljk3NDZjLS4zMTUwNS0uNzc3MzMtLjk0NTkyLTEuMTg5MDctMS43MTE1OS0xLjE4OTA3cy0xLjQ0MTIxLjQxMTc0LTEuNzU2MjYgMS4xODkwN2wtMTIuMTE3OSAyOS41ODc0aDQuMTQ0NTZsNC43OTc1Ny0xMi4xOTgzIDE0LjMxNDIgMTEuNzQwOGMuNTc1NzEuNDcyMDguOTkwOTguNjg1ODMgMS41MzIxMi42ODU4MyAxLjA4MDMzIDAgMi4wMjYyNS0uODIyNjggMi4wMjYyNS0yLjAxMTM1IDAtLjE5Mjg1LS4wNjc5OC0uNDk5NjgtLjE4OTE4LS44Mjk3OHoiLz4mI3hhOyA8L2c+JiN4YTsgPHBhdGggZmlsbD0iIzFhMTkxOCIgZD0ibTI1NS44NzkgMTI3Ljg2OGMwIDcwLjQ1NTEtNTcuMTEwMSAxMjcuNTY1LTEyNy41NjYgMTI3LjU2NS03MC40NTAxIDAtMTI3LjU2Ni01Ny4xMDk2LTEyNy41NjYtMTI3LjU2NSAwLTcwLjQ1MDEgNTcuMTE2MS0xMjcuNTY2IDEyNy41NjYtMTI3LjU2NiA3MC40NTYxIDAgMTI3LjU2NiA1Ny4xMTYxIDEyNy41NjYgMTI3LjU2NiIvPiYjeGE7IDxwYXRoIGZpbGw9IiNmZmYiIGQ9Im0xMzAuNDYgNzguMjI4OSAzMy4wMTE2IDgxLjQ3NjMtNDkuODYzNS0zOS4yNzc4IDE2Ljg1MTktNDIuMTk4NHptNTguNjQ0NSAxMDAuMjQ1LTUwLjc3ODYtMTIyLjIwMmMtMS40NDk1Mi0zLjUyNDM2LTQuMzQ4MDctNS4zODkyNi03Ljg2NTkxLTUuMzg5MjYtMy41MjQzNiAwLTYuNjMzODYgMS44NjQ4OS04LjA4MzM5IDUuMzg5MjZsLTU1LjczMjkgMTM0LjA0aDE5LjA2NTNsMjIuMDYyMy01NS4yNjUzIDY1LjgzODkgNTMuMTg5OWMyLjY0NzkyIDIuMTQxMTQgNC41NTg1MiAzLjEwOTUgNy4wNDIyIDMuMTA5NSA0Ljk3Mzg5IDAgOS4zMjE0Ni0zLjcyODc4IDkuMzIxNDYtOS4xMTEwMSAwLS44NzU5NC0uMzA5MzktMi4yNjYyLS44Njk0MS0zLjc2MTQzeiIvPiYjeGE7PC9zdmc+" vertex="1" parent="1">
          <mxGeometry x="450" y="150" width="57.07" height="70" as="geometry" />
        </mxCell>
        <mxCell id="EoUMbDXSJmn96Bxg5w5c-5" value="" style="rounded=0;whiteSpace=wrap;html=1;fillColor=#f9f7ed;strokeColor=#36393d;" vertex="1" parent="1">
          <mxGeometry x="600" y="80" width="180" height="230" as="geometry" />
        </mxCell>
        <mxCell id="EoUMbDXSJmn96Bxg5w5c-8" value="" style="shape=image;verticalLabelPosition=bottom;verticalAlign=top;imageAspect=0;aspect=fixed;image=data:image/svg+xml,PHN2ZyB4bWxucz0iaHR0cDovL3d3dy53My5vcmcvMjAwMC9zdmciIHZpZXdCb3g9IjAgMCAxMjggMTI4Ij48ZyBmaWxsLXJ1bGU9ImV2ZW5vZGQiIGNsaXAtcnVsZT0iZXZlbm9kZCI+PHBhdGggZmlsbD0iIzk0Nzk1ZCIgZD0ibTg3LjI1OSAxMDAuMTM5Yy4xNjktLjMyNS4zMzEtLjYxMi40NjktLjkwOS4wODctLjE5LjIyMS0uMjI4LjQxLS4yMjMgMS4xMzMuMDMyIDIuMjY2LjA2NyAzLjQuMDc4Ljk2My4wMSAxLjkyOC0uMDA4IDIuODkyLS4wMTkgMS4wODYtLjAxMyAyLjE3Mi0uMDcgMy4yNTctLjAzOSAxLjQ0NS4wNDIgMi44NTMuMzI1IDQuMTYuOTY4IDEuNTYxLjc2OSAyLjc0MiAxLjk0IDMuNTQ3IDMuNDgzLjUxNC45ODUuODEyIDIuMDMuOTMxIDMuMTQuMTcyIDEuNjA4LjA1OSAzLjE3OS0uNDUxIDQuNzE3LS42MzIgMS45MDYtMS44MzIgMy4zNjUtMy40OTkgNC40NTgtMS4yODMuODQxLTIuNjkgMS4zMzgtNC4xOTggMS42MjItMS41OTYuMzAxLTMuMTk3LjIwNC00Ljc5OC4yMDktMS43NTYuMDA3LTMuNTExLS4wMzEtNS4yNjctLjA1MS0uMzA3LS4wMDMtLjM1MS0uMDYxLS4yNy0uMzU0bC4wNzUtLjI3Yy4xNzEtLjUzOC4yNjMtLjU2Mi44MDktLjY1Mi4zNzgtLjA2MS43Ny0uMjAzIDEuMDg3LS40MTMuMTg0LS4xMjIuMjYtLjQ0LjMzMi0uNjg1LjA2Mi0uMjE0LjA2NS0uNDQ5LjA2Ny0uNjc1LjAyNS0zLjQyNS4wNTEtNi44NDkuMDY1LTEwLjI3Mi4wMDMtLjg2NS0uMDE3LTEuNzMyLS4wNjUtMi41OTYtLjAzNC0uNjA1LS4zNTctMS4wMTktMS4wNzctMS4xNjItLjU2LS4xMTEtMS4xMjQtLjE5Ny0xLjY4Ny0uMjk2em0xNi4wNzYgOC4yOTNjLS4wNzYtLjY4Mi0uMTEzLTEuMzctLjIzNS0yLjA0Mi0uMjkyLTEuNjEzLS45OTgtMy4wMTgtMi4yMzgtNC4xMTktMi4wMDUtMS43NzktNC40MTktMi4wNTMtNi45NDktMS44NDEtLjU3Ni4wNDgtLjcuMjQ1LS43MDkuODM3LS4wMTQuODQtLjAyOCAxLjY4LS4wMjkgMi41Mi0uMDA0IDIuNjY0LS4wMDQgNS4zMjggMCA3Ljk5Mi4wMDEuNzU4LjAwOSAxLjUxNi4wMzEgMi4yNzIuMDI0Ljc3NC4zMDUgMS40MjkgMS4wNjMgMS43MjkgMS4xOTUuNDczIDIuNDUyLjUyOSAzLjcwNi4zMzYgMi4wMDMtLjMwNyAzLjQwNC0xLjQ3NCA0LjM0NC0zLjIyMy43NDQtMS4zODguOTU0LTIuOTAzIDEuMDE2LTQuNDYxem00Ljg2OSA5LjA3MWMtLjAyNC0uNDE1LjE0Ni0uNzU4LjM1Ni0xLjA3My4wNTctLjA4NS4yNTMtLjA4MS4zODgtLjEwOGwxLjE0Ni0uMjI3Yy40MDUtLjA4Ni42MTgtLjM1OC42NzUtLjc1NS4wMzgtLjI2Mi4wNzQtLjUyNy4wNzctLjc5Mi4wMjUtMi4wOTcuMDQ5LTQuMTk0LjA1OS02LjI5MS4wMS0yLjEuMDAyLTQuMi4wMDItNi4zbC0uMDA5LS40MDFjLS4wNDEtLjY3NS0uMzY3LTEuMDI1LTEuMDM3LTEuMTI0bC0xLjQ1My0uMjIxYy0uMTc5LS4wMjQtLjI0NC0uMTEtLjE3OS0uMjY5LjExMi0uMjcxLjIxOS0uNTUyLjM3Ny0uNzk2LjA1OS0uMDkuMjU4LS4xMjUuMzkyLS4xMjIuNjk0LjAxIDEuMzg4LjA2MiAyLjA4Mi4wNjFsNi4wNDEtLjAzNmMxLjE2NC0uMDAxIDIuMjg4LjIwMiAzLjMzMi43NTkgMS4xNDkuNjEyIDEuNzkyIDEuNTU5IDEuOTc2IDIuODQ5LjE5MiAxLjM1NS0uMjE5IDIuNDk3LTEuMjA5IDMuNDA0LS40MDcuMzc0LS45MzQuNjE4LTEuNDA2LjkyMmwtLjE1NC4wOTZjLjQzOC4xNjEuODU1LjMgMS4yNjEuNDY2IDEuMTg4LjQ4NyAyLjEzMyAxLjI0OCAyLjYzMyAyLjQ2My4zOTUuOTU5LjM5NSAxLjk1OS4xNjEgMi45NTMtLjM2NCAxLjU1Ni0xLjM4OSAyLjU5MS0yLjcyMiAzLjM3NC0xLjI1MS43MzUtMi42MDUgMS4xNjMtNC4wNDcgMS4yMzUtMS4zMy4wNjctMi42NjYuMDQyLTMuOTk5LjA1N2wtLjc3Mi4wMDRjLTEuMjg0LS4wMjktMi41NjktLjA2Mi0zLjg1NC0uMDk2em01LjUzNy02LjA4OWguMDEzYzAgLjY1OC0uMDA5IDEuMzE2LjAwMyAxLjk3NC4wMDguNDI2LS4wMDcuODY0LjA4NSAxLjI3NC4xMzguNjEzLjQxOCAxLjE2NiAxLjEwNiAxLjM0Mi45MjkuMjM5IDEuODc4LjI4NyAyLjgxOC4xMjQgMS4xNzctLjIwNSAyLjExNi0uNzk1IDIuNjMxLTEuOTE2LjM4Mi0uODMzLjQzOS0xLjcxNi4zMDgtMi42MTgtLjE3NC0xLjE4OC0uODA1LTIuMDUtMS44NTQtMi42MTUtLjY4OC0uMzcxLTEuNDIyLS41OTgtMi4yMDQtLjYyOC0uODc2LS4wMzMtMS43NTMtLjAzNS0yLjYyOS0uMDYyLS4yNDYtLjAwNy0uMjguMTE4LS4yNzkuMzIuMDA1LjkzNC4wMDIgMS44NjkuMDAyIDIuODA1em0xLjg2NS00LjQ3NWMuNDc5LS4wMjQgMS4wMjEtLjAzMSAxLjU2LS4wODUgMS4wMzItLjEwMyAxLjc1OS0uNjIyIDIuMTM4LTEuNjA5LjE5My0uNTAxLjE4NS0xLjAxNy4xOS0xLjUzOC4wMTUtMS4zNTctLjc3Ny0yLjQ2OS0yLjA2Ni0yLjkyOS0uOTk1LS4zNTUtMi4wMjEtLjM2MS0zLjA1My0uMzMzLS40MTguMDExLS42MDUuMTk0LS42MTEuNjE1bC0uMDYyIDUuNDg5Yy0uMDAzLjIxOC4wOTEuMzEyLjMwMy4zMTl6Ii8+PHBhdGggZmlsbD0iIzUwMzgyYiIgZD0ibTEwLjU0MyAxMTYuNDQ4LS4wNzMuOTQ0Yy0uNjggMC0xLjMwNy0uMDA1LTEuOTM0LjAwMi0xLjE4MS4wMTItMi4zNjIuMDMxLTMuNTQ0LjA0OGwtLjExNC4wMDdjLS4xNjktLjAyLS40NzYtLjAyLS40ODQtLjA3LS4wNS0uMjgxLS4wMzQtLjU3Ni0uMDIxLS44NjcuMDAxLS4wMzMuMTE2LS4wNzUuMTgzLS4wOTFsLjkxOS0uMjA1Yy41NzMtLjE0OS43NzUtLjM5Ni44MDItLjk4OC4wMzEtLjY2Ny4wNjItMS4zMzUuMDY1LTIuMDAyLjAwOS0xLjY0Mi0uMDAxLTMuMjgyLjAwNi00LjkyNC4wMDEtLjM4NC0uMTMyLS42Ny0uNDktLjgyNi0uNDI2LS4xODgtLjg1NC0uMzcyLTEuMjg1LS41NDYtLjIwNC0uMDgyLS40NjktLjEyNy0uNDQ1LS40MDEuMDI0LS4yNzkuMjgxLS4zNTIuNTIzLS40MDcgMS4wMDItLjIyOSAyLjAwNS0uNDUyIDMuMDA0LS42OTYuMzIyLS4wNzkuNjMtLjIxMiAxLjAxNS0uMzQ2LjAyLjIwOC4wNTcuNDA2LjA1My42MDRsLS4wNTkuOTQxYy0uMDAxLjEwNi4wNTQuMjQ4LjEzMy4zMDcuMDQ4LjAzNy4yMDktLjAzLjI4OS0uMDkyLjg1NC0uNjUgMS43NTgtMS4yMTEgMi43ODktMS41MzggMS41OTctLjUwNyAyLjk2OC0uMDM3IDMuOTI4IDEuMzQuMzM4LjQ4NS4zMzkuNDg1LjgwOC4xNDYuODA1LS41ODUgMS42NDctMS4xMDEgMi41ODktMS40NDEgMi4wNjgtLjc0NyA0LjA1NS4yMDEgNC43NzQgMi4yODQuMjYyLjc1Ni4zNjIgMS41MzcuMzYgMi4zMzVsLS4wMTkgNS4yOThjLS4wMDEuNDM3LjE0NC42ODYuNTYuODIyLjQ2Ny4xNTMuOTUxLjI1OCAxLjQ3Ny4zOTZsLS4xMjIuOTExYy0uNTk4IDAtMS4xNDgtLjAwNC0xLjY5OC4wMDEtMS4zNDQuMDEyLTIuNjg4LjAxOS00LjAzMS4wNS0uMjM0LjAwNi0uMjk1LS4wNTItLjMwNy0uMjcxLS4wMzktLjcwMS0uMDQ1LS43LjYxNS0uODU4bC4yMjItLjA1N2MuNjQ1LS4xNzYuODYtLjM3NC44NjUtMS4wMjguMDE1LTEuODc4LjA1NC0zLjc2MS0uMDQxLTUuNjM1LS4wOTktMS45NDQtMS42NDItMi45NzktMy41MjYtMi40ODEtLjYxNS4xNjItMS4xNzIuNDQ2LTEuNjkuODE0LS4xNzUuMTI1LS4yMDguMjY5LS4xOTQuNDg4LjA1My44MjguMDg2IDEuNjU3LjA5MyAyLjQ4Ni4wMTIgMS40NTEtLjAwNiAyLjkwMiAwIDQuMzU0LjAwMi41ODguMjAzLjgxMy43ODQuOTQ5bC44NjMuMTk5LjE2LjAzNmMuMDEyLjI3Ni4wMjMuNTUyLjAxLjgyOC0uMDA4LjE3My0uMTQyLjE4OC0uMjkyLjE4NS0uODM5LS4wMjEtMS42NzktLjA0OS0yLjUxOC0uMDQ3LTEuMDIxLjAwMi0yLjA0MS4wMzEtMy4wNjEuMDQ5aC0uMjRjMC0uMjkzLS4wMTQtLjU3My4wMS0uODUyLjAwNS0uMDY3LjEyMy0uMTYxLjIwNC0uMTgybDEuMDA2LS4yMTNjLjQyNy0uMTA1LjYzMS0uMzI0LjY1NS0uNzU4LjExNC0yLjAxLjE5Ni00LjAyMS4wMDctNi4wMy0uMDM3LS4zOS0uMTY0LS43ODYtLjMyNi0xLjE0NS0uNTE1LTEuMTM4LTEuNjc0LTEuNjEzLTMuMDExLTEuMjcxLS42MzUuMTYyLTEuMjA4LjQ1My0xLjc1LjgyLS4yNTYuMTc0LS4zNzguNDA0LS4zNzguNjk1IDAgMi4wMDUuMDA3IDQuMDEuMDEzIDYuMDE0bC4wMTEuNzczYy4wMTIuNTM5LjI0MS44MjMuNzc2LjkzOS4zNDQuMDc4LjY5Mi4xMzEgMS4wODIuMjAzeiIvPjxwYXRoIGZpbGw9IiM0ZjM4MmIiIGQ9Im03MS4wMDEgMTA1LjI4NWMuMTU1Ljc1NC4xNTIgMS40MzItLjQwMiAxLjk0Ni0uNTUuNTExLTEuMjQ2LjMzOS0xLjkyNS4yMjUuMDYzLjM1OC4xMzMuNjYyLjE2Ny45Ny4yNDcgMi4yODktLjczOCAzLjk4OC0yLjg2MSA0Ljk1OS0uODAyLjM2Ni0xLjY1My41MDItMi41MjIuNTcyLS40MzIuMDM0LS44MS4zNjQtLjg1MS43MTktLjA0Mi4zNi4xODQuNzMuNjM2LjgzOC41MzMuMTI3IDEuMDg5LjE2MyAxLjYzNi4yMjYgMS4xNzQuMTM0IDIuMzYxLjE5NSAzLjUyMS40MDUgMS43NTQuMzE2IDIuNzMzIDEuODQ3IDIuNDI0IDMuNjA5LS4yNzUgMS41NjgtMS4xODMgMi43MDktMi40NDkgMy41ODQtMi4xMzMgMS40NzgtNC40NzMgMS45MS02Ljk2NSAxLjE1Ni0xLjQyNS0uNDMyLTIuNDMtMS4zNjktMi43NzctMi44ODUtLjE3NC0uNzU5LjAxMS0xLjQ0Ni41ODItMS45NjEuNjc5LS42MSAxLjQxOC0xLjE1NCAyLjEyOS0xLjczbC4yMy0uMjMxLS4yNjQtLjE4NWMtLjcyNS0uMzQ0LTEuMzA1LS44MTUtMS41My0xLjYzMy0uMDc3LS4yNzcuMDAzLS40NTkuMjM4LS42MDEuNC0uMjQxLjc5OC0uNDg2IDEuMTkzLS43MzUuMTg2LS4xMTYuMzctLjIzNi41NDMtLjM3LjIzNi0uMTguMjE1LS4zMTQtLjA2Ny0uNDE4LS42NTYtLjI0Mi0xLjIzOS0uNTkzLTEuNjkxLTEuMTMzLS43NTUtLjkwMS0uOTY5LTEuOTc0LS45MDctMy4xMDcuMDk3LTEuNzcgMS4wNTgtMi45MzYgMi42Mi0zLjY4NiAxLjg1Ny0uODkxIDMuNzItLjk0NyA1LjYxMy0uMTM1LjcuMyAxLjQzOC4zNjQgMi4xODkuMzEyLjU2MS0uMDQgMS4wNTEtLjI1MiAxLjQ5LS43MTF6bS02Ljg0MyAxMi42ODFjLTEuMzk0LS4wMTItMS44MzEuMTYtMi42NDkuOTkzLS45MTYuOTM0LS45MTEgMi4yMjkuMDAzIDMuMTY3LjY5NC43MTEgMS41NiAxLjA0NCAyLjUyMyAxLjE0NCAxLjEyNS4xMTYgMi4yMzMuMDY5IDMuMjU1LS40OTQgMS4wOS0uNjAzIDEuNjMyLTEuNzIzIDEuMzg3LTIuODUxLS4yMDMtLjkzMS0uODg5LTEuMzU3LTEuNzI0LTEuNjAyLS45NS0uMjc4LTEuOTMyLS4zMzEtMi43OTUtLjM1N3ptLTIuNzM4LTguOTA4Yy4wNTEuMzg3LjA3Mi43NzkuMTU4IDEuMTU4LjIyMy45ODIuNjUgMS44NDUgMS42MjcgMi4yODIgMS4xNDcuNTE1IDIuNjEyLjI5NCAzLjExNC0xLjMxNi4zNDQtMS4xMDMuMzAyLTIuMTk4LS4xMTMtMy4yNzQtLjE4NS0uNDgtLjQ4My0uODg2LS45MS0xLjE4NC0uOTk2LS42OTUtMi43OTMtLjc4Ny0zLjUyNS43NDktLjIzOC40OTktLjMzMSAxLjAzLS4zNTEgMS41ODV6Ii8+PHBhdGggZmlsbD0iIzRmMzcyYiIgZD0ibTQ3LjM1IDEwNS4wMzhjLjAzNy4xNzEuMTExLjM2NS4xMTMuNTYuMDAzLjM3MS0uMDM3Ljc0Mi0uMDU4IDEuMTEzdi4zMjJsLjMxNC0uMjRjLjg2LS43MDggMS43ODQtMS4zMTEgMi44Ni0xLjYzNiAxLjk0Mi0uNTg1IDMuODgyLjQ3OCA0LjUxNSAyLjQ1Ni4yNC43NTIuMzM1IDEuNTI1LjM0NCAyLjMxMS4wMiAxLjc0Ni4wMzIgMy40OTIuMDUgNS4yMzguMDA2LjYyNy4wNzguNzM5LjY3MS45Mi4zMzYuMTAzLjY4My4xNzUgMS4wMy4yMjkuMTkxLjAzLjI3My4xMDUuMjYzLjI5MmwuMDAyLjE3MmMtLjAwNy43MjMtLjA1Ny43NTYtLjc1OC43NTQtMS42NzgtLjAwMy0zLjM1NS4wMDctNS4wMzMuMDIxLS41LjAwNC0uNTAxLjAxOS0uNTUxLS40NzVsLS4wMS0uMjg0Yy4wMzEtLjQyNi4wNDEtLjQyMi40Ni0uNDg0LjI4Mi0uMDQyLjU2Mi0uMTA3LjgzNy0uMTc5LjI4My0uMDczLjQxOS0uMjgyLjQ1Ny0uNTYyLjAxOS0uMTQyLjA0NC0uMjg0LjA0My0uNDI2LS4wMjQtMS45MDguMDA3LTMuODE4LS4wOTctNS43MjMtLjA4NC0xLjU0MS0xLjI2LTIuNDU5LTIuODA3LTIuMzU0LS43NTkuMDUzLTEuNDQ1LjMwNi0yLjA3MS43NDMtLjQxMy4yODktLjQ5Ni43MDYtLjQ5NCAxLjE1NS4wMDggMS43ODQuMDI1IDMuNTY4LjA0NCA1LjM1My4wMDQuMzkxLjAxNS43ODIuMDUyIDEuMTcuMDM5LjQyNC4xODguNTk1LjYwNC42ODcuMzk4LjA4OC44MDQuMTM5IDEuMjI5LjIxbC4wMzYuMzI4Yy4wMTQuNzY1LS4wNjYuODIyLS44MDkuODE5LTEuNzM1LS4wMDctMy40Ny4wMDQtNS4yMDQuMDIzLS4yNzMuMDA0LS4zODktLjA4Mi0uMzgyLS4zNDhsLS4wMDQtLjExNGMtLjA0NS0uNjg5LS4wMjUtLjcxNS42MjctLjgyN2wuMzA4LS4wNjJjLjcwNi0uMTU5Ljg4Ny0uMzQ3Ljg5Ny0xLjA2NC4wMzMtMi4yNzEuMDQ1LTQuNTQxLjA2OC02LjgxMi4wMDMtLjMyNi0uMTItLjU3OS0uNDI0LS43MTQtLjQyNi0uMTg4LS44NTYtLjM2Ny0xLjI4Ny0uNTQ0LS4yMzgtLjA5OC0uNTEtLjE2LS41MTktLjQ4OS0uMDA2LS4yMzIuMjQyLS40MzcuNTgxLS41MDYuNjgxLS4xMzggMS4zNjgtLjI1MyAyLjA0MS0uNDIyLjY3LS4xNjcgMS4zMjgtLjM5MSAyLjA2Mi0uNjExeiIvPjxwYXRoIGZpbGw9IiM0ZjM4MmIiIGQ9Im04NC44NjUgMTEwLjk3Yy0uMDMyIDIuMTIxLS41ODMgMy44MzYtMi4wODMgNS4xMjMtMS45IDEuNjMzLTQuODY0IDIuMTg4LTcuMjg3Ljk2Ny0xLjAzNC0uNTIxLTEuNzk0LTEuMzItMi4yODktMi4zNTctLjc1OS0xLjU5NS0uOTQ5LTMuMjcyLS41NTMtNC45OS4zOTItMS42OTkgMS40MjEtMi45MyAyLjk2MS0zLjcyNyAxLjU4NC0uODE5IDMuMjUyLTEuMTM5IDUuMDExLS43MDkgMi4yMjUuNTQzIDMuODI0IDIuMzU3IDQuMTQyIDQuNjY3LjA1Ny40MDUuMDc5LjgxNS4wOTggMS4wMjZ6bS0yLjU3NyAxLjE0OS0uMDg2LS4wMWMwLS4yLjAxMS0uNC0uMDAyLS42LS4wNzMtMS4yNDYtLjM1My0yLjQzMy0xLjA3NS0zLjQ3Ni0uNjg1LS45ODgtMS42MTgtMS41NzEtMi44MzItMS42NTYtMS4zNTktLjA5Ni0yLjUwMS42NjQtMi45MDIgMi4wNTItLjYwMiAyLjA4NC0uMzk4IDQuMTE1LjY2IDYuMDI0LjQ2MS44MzIgMS4xNDQgMS40NDYgMi4wNTkgMS43NjkgMS43OTMuNjMxIDMuMzgzLS4xODYgMy44NS0yLjAyMi4xNzItLjY3OC4yMjItMS4zODcuMzI4LTIuMDgxeiIvPjxwYXRoIGZpbGw9IiM0ZjM3MmIiIGQ9Im00MC44MTkgMTExLjEzNGMtLjAzNyAxLjUyMi0uMzk2IDIuOTI5LTEuMzM2IDQuMTUyLTEuMDA3IDEuMzEtMi4zOTEgMi4wMS0zLjk2NSAyLjMwNS0xLjg2MS4zNDgtMy42MDkuMDMyLTUuMTA0LTEuMjE3LS43MS0uNTk0LTEuMTk1LTEuMzU1LTEuNTE1LTIuMjIxLS41MjUtMS40Mi0uNjU2LTIuODc1LS4zMzMtNC4zNTguMzQ1LTEuNTg3IDEuMjQxLTIuOCAyLjYzLTMuNjE0IDEuNjA2LS45MzkgMy4zMzktMS4zNTggNS4xOS0uOTM2IDIuMzguNTQ0IDMuNzU0IDIuMDk1IDQuMjYyIDQuNDQzLjEwMi40NzQuMTE2Ljk2NC4xNzEgMS40NDZ6bS0yLjYwNiAxLjAwNC0uMDY5LS4wMXYtLjI4NmMtLjAzOS0xLjM5Ni0uMzEyLTIuNzI2LTEuMTQ1LTMuODg2LS42MTctLjg2MS0xLjQ0My0xLjQwMS0yLjUwMi0xLjU1Mi0xLjcyNi0uMjQ2LTIuODU0Ljc3OC0zLjIyOCAyLjE2OS0uNDg4IDEuODE3LS4zMzUgMy42MTIuNDIgNS4zMzUuNDcxIDEuMDc0IDEuMjE1IDEuOTExIDIuMzU4IDIuMzE3IDEuNzgyLjYzMyAzLjM5Ni0uMjA1IDMuODQ3LTIuMDM0LjE2Ni0uNjY5LjIxNi0xLjM2Ny4zMTktMi4wNTN6Ii8+PHBhdGggZmlsbD0iIzQzOTkzNCIgZD0ibTgyLjM2MiAzMy41NDRjMS4yMjcgMy41NDcgMi4xMDkgNy4xNjggMi40IDEwLjkyLjM2IDQuNjU2LjE5NiA5LjI4LS43ODYgMTMuODU5bC0uMTI2LjM2NmMtLjMwOC4wMDEtLjYyMi0uMDM4LS45MjMuMDA5LTIuNTQzLjQtNS4wODMuODE0LTcuNjI0IDEuMjI2LTIuNjI3LjQyNi01LjI1Ni44MzUtNy44NzggMS4yODktLjkyOS4xNi0yLjA3OS0uMDMxLTIuNDU0IDEuMjUzbC0uMTguMDYxLjEyNy03LjY3OC0uMTI5LTE4LjUyNiAxLjIyNC0uMjFjMi4wMDEtLjMyNyA0LjAwMi0uNjYgNi4wMDYtLjk3OSAyLjM5LS4zNzkgNC43ODItLjc0OSA3LjE3NC0xLjExOSAxLjA1Ni0uMTYyIDIuMTEzLS4zMTMgMy4xNjktLjQ3MXoiLz48cGF0aCBmaWxsPSIjNDVhNTM4IiBkPSJtNjIuMjY1IDg0LjkxMWMtMS4yOTEtMS4xMS0yLjYyNy0yLjE3MS0zLjg2NC0zLjMzOS02LjY1OC02LjI4LTExLjUyOS0xMy42NzMtMTMuOTI4LTIyLjU4Ni0uNjYxLTIuNDUyLTEuMTAxLTQuOTQ1LTEuMjQzLTcuNDc5LS4xLTEuNzc0LS4yNDMtMy41NjMtLjExNy01LjMyOC4zMzMtNC42OTMgMS4wMTItOS4zNDEgMi4zODgtMTMuODYybC4wNzYtLjEwNWMuMTM0LjE3OC4zMjYuMzM2LjM5NC41MzcgMS4zNDQgMy45NTYgMi42NzcgNy45MTYgNC4wMDQgMTEuODc5IDQuMTY5IDEyLjQ1MSA4LjMzMyAyNC45MDUgMTIuNTA5IDM3LjM1NC4wODIuMjQzLjI5My40NDIuNDQ1LjY2MXoiLz48cGF0aCBmaWxsPSIjNDZhMDM3IiBkPSJtODIuMzYyIDMzLjU0NGMtMS4wNTcuMTU3LTIuMTE0LjMwOS0zLjE2OS40NzEtMi4zOTIuMzctNC43ODQuNzQtNy4xNzQgMS4xMTktMi4wMDMuMzE4LTQuMDA0LjY1MS02LjAwNi45NzlsLTEuMjI0LjIxLS4wMS0uNzk4Yy0uMDQxLS42NTYtLjEwOS0xLjMxMi0uMTE4LTEuOTY4bC0uMTM3LTEyLjU1NGMtLjAzMi0yLjYxOS0uMDgtNS4yMzgtLjEzMy03Ljg1Ni0uMDMzLTEuNjI3LS4wNjgtMy4yNTUtLjE0MS00Ljg4LS4wNC0uODczLS4xODEtMS43NDItLjIzNy0yLjYxNS0uMDMzLS41MDIuMDExLTEuMDA4LjAyMi0xLjUxMi42MjQgMS4yMDkgMS4yMzUgMi40MjcgMS44NzYgMy42MjcgMS4wMTMgMS44OTcgMi42MjggMy4yOTUgNC4wODMgNC44MiA1Ljc0NiA2LjAzMSA5LjgyNSAxMy4wMzkgMTIuMzY4IDIwLjk1N3oiLz48cGF0aCBmaWxsPSIjNDA5NDMzIiBkPSJtNjQuNzkyIDYyLjUyNy4xOC0uMDYxYy4zNzUtMS4yODQgMS41MjUtMS4wOTMgMi40NTQtMS4yNTMgMi42MjItLjQ1NCA1LjI1MS0uODYzIDcuODc4LTEuMjg5IDIuNTQxLS40MTEgNS4wODEtLjgyNSA3LjYyNC0xLjIyNi4zMDEtLjA0Ny42MTUtLjAwOC45MjMtLjAwOS0uNDc1IDEuNjk2LS44NDkgMy40MjktMS40NTIgNS4wNzgtLjY4NSAxLjg3LTEuNTEzIDMuNjk2LTIuMzkyIDUuNDg2LTEuMzE0IDIuNjc1LTIuOTUxIDUuMTcxLTQuODUzIDcuNDU4LTEuNDY2IDEuNzYyLTMuMSAzLjM5My00LjczNyA1LjAwMi0uOTA2Ljg4OS0xLjk3MiAxLjYxNC0yLjk2NiAyLjQxNGwtLjI1OC0uMTc2LS45MjctLjc5Mi0uOTU5LTIuMTA0Yy0uNjYxLTIuNDYyLTEuMDA3LTQuOTY4LTEuMDY1LTcuNTE2bC4wMTgtLjQyOC4xMzEtMS44NTRjLjA0My0uNjMzLjEwMS0xLjI2NS4xMjgtMS44OTguMDk2LTIuMjc2LjE4Mi00LjU1NC4yNzMtNi44MzJ6Ii8+PHBhdGggZmlsbD0iIzRmYWE0MSIgZD0ibTY0Ljc5MiA2Mi41MjdjLS4wOSAyLjI3OC0uMTc2IDQuNTU3LS4yNzMgNi44MzUtLjAyNy42MzQtLjA4NCAxLjI2Ni0uMTI4IDEuODk4bC0uNTg0LjIyMWMtMS4yOTgtMy44MjEtMi41OTctNy42MDItMy44NjctMTEuMzkyLTIuMTAxLTYuMjcxLTQuMTc2LTEyLjU1MS02LjI3NC0xOC44MjQtMS42OTMtNS4wNjItMy40MDEtMTAuMTIxLTUuMTE4LTE1LjE3Ni0uMDgxLS4yMzYtLjMxMS0uNDIyLS40NzEtLjYzMWwzLjc0LTYuODc3Yy4xMjkuMjIzLjI5OC40MzIuMzc5LjY3MiAxLjczIDUuMTIgMy40NTcgMTAuMjQxIDUuMTY5IDE1LjM2NyAyLjIyOCA2LjY3IDQuNDQxIDEzLjM0MyA2LjY2NyAyMC4wMTQuMDg5LjI2Ni4yMzUuNTEyLjM3NS44MTFsLjUxMi0uNTk2Yy0uMDQzIDIuNTYtLjA4NSA1LjExOC0uMTI3IDcuNjc4eiIvPjxwYXRoIGZpbGw9IiM0YWE3M2MiIGQ9Im00OC4wNzYgMjUuNDU4Yy4xNjEuMjA5LjM5MS4zOTUuNDcxLjYzMSAxLjcxNyA1LjA1NSAzLjQyNSAxMC4xMTMgNS4xMTggMTUuMTc2IDIuMDk4IDYuMjczIDQuMTczIDEyLjU1MyA2LjI3NCAxOC44MjQgMS4yNyAzLjc5IDIuNTY5IDcuNTcgMy44NjcgMTEuMzkybC41ODQtLjIyMS0uMTMxIDEuODU0LS4xMTkuNDI3Yy0uMjAzIDIuMDI5LS4zNzQgNC4wNjItLjYyMiA2LjA4Ny0uMTI0IDEuMDE1LS4zODkgMi4wMTEtLjU5IDMuMDE1LS4xNTEtLjIxOS0uMzYzLS40MTgtLjQ0NS0uNjYxLTQuMTc3LTEyLjQ0OS04LjM0LTI0LjkwMy0xMi41MDktMzcuMzU0LTEuMzI3LTMuOTYzLTIuNjYxLTcuOTIzLTQuMDA0LTExLjg3OS0uMDY4LS4yMDEtLjI2LS4zNTktLjM5NC0uNTM3eiIvPjxwYXRoIGZpbGw9IiM1N2FlNDciIGQ9Im02NC45MTggNTQuODQ5LS41MTIuNTk2Yy0uMTQtLjI5OS0uMjg2LS41NDUtLjM3NS0uODExLTIuMjI2LTYuNjcxLTQuNDM5LTEzLjM0NC02LjY2Ny0yMC4wMTQtMS43MTItNS4xMjYtMy40MzktMTAuMjQ3LTUuMTY5LTE1LjM2Ny0uMDgxLS4yNC0uMjUtLjQ0OS0uMzc5LS42NzJsNC42MjUtNi4wODRjLjE0Ni4xOTQuMzU0LjM2Ny40MjkuNTg2IDEuMjg0IDMuNzYgMi41NTYgNy41MjMgMy44MjIgMTEuMjg5IDEuMTgyIDMuNTE4IDIuMzQ2IDcuMDQgMy41NDIgMTAuNTUyLjA4LjIzNS4zNTkuNDAxLjU0NS42MDFsLjAxLjc5OHoiLz48cGF0aCBmaWxsPSIjNjBiMjRmIiBkPSJtNjQuNzc5IDM1LjUyNWMtLjE4Ny0uMTk5LS40NjUtLjM2NS0uNTQ1LS42MDEtMS4xOTUtMy41MTItMi4zNi03LjAzNC0zLjU0Mi0xMC41NTItMS4yNjYtMy43NjYtMi41MzgtNy41MjktMy44MjItMTEuMjg5LS4wNzUtLjIxOS0uMjgzLS4zOTItLjQyOS0uNTg2IDEuNTA0LTEuNDczIDIuOTYxLTIuOTk5IDQuNTI2LTQuNDA0IDEuMzkxLTEuMjQ4IDIuNTA5LTIuNTg2IDIuNTYxLTQuNTU5bC4xMS0uMzkzLjM5Ni45OThjLS4wMS41MDQtLjA1NSAxLjAxLS4wMjIgMS41MTIuMDU3Ljg3My4xOTggMS43NDIuMjM3IDIuNjE1LjA3MyAxLjYyNS4xMDggMy4yNTMuMTQxIDQuODguMDUzIDIuNjE4LjEwMSA1LjIzNy4xMzMgNy44NTZsLjEzNyAxMi41NTRjLjAxLjY1Ny4wNzkgMS4zMTMuMTE5IDEuOTY5eiIvPjxwYXRoIGZpbGw9IiNhOWFhODgiIGQ9Im02Mi45MjkgODIuNjQyYy4yMDEtMS4wMDQuNDY2LTIgLjU5LTMuMDE1LjI0OC0yLjAyNC40MTktNC4wNTguNjIyLTYuMDg3bC4wNTEtLjAwOC4wNS4wMDljLjA1OCAyLjU0OC40MDQgNS4wNTQgMS4wNjUgNy41MTYtLjEzNS4xNzgtLjMyNC4zMzUtLjM5Ni41MzUtLjU1NSAxLjU2Ni0xLjA3OSAzLjE0NS0xLjYzNyA0LjcxLS4wNzYuMjE0LS4yOS4zODEtLjQzOS41NjhsLS41NzEtMS45NnoiLz48cGF0aCBmaWxsPSIjYjZiNTk4IiBkPSJtNjIuODM1IDg2Ljg3MWMuMTQ5LS4xODguMzYzLS4zNTQuNDM5LS41NjguNTU4LTEuNTY1IDEuMDgyLTMuMTQ0IDEuNjM3LTQuNzEuMDcxLS4yLjI2MS0uMzU3LjM5Ni0uNTM1bC45NTkgMi4xMDRjLS4xODkuMjY4LS40NTEuNTExLS41NTYuODFsLTEuODM2IDUuMzkyYy0uMDc2LjIxNy0uMzMzLjM2OS0uNTA3LjU1MnoiLz48cGF0aCBmaWxsPSIjYzJjMWE3IiBkPSJtNjMuMzY3IDg5LjkxNWMuMTczLS4xODMuNDMxLS4zMzUuNTA3LS41NTJsMS44MzYtNS4zOTJjLjEwNC0uMjk5LjM2Ny0uNTQyLjU1Ni0uODFsLjkyOC43OTFjLS40NDguNDQzLS42OTcuOTU1LS41NDcgMS42MDJsLS4yODIuOTIzYy0uMTI4LjE1OC0uMzE0LjI5Ni0uMzc3LjQ3Ny0uNjQxIDEuODM2LTEuMjUyIDMuNjgyLTEuODk4IDUuNTE3LS4wODIuMjMyLS4zMDkuNDE1LS40NjguNjIxeiIvPjxwYXRoIGZpbGw9IiNjZWNkYjciIGQ9Im02My42MjEgOTMuMDkxYy4xNi0uMjA2LjM4Ny0uMzg5LjQ2OC0uNjIxLjY0Ni0xLjgzNSAxLjI1OC0zLjY4MSAxLjg5OC01LjUxNy4wNjMtLjE4MS4yNDktLjMxOC4zNzctLjQ3N2wtLjM4OSA0LjIzNmMtLjEwNC4xMi0uMjU0LjIyNS0uMzA0LjM2NGwtMS4yOTQgMy43MDhjLS4wOTEuMjUzLS4yNjUuNDc5LS40MDEuNzE2LS4xMjEtLjE1OC0uMzM3LS4zMTEtLjM0Ny0uNDc1LS4wMzgtLjY0Mi0uMDExLTEuMjg5LS4wMDgtMS45MzR6Ii8+PHBhdGggZmlsbD0iI2RiZGFjNyIgZD0ibTYzLjk3NyA5NS41MDFjLjEzNi0uMjM3LjMxLS40NjMuNDAxLS43MTZsMS4yOTQtMy43MDhjLjA1LS4xNC4yMDEtLjI0NC4zMDQtLjM2NGwuMDEgMi43OC0uOTMxIDIuMzg3eiIvPjxwYXRoIGZpbGw9IiNlYmU5ZGMiIGQ9Im02NS4wNTUgOTUuODguOTMxLTIuMzg3LjE5MiAyLjgyNHoiLz48cGF0aCBmaWxsPSIjY2VjZGI3IiBkPSJtNjYuNjQ2IDg1LjU1NGMtLjE0OS0uNjQ2LjA5OS0xLjE1OC41NDctMS42MDJsLjI1OC4xNzZ6Ii8+PHBhdGggZmlsbD0iIzRmYWE0MSIgZD0ibTY0LjI0MiA3My41NDItLjA1LS4wMDktLjA1MS4wMDguMTE5LS40Mjd6Ii8+PC9nPjwvc3ZnPg==" vertex="1" parent="1">
          <mxGeometry x="660" y="90" width="60" height="60" as="geometry" />
        </mxCell>
        <mxCell id="EoUMbDXSJmn96Bxg5w5c-9" value="" style="shape=image;verticalLabelPosition=bottom;verticalAlign=top;imageAspect=0;aspect=fixed;image=data:image/svg+xml,PHN2ZyB4bWxucz0iaHR0cDovL3d3dy53My5vcmcvMjAwMC9zdmciIGhlaWdodD0iNjAiIHdpZHRoPSIxMjAiIHZpZXdCb3g9IjAgMCAxMjAgNjAiPjxwYXRoIGQ9Ik00MCA0MS43NTNWMTguNzA4aDEuMjV2My42MjVhNC43NCA0Ljc0IDAgMCAwIC40MDgtLjUxMWMxLjA0NC0yLjE2NiAzLjI0Ni0zLjUzMyA1LjY1LTMuNTA2IDIuODUtLjA4NSA1LjE2Ni45NyA2LjUyNyAzLjUwNmExMS4yNyAxMS4yNyAwIDAgMSAuMjcyIDEwLjMzMWMtMS4yNjggMi44NDItNC40IDQuMjU1LTcuNzUzIDMuNzM2YTYuMjcgNi4yNyAwIDAgMS01LjAwNC0zLjMwMnY5LjE2NXptMS4yNS0xNC44OTNsLjI4IDIuNzA2Yy40OTQgMy4wOCAyLjMxNSA0LjkgNS4xNzQgNS4yNDJhNS44OCA1Ljg4IDAgMCAwIDYuNDU5LTMuNzM2YzEuMTEyLTIuNjUgMS4wMy01LjY1LS4yMi04LjIzOGE1Ljc2IDUuNzYgMCAwIDAtNi4wNjgtMy4zNTMgNS42MSA1LjYxIDAgMCAwLTUuMDEyIDQuMTQ0IDI4LjYyIDI4LjYyIDAgMCAwLS42MTMgMy4yMzR6bTM5LjQ5OCAzLjEzMmE2Ljc0IDYuNzQgMCAwIDEtNi41ODcgNS45NTdjLTUuMjQyLjI2NC03LjcwMi0zLjIxNy04LjA5My03LjIzNGExMS41OSAxMS41OSAwIDAgMSAxLjAyMS02LjM4MyA3LjEyIDcuMTIgMCAwIDEgNy40MTItMy45NzQgNi44MSA2LjgxIDAgMCAxIDYuMDQyIDUuMTgzIDM0Ljk3IDM0Ljk3IDAgMCAxIC41ODcgMy44M0g2Ny4zNjNjLS4yNTUgMy42NDIgMS43MDIgNi41NyA0LjQ3NiA3LjI3NiAzLjQ1NS44NSA2LjQwOC0uNjQ3IDcuNDgtMy45MzIuMjM4LS44NDMuNjcyLS45NjIgMS40MzgtLjcyM3ptLTEzLjM5NS0zLjc4N2gxMi4zMTRjLS4wNzctMy44OC0yLjQ5My02LjctNS43Ny02LjczMi0zLjctLjA2LTYuMzgzIDIuNjQ3LTYuNTQ0IDYuNzMyem0xNS45NCAzLjg3Mkg4NC41YTQuODQgNC44NCAwIDAgMCAyLjg0MiA0LjE3IDcuNDMgNy40MyAwIDAgMCA2LjQ1MS0uMTcgMi45IDIuOSAwIDAgMCAxLjcwMi0yLjg1MSAyLjYzIDIuNjMgMCAwIDAtMS43Ny0yLjYzYy0xLjMyOC0uNDk0LTIuNzQtLjc2Ni00LjA5My0xLjJhMzAgMzAgMCAwIDEtNC4xMTktMS41MDZjLTIuMTgtMS4wNjQtMi4zMTUtNS4yMDguMTUzLTYuNTJhOC42OSA4LjY5IDAgMCAxIDguMzA2LS4xMjhjMS41OTQuODggMi40NzUgMi42NTcgMi4yMTMgNC40Nkg5NS4xNWMwLS4wNS0uMDk0LS4wOTQtLjA5NC0uMTQ1LS4xMjgtMy4zLTIuOTAyLTQuMzMyLTUuODgtNC4wNDItLjkuMS0xLjc1My4zNzItMi41NTMuNzc0YTIuNTUgMi41NSAwIDAgMC0xLjQ4IDIuNTUzIDIuNTUgMi41NSAwIDAgMCAxLjcwMiAyLjRjMS4zLjQ3NyAyLjY4Ljc4MyA0LjAyNSAxLjE1N2wzLjI1Ljg1YTMuODQgMy44NCAwIDAgMSAyLjYzOCAzLjQ2NGMuMjYgMS43NDUtLjYzIDMuNDYtMi4yMDQgNC4yNTUtMi44NDIgMS42MDgtNy41MjMgMS4xODMtOS42MDgtLjg1LTEuMDY3LTEuMDczLTEuNjYyLTIuNTMtMS42NS00LjA0MnptMjguNzgtNi4zNzRoLTEuMTMyYzAtLjE1My0uMDYtLjMtLjA3Ny0uNDE3YTMuNyAzLjcgMCAwIDAtMy4wMTMtMy41NTcgNy40MyA3LjQzIDAgMCAwLTQuNzc0LjIzIDIuOSAyLjkgMCAwIDAtMi4xMDIgMi43NjYgMi42NyAyLjY3IDAgMCAwIDIuMDQyIDIuNjg5bDUuMTc0IDEuMzI4YTE0LjM5IDE0LjM5IDAgMCAxIDEuNjUuNTAyYzEuNjUuNiAyLjc3IDIuMTMyIDIuODIgMy44ODNhNC4yNSA0LjI1IDAgMCAxLTIuNiA0LjA0IDkuNDcgOS40NyAwIDAgMS03LjY1OS4wNzcgNS4zMSA1LjMxIDAgMCAxLTMuMi01LjE1N2gxLjEwNmMuNDE2IDIuMDA1IDEuNzkzIDMuNjc1IDMuNjgyIDQuNDY1czQuMDQ2LjU5NiA1Ljc2NC0uNTE2YTMuMDQgMy4wNCAwIDAgMCAxLjYzNC0yLjg0MiAyLjYzIDIuNjMgMCAwIDAtMS43OTYtMi42MTNjLTEuMzI4LS40OTQtMi43NC0uNzU3LTQuMDkzLTEuMmEzMC4xNSAzMC4xNSAwIDAgMS00LjE0NC0xLjQ4OWMtMi4xMjgtMS4wNDctMi4yOTgtNS4xNTcuMTI4LTYuNDY4YTguNTcgOC41NyAwIDAgMSA4LjQ0Mi0uMDk0IDQuNDUgNC40NSAwIDAgMSAyLjEzNiA0LjM2NnptLTc0LjEzIDExLjgzYTEuOTUgMS45NSAwIDAgMS0yLjQxNy0uOTE5bC00LjQtNi4wODUtLjYzOC0uODUtNS4xMDYgNi45NDRhMS44NyAxLjg3IDAgMCAxLTIuMjk4LjkwMmw2LjU3OC04LjgyNS02LjEyLTcuOTc0Yy45MDgtLjMyOCAxLjkyLjAyOCAyLjQyNS44NWw0LjU2IDYuMTYgNC41ODctNi4xMzZhMS44MyAxLjgzIDAgMCAxIDIuMjgxLS44NTFMMzUuMDIgMjEuOWwtMy4yMTcgNC4xODdhLjg1Ljg1IDAgMCAwIDAgMS4yNjhsNi4xMjcgOC4xNzh6bTI3LjkzLTE2Ljg5MnYxLjJhNi4xNyA2LjE3IDAgMCAwLTYuNTcgNi4zNzRxMCA0LjIwNCAwIDguNDA4di45NTNoLTEuMjE3di0xNi44NmgxLjJ2My40NTVjMS40NzItMi41MiAzLjc0NC0zLjQ1NSA2LjU5NS0zLjUyM3pNNy4zMzMgMjYuNTlsLjUzNi0yLjY0N2MxLjQ3Mi01LjIzNCA3LjQ3Mi03LjQxMiAxMS42LTQuMTcgMi40MTcgMS44OTggMy4wMiA0LjU4NyAyLjkwMiA3LjYxN0g4Ljc1NGMtLjIyIDUuNDEyIDMuNjg1IDguNjggOC42OCA3LjAxMiAxLjY0Ni0uNiAyLjg4NS0xLjk2OCAzLjI5My0zLjY2OC4yNjQtLjg1LjctLjk5NiAxLjQ5OC0uNzVhNi45MSA2LjkxIDAgMCAxLTMuMzAyIDUuMDQ3IDggOCAwIDAgMS05LjMxOS0xLjE5MWMtMS4yMTYtMS4zNjctMS45NS0zLjA5NS0yLjA5My00LjkyIDAtLjMtLjEtLjU4LS4xNy0uODVxLS4wMS0uNzU3LS4wMS0xLjQ4em0xLjQzOC0uMzY2aDEyLjMxNGMtLjA3Ny0zLjkyMy0yLjU1My02LjcwNi01Ljg1NS02LjczMi0zLjY3Ni0uMDUtNi4zMDYgMi42NzItNi40NjggNi43MTV6Ii8+PC9zdmc+" vertex="1" parent="1">
          <mxGeometry x="651" y="150" width="78" height="39" as="geometry" />
        </mxCell>
        <mxCell id="EoUMbDXSJmn96Bxg5w5c-10" value="" style="shape=image;verticalLabelPosition=bottom;verticalAlign=top;imageAspect=0;aspect=fixed;image=data:image/svg+xml,PHN2ZyB4bWxuczp4bGluaz0iaHR0cDovL3d3dy53My5vcmcvMTk5OS94bGluayIgeG1sbnM9Imh0dHA6Ly93d3cudzMub3JnLzIwMDAvc3ZnIiB4bWw6c3BhY2U9InByZXNlcnZlIiBzdHlsZT0iZW5hYmxlLWJhY2tncm91bmQ6bmV3IDAgMCAxMjIuODggMTA5LjQzIiB2aWV3Qm94PSIwIDAgMTIyLjg4IDEwOS40MyIgeT0iMHB4IiB4PSIwcHgiIGlkPSJMYXllcl8xIiB2ZXJzaW9uPSIxLjEiPjxzdHlsZSB0eXBlPSJ0ZXh0L2NzcyI+LnN0MHtmaWxsLXJ1bGU6ZXZlbm9kZDtjbGlwLXJ1bGU6ZXZlbm9kZDtmaWxsOiMwMEQ4RkY7fTwvc3R5bGU+PGc+PHBhdGggZD0iTTEyMi44OCw1NC43M2MwLTguMTQtMTAuMTktMTUuODUtMjUuODItMjAuNjRjMy42MS0xNS45MywyLTI4LjYtNS4wNi0zMi42NmMtMS42My0wLjk1LTMuNTMtMS40LTUuNjEtMS40IHY1LjU5YzEuMTUsMCwyLjA4LDAuMjMsMi44NiwwLjY1YzMuNDEsMS45NSw0Ljg4LDkuMzksMy43MywxOC45NmMtMC4yOCwyLjM1LTAuNzMsNC44My0xLjI4LDcuMzZjLTQuOTEtMS4yLTEwLjI3LTIuMTMtMTUuOS0yLjczIGMtMy4zOC00LjYzLTYuODktOC44NC0xMC40Mi0xMi41MkM3My41NCw5Ljc0LDgxLjIsNS41OSw4Ni40MSw1LjU5VjBsMCwwYy02Ljg5LDAtMTUuOSw0LjkxLTI1LjAyLDEzLjQzIEM1Mi4yNyw0Ljk2LDQzLjI2LDAuMSwzNi4zNywwLjF2NS41OWM1LjE4LDAsMTIuODcsNC4xMywyMS4wNCwxMS42N2MtMy41MSwzLjY4LTcuMDEsNy44Ni0xMC4zNCwxMi41IGMtNS42NiwwLjYtMTEuMDIsMS41My0xNS45MywyLjc1Yy0wLjU4LTIuNS0xLTQuOTMtMS4zLTcuMjZjLTEuMTgtOS41NywwLjI4LTE3LjAxLDMuNjYtMTguOTljMC43NS0wLjQ1LDEuNzMtMC42NSwyLjg4LTAuNjVWMC4xMyBsMCwwYy0yLjEsMC00LjAxLDAuNDUtNS42NiwxLjRjLTcuMDQsNC4wNi04LjYyLDE2LjcxLTQuOTgsMzIuNTlDMTAuMTQsMzguOTIsMCw0Ni42MSwwLDU0LjczYzAsOC4xNCwxMC4xOSwxNS44NSwyNS44MiwyMC42NCBjLTMuNjEsMTUuOTMtMiwyOC42LDUuMDYsMzIuNjZjMS42MywwLjk1LDMuNTMsMS40LDUuNjQsMS40YzYuODksMCwxNS45LTQuOTEsMjUuMDItMTMuNDNjOS4xMiw4LjQ3LDE4LjEzLDEzLjMzLDI1LjAyLDEzLjMzIGMyLjEsMCw0LjAxLTAuNDUsNS42Ni0xLjRjNy4wNC00LjA2LDguNjItMTYuNzEsNC45OC0zMi41OUMxMTIuNzQsNzAuNTYsMTIyLjg4LDYyLjg0LDEyMi44OCw1NC43M0wxMjIuODgsNTQuNzN6IE03Mi44Niw1NC43MyBjMC02LjMyLTUuMTItMTEuNDUtMTEuNDUtMTEuNDVjLTYuMzIsMC0xMS40NSw1LjEyLTExLjQ1LDExLjQ1czUuMTIsMTEuNDUsMTEuNDUsMTEuNDVDNjcuNzQsNjYuMTcsNzIuODYsNjEuMDUsNzIuODYsNTQuNzMgTDcyLjg2LDU0LjczeiBNMzYuMzQsMC4xTDM2LjM0LDAuMUwzNi4zNCwwLjFMMzYuMzQsMC4xeiBNOTAuMjcsMzguMDJjLTAuOTMsMy4yMy0yLjA4LDYuNTYtMy4zOCw5Ljg5Yy0xLjAzLTItMi4xLTQuMDEtMy4yOC02LjAxIGMtMS4xNS0yLTIuMzgtMy45Ni0zLjYxLTUuODZDODMuNTYsMzYuNTcsODYuOTksMzcuMjIsOTAuMjcsMzguMDJMOTAuMjcsMzguMDJ6IE03OC44LDY0LjdjLTEuOTUsMy4zOC0zLjk2LDYuNTktNi4wNCw5LjU3IGMtMy43MywwLjMzLTcuNTEsMC41LTExLjMyLDAuNWMtMy43OCwwLTcuNTYtMC4xOC0xMS4yNy0wLjQ4Yy0yLjA4LTIuOTgtNC4xMS02LjE2LTYuMDYtOS41MmMtMS45LTMuMjgtMy42My02LjYxLTUuMjEtOS45NyBjMS41NS0zLjM2LDMuMzEtNi43MSw1LjE4LTkuOTljMS45NS0zLjM4LDMuOTYtNi41OSw2LjA0LTkuNTdjMy43My0wLjMzLDcuNTEtMC41LDExLjMyLTAuNWMzLjc4LDAsNy41NiwwLjE4LDExLjI3LDAuNDggYzIuMDgsMi45OCw0LjExLDYuMTYsNi4wNiw5LjUyYzEuOSwzLjI4LDMuNjMsNi42MSw1LjIxLDkuOTdDODIuNCw1OC4wNiw4MC42OCw2MS40MSw3OC44LDY0LjdMNzguOCw2NC43eiBNODYuODksNjEuNDQgYzEuMzUsMy4zNiwyLjUsNi43MSwzLjQ2LDkuOTdjLTMuMjgsMC44LTYuNzQsMS40OC0xMC4zMiwyYzEuMjMtMS45MywyLjQ1LTMuOTEsMy42MS01Ljk0Qzg0Ljc4LDY1LjQ3LDg1Ljg2LDYzLjQ0LDg2Ljg5LDYxLjQ0IEw4Ni44OSw2MS40NHogTTYxLjQ5LDg4LjE2Yy0yLjMzLTIuNC00LjY2LTUuMDgtNi45Ni04LjAxYzIuMjUsMC4xLDQuNTYsMC4xOCw2Ljg5LDAuMThjMi4zNSwwLDQuNjgtMC4wNSw2Ljk2LTAuMTggQzY2LjEyLDgzLjA4LDYzLjc5LDg1Ljc2LDYxLjQ5LDg4LjE2TDYxLjQ5LDg4LjE2eiBNNDIuODYsNzMuNDFjLTMuNTYtMC41My02Ljk5LTEuMTgtMTAuMjctMS45OGMwLjkzLTMuMjMsMi4wOC02LjU2LDMuMzgtOS44OSBjMS4wMywyLDIuMSw0LjAxLDMuMjgsNi4wMUM0MC40Myw2OS41Niw0MS42Myw3MS41MSw0Mi44Niw3My40MUw0Mi44Niw3My40MXogTTYxLjM2LDIxLjI5YzIuMzMsMi40LDQuNjYsNS4wOCw2Ljk2LDguMDEgYy0yLjI1LTAuMS00LjU2LTAuMTgtNi44OS0wLjE4Yy0yLjM1LDAtNC42OCwwLjA1LTYuOTYsMC4xOEM1Ni43MywyNi4zNyw1OS4wNiwyMy42OSw2MS4zNiwyMS4yOUw2MS4zNiwyMS4yOXogTTQyLjgzLDM2LjA0IGMtMS4yMywxLjkzLTIuNDUsMy45MS0zLjYxLDUuOTRjLTEuMTUsMi0yLjIzLDQuMDEtMy4yNiw2LjAxYy0xLjM1LTMuMzYtMi41LTYuNzEtMy40Ni05Ljk3QzM1Ljc5LDM3LjI0LDM5LjI1LDM2LjU3LDQyLjgzLDM2LjA0IEw0Mi44MywzNi4wNHogTTIwLjE2LDY3LjRjLTguODctMy43OC0xNC42LTguNzQtMTQuNi0xMi42N2MwLTMuOTMsNS43NC04LjkyLDE0LjYtMTIuNjdjMi4xNS0wLjkzLDQuNTEtMS43NSw2Ljk0LTIuNTMgYzEuNDMsNC45MSwzLjMxLDEwLjAyLDUuNjQsMTUuMjVjLTIuMyw1LjIxLTQuMTYsMTAuMjktNS41NiwxNS4xOEMyNC43LDY5LjE4LDIyLjM0LDY4LjMzLDIwLjE2LDY3LjRMMjAuMTYsNjcuNHogTTMzLjY0LDEwMy4xOSBjLTMuNDEtMS45NS00Ljg4LTkuMzktMy43My0xOC45NmMwLjI4LTIuMzUsMC43My00LjgzLDEuMjgtNy4zNmM0LjkxLDEuMiwxMC4yNywyLjEzLDE1LjksMi43M2MzLjM4LDQuNjMsNi44OSw4Ljg0LDEwLjQyLDEyLjUyIGMtOC4xNyw3LjU5LTE1LjgzLDExLjc1LTIxLjA0LDExLjc1QzM1LjM0LDEwMy44NCwzNC4zOSwxMDMuNjIsMzMuNjQsMTAzLjE5TDMzLjY0LDEwMy4xOXogTTkzLjA1LDg0LjExIGMxLjE4LDkuNTctMC4yOCwxNy4wMS0zLjY2LDE4Ljk5Yy0wLjc1LDAuNDUtMS43MywwLjY1LTIuODgsMC42NWMtNS4xOCwwLTEyLjg3LTQuMTMtMjEuMDQtMTEuNjdjMy41MS0zLjY4LDcuMDEtNy44NiwxMC4zNC0xMi41IGM1LjY2LTAuNiwxMS4wMi0xLjUzLDE1LjkzLTIuNzZDOTIuMzIsNzkuMzUsOTIuNzcsODEuNzgsOTMuMDUsODQuMTFMOTMuMDUsODQuMTF6IE0xMDIuNjksNjcuNGMtMi4xNSwwLjkzLTQuNTEsMS43NS02Ljk0LDIuNTMgYy0xLjQzLTQuOTEtMy4zMS0xMC4wMi01LjY0LTE1LjI1YzIuMy01LjIxLDQuMTYtMTAuMjksNS41Ni0xNS4xOGMyLjQ4LDAuNzgsNC44MywxLjYzLDcuMDQsMi41NWM4Ljg3LDMuNzgsMTQuNiw4Ljc0LDE0LjYsMTIuNjcgQzExNy4yOSw1OC42NiwxMTEuNTYsNjMuNjQsMTAyLjY5LDY3LjRMMTAyLjY5LDY3LjR6IiBjbGFzcz0ic3QwIi8+PC9nPjwvc3ZnPg==" vertex="1" parent="1">
          <mxGeometry x="661.29" y="189" width="57.55" height="51" as="geometry" />
        </mxCell>
        <mxCell id="EoUMbDXSJmn96Bxg5w5c-11" value="" style="shape=image;verticalLabelPosition=bottom;verticalAlign=top;imageAspect=0;aspect=fixed;image=data:image/svg+xml,PHN2ZyB4bWxuczp4bGluaz0iaHR0cDovL3d3dy53My5vcmcvMTk5OS94bGluayIgeG1sbnM9Imh0dHA6Ly93d3cudzMub3JnLzIwMDAvc3ZnIiB3aWR0aD0iNTExLjMwNjU0OTA3MjI2NTYiIHZpZXdCb3g9IjAuMjMxMTUyMDU3NjQ3NzA1MDggMCA1MTEuMzA2NTQ5MDcyMjY1NiAzMTMuMDk0MzYwMzUxNTYyNSIgcHJlc2VydmVBc3BlY3RSYXRpbz0ieE1pZFlNaWQiIGhlaWdodD0iMzEzLjA5NDM2MDM1MTU2MjUiPjxkZWZzPjxsaW5lYXJHcmFkaWVudCBpZD0iYSI+PHN0b3Agc3RvcC1jb2xvcj0iIzQxODczZiIgb2Zmc2V0PSIwIi8+PHN0b3Agc3RvcC1jb2xvcj0iIzQxOGIzZCIgb2Zmc2V0PSIuMzI4OCIvPjxzdG9wIHN0b3AtY29sb3I9IiM0MTk2MzciIG9mZnNldD0iLjYzNTIiLz48c3RvcCBzdG9wLWNvbG9yPSIjM2ZhOTJkIiBvZmZzZXQ9Ii45MzE5Ii8+PHN0b3Agc3RvcC1jb2xvcj0iIzNmYWUyYSIgb2Zmc2V0PSIxIi8+PC9saW5lYXJHcmFkaWVudD48bGluZWFyR3JhZGllbnQgeTI9Ijg5Ljc1NTE0MiUiIHkxPSIxNy40ODY4MzElIiB4bGluazpocmVmPSIjYSIgeDI9IjI3LjgyMjY5NCUiIHgxPSI2OC4xODg0NDElIiBpZD0iYiIvPjxwYXRoIGQ9Im01Ny45MDMzODYgMS44NDkyMDk5M2MtMS44NDkyMDk5LTEuMDQwMTgwNTgtNC4wNDUxNDY3LTEuMDQwMTgwNTgtNS44OTQzNTY3IDBsLTQ4LjY1NzMzNjMgMjguMDg0ODc1ODdjLTEuODQ5MjA5OTMgMS4wNDAxODA2LTIuODg5MzkwNTIgMy4wMDQ5NjYxLTIuODg5MzkwNTIgNS4wODUzMjczdjU2LjI4NTMyNzNjMCAyLjA4MDM2MTIgMS4xNTU3NTYyMSA0LjA0NTE0NjcgMi44ODkzOTA1MiA1LjA4NTMyNzNsNDguNjU3MzM2MyAyOC4wODQ4NzYzYzEuODQ5MjEgMS4wNDAxOCA0LjA0NTE0NjggMS4wNDAxOCA1Ljg5NDM1NjcgMGw0OC42NTczMzYtMjguMDg0ODc2M2MxLjg0OTIxLTEuMDQwMTgwNiAyLjg4OTM5MS0zLjAwNDk2NjEgMi44ODkzOTEtNS4wODUzMjczdi01Ni4yODUzMjczYzAtMi4wODAzNjEyLTEuMTU1NzU2LTQuMDQ1MTQ2Ny0yLjg4OTM5MS01LjA4NTMyNzN6IiBpZD0iYyIvPjxsaW5lYXJHcmFkaWVudCB5Mj0iLTE4LjMwNjEzOCUiIHkxPSI1NS4xNjg3NzclIiB4Mj0iMTU5LjI0NTI3NyUiIHgxPSI0My4yNzY1NDclIiBpZD0iZCI+PHN0b3Agc3RvcC1jb2xvcj0iIzQxODczZiIgb2Zmc2V0PSIuMTM3NiIvPjxzdG9wIHN0b3AtY29sb3I9IiM1NGEwNDQiIG9mZnNldD0iLjQwMzIiLz48c3RvcCBzdG9wLWNvbG9yPSIjNjZiODQ4IiBvZmZzZXQ9Ii43MTM2Ii8+PHN0b3Agc3RvcC1jb2xvcj0iIzZjYzA0YSIgb2Zmc2V0PSIuOTA4MSIvPjwvbGluZWFyR3JhZGllbnQ+PGxpbmVhckdyYWRpZW50IGlkPSJlIj48c3RvcCBzdG9wLWNvbG9yPSIjNmNjMDRhIiBvZmZzZXQ9Ii4wOTE5MTY0NiIvPjxzdG9wIHN0b3AtY29sb3I9IiM2NmI4NDgiIG9mZnNldD0iLjI4NjQiLz48c3RvcCBzdG9wLWNvbG9yPSIjNTRhMDQ0IiBvZmZzZXQ9Ii41OTY4Ii8+PHN0b3Agc3RvcC1jb2xvcj0iIzQxODczZiIgb2Zmc2V0PSIuODYyNCIvPjwvbGluZWFyR3JhZGllbnQ+PGxpbmVhckdyYWRpZW50IHkyPSIxMy40MyUiIHkxPSIxMy40MyUiIHhsaW5rOmhyZWY9IiNlIiB4Mj0iNTMyNy45MyUiIHgxPSItNDQxMy43NyUiIGlkPSJmIi8+PGxpbmVhckdyYWRpZW50IHkyPSI0OS45OTcyMDclIiB5MT0iNDkuOTk3MjA3JSIgeGxpbms6aHJlZj0iI2UiIHgyPSIxMDEuNDk5MjM5JSIgeDE9Ii00LjM4ODgwNCUiIGlkPSJnIi8+PGxpbmVhckdyYWRpZW50IHkyPSIzNi4yMSUiIHkxPSIzNi4yMSUiIHhsaW5rOmhyZWY9IiNlIiB4Mj0iMjcuOTMlIiB4MT0iLTk3MTMuNzclIiBpZD0iaCIvPjxsaW5lYXJHcmFkaWVudCB5Mj0iNTAuMjc1NDIxJSIgeTE9IjUwLjI3NTQyMSUiIHhsaW5rOmhyZWY9IiNlIiB4Mj0iMTAwLjc5Njg0OSUiIHgxPSItMTAzLjg2MDcxNCUiIGlkPSJpIi8+PGxpbmVhckdyYWRpZW50IHkyPSIyMDEuNjA1Mzg3JSIgeTE9Ii0yMTEuMDY5MzYlIiB4bGluazpocmVmPSIjYSIgeDI9IjQuMzkzMjc3JSIgeDE9IjEzMC42MTMwMjUlIiBpZD0iaiIvPjxtYXNrIGZpbGw9IiNmZmYiIGlkPSJrIj48dXNlIHhsaW5rOmhyZWY9IiNjIiBmaWxsPSIjZmZmIi8+PC9tYXNrPjwvZGVmcz48ZyBmaWxsPSJub25lIj48cGF0aCBmaWxsPSIjNTM5ZTQzIiBkPSJtMjUzLjExMDYwOSAzMTMuMDk0MzU3Yy0xLjczMzYzNCAwLTMuMzUxNjkzLS40NjIzMDMtNC44NTQxNzYtMS4yNzEzMzJsLTE1LjM3MTU1Ny05LjEzMDQ3NGMtMi4zMTE1MTMtMS4yNzEzMzItMS4xNTU3NTYtMS43MzM2MzUtLjQ2MjMwMy0xLjk2NDc4NiAzLjEyMDU0Mi0xLjA0MDE4IDMuNjk4NDItMS4yNzEzMzIgNi45MzQ1MzgtMy4xMjA1NDIuMzQ2NzI2LS4yMzExNTEuODA5MDI5LS4xMTU1NzUgMS4xNTU3NTYuMTE1NTc2bDExLjc4ODcxMyA3LjA1MDExM2MuNDYyMzAzLjIzMTE1MSAxLjA0MDE4MS4yMzExNTEgMS4zODY5MDggMGw0Ni4xMTQ2NzItMjYuNjk3OTY4Yy40NjIzMDMtLjIzMTE1Mi42OTM0NTQtLjY5MzQ1NC42OTM0NTQtMS4yNzEzMzJ2LTUzLjI4MDM2MWMwLS41Nzc4NzktLjIzMTE1MS0xLjA0MDE4MS0uNjkzNDU0LTEuMjcxMzMybC00Ni4xMTQ2NzItMjYuNTgyMzkzYy0uNDYyMzAzLS4yMzExNTEtMS4wNDAxODEtLjIzMTE1MS0xLjM4NjkwOCAwbC00Ni4xMTQ2NzMgMjYuNTgyMzkzYy0uNDYyMzAyLjIzMTE1MS0uNjkzNDUzLjgwOTAyOS0uNjkzNDUzIDEuMjcxMzMydjUzLjI4MDM2MWMwIC40NjIzMDIuMjMxMTUxIDEuMDQwMTguNjkzNDUzIDEuMjcxMzMybDEyLjU5Nzc0MyA3LjI4MTI2NGM2LjgxODk2MiAzLjQ2NzI2OCAxMS4wOTUyNi0uNTc3ODc4IDExLjA5NTI2LTQuNjIzMDI1di01Mi41ODY5MDhjMC0uNjkzNDUzLjU3Nzg3OC0xLjM4NjkwNyAxLjM4NjkwNy0xLjM4NjkwN2g1Ljg5NDM1N2MuNjkzNDU0IDAgMS4zODY5MDcuNTc3ODc4IDEuMzg2OTA3IDEuMzg2OTA3djUyLjU4NjkwOGMwIDkuMTMwNDc0LTQuOTY5NzUxIDE0LjQ0Njk1Mi0xMy42Mzc5MjMgMTQuNDQ2OTUyLTIuNjU4MjM5IDAtNC43Mzg2IDAtMTAuNjMyOTU3LTIuODg5MzlsLTEyLjEzNTQ0LTYuOTM0NTM3Yy0zLjAwNDk2Ni0xLjczMzYzNS00Ljg1NDE3Ni00Ljk2OTc1Mi00Ljg1NDE3Ni04LjQzNzAyMXYtNTMuMjgwMzYxYzAtMy40NjcyNjggMS44NDkyMS02LjcwMzM4NiA0Ljg1NDE3Ni04LjQzNzAybDQ2LjExNDY3Mi0yNi42OTc5NjljMi44ODkzOTEtMS42MTgwNTggNi44MTg5NjItMS42MTgwNTggOS43MDgzNTMgMGw0Ni4xMTQ2NzIgMjYuNjk3OTY5YzMuMDA0OTY2IDEuNzMzNjM0IDQuODU0MTc2IDQuOTY5NzUyIDQuODU0MTc2IDguNDM3MDJ2NTMuMjgwMzYxYzAgMy40NjcyNjktMS44NDkyMSA2LjcwMzM4Ni00Ljg1NDE3NiA4LjQzNzAyMWwtNDYuMTE0NjcyIDI2LjY5Nzk2OGMtMS41MDI0ODQuNjkzNDU0LTMuMjM2MTE4IDEuMDQwMTgxLTQuODU0MTc3IDEuMDQwMTgxem0xNC4yMTU4MDItMzYuNjM3NDcyYy0yMC4yMjU3MzQgMC0yNC4zODY0NTYtOS4yNDYwNS0yNC4zODY0NTYtMTcuMTA1MTkyIDAtLjY5MzQ1NC41Nzc4NzgtMS4zODY5MDcgMS4zODY5MDctMS4zODY5MDdoNi4wMDk5MzNjLjY5MzQ1MyAwIDEuMjcxMzMxLjQ2MjMwMiAxLjI3MTMzMSAxLjE1NTc1Ni45MjQ2MDUgNi4xMjU1MDggMy41ODI4NDUgOS4xMzA0NzQgMTUuODMzODYgOS4xMzA0NzQgOS43MDgzNTMgMCAxMy44NjkwNzUtMi4xOTU5MzcgMTMuODY5MDc1LTcuMzk2ODQgMC0zLjAwNDk2Ni0xLjE1NTc1Ni01LjIwMDkwMy0xNi4yOTYxNjMtNi43MDMzODYtMTIuNTk3NzQyLTEuMjcxMzMyLTIwLjQ1Njg4NC00LjA0NTE0Ny0yMC40NTY4ODQtMTQuMTAwMjI2IDAtOS4zNjE2MjUgNy44NTkxNDItMTQuOTA5MjU1IDIxLjAzNDc2My0xNC45MDkyNTUgMTQuNzkzNjc5IDAgMjIuMDc0OTQzIDUuMDg1MzI4IDIyLjk5OTU0OCAxNi4xODA1ODcgMCAuMzQ2NzI3LS4xMTU1NzYuNjkzNDU0LS4zNDY3MjcgMS4wNDAxODEtLjIzMTE1MS4yMzExNTEtLjU3Nzg3OC40NjIzMDItLjkyNDYwNS40NjIzMDJoLTYuMDA5OTMyYy0uNTc3ODc4IDAtMS4xNTU3NTYtLjQ2MjMwMi0xLjI3MTMzMi0xLjA0MDE4LTEuMzg2OTA3LTYuMzU2NjU5LTQuOTY5NzUyLTguNDM3MDIxLTE0LjQ0Njk1Mi04LjQzNzAyMS0xMC42MzI5NTggMC0xMS45MDQyODkgMy42OTg0Mi0xMS45MDQyODkgNi40NzIyMzUgMCAzLjM1MTY5MyAxLjUwMjQ4MyA0LjM5MTg3NCAxNS44MzM4NiA2LjI0MTA4NCAxNC4yMTU4MDEgMS44NDkyMSAyMC45MTkxODcgNC41MDc0NDkgMjAuOTE5MTg3IDE0LjQ0Njk1Mi0uMTE1NTc2IDEwLjE3MDY1NS04LjQzNzAyIDE1Ljk0OTQzNi0yMy4xMTUxMjQgMTUuOTQ5NDM2eiIvPjxwYXRoIGZpbGw9IiMzMzMiIGQ9Im0xMTAuMDI3OTkxIDEwNC43MTE1MTJjMC0yLjA4MDM2MS0xLjE1NTc1Ni00LjA0NTE0Ni0zLjAwNDk2Ni01LjA4NTMyNjlsLTQ5LjAwNDA2MzQtMjguMjAwNDUxNWMtLjgwOTAyOTMtLjQ2MjMwMjQtMS43MzM2MzQzLS42OTM0NTM3LTIuNjU4MjM5My0uODA5MDI5M2gtLjQ2MjMwMjRjLS45MjQ2MDUgMC0xLjg0OTIxLjM0NjcyNjktMi42NTgyMzkzLjgwOTAyOTNsLTQ5LjAwNDA2MzIyIDI4LjIwMDQ1MTVjLTEuODQ5MjA5OTMgMS4wNDAxODA5LTMuMDA0OTY2MTQgMy4wMDQ5NjU5LTMuMDA0OTY2MTQgNS4wODUzMjY5bC4xMTU1NzU2MiA3NS44MTc2MDhjMCAxLjA0MDE4LjU3Nzg3ODExIDIuMDgwMzYxIDEuNTAyNDgzMDcgMi41NDI2NjMuOTI0NjA0OTcuNTc3ODc4IDIuMDgwMzYxMTguNTc3ODc4IDIuODg5MzkwNTIgMGwyOS4xMjUwNTY0NS0xNi42NDI4ODljMS44NDkyMDk5LTEuMDQwMTgxIDMuMDA0OTY2MS0zLjAwNDk2NiAzLjAwNDk2NjEtNS4wODUzMjd2LTM1LjQ4MTcxNmMwLTIuMDgwMzYxIDEuMTU1NzU2Mi00LjA0NTE0NyAzLjAwNDk2NjItNS4wODUzMjdsMTIuMzY2NTkxNC03LjE2NTY4OWMuOTI0NjA1LS41Nzc4NzggMS45NjQ3ODU1LS44MDkwMjkgMy4wMDQ5NjYxLS44MDkwMjlzMi4wODAzNjEyLjIzMTE1MSAyLjg4OTM5MDUuODA5MDI5bDEyLjM2NjU5MTUgNy4xNjU2ODljMS44NDkyMDk5IDEuMDQwMTggMy4wMDQ5NjYxIDMuMDA0OTY2IDMuMDA0OTY2MSA1LjA4NTMyN3YzNS40ODE3MTZjMCAyLjA4MDM2MSAxLjE1NTc1NjIgNC4wNDUxNDYgMy4wMDQ5NjYxIDUuMDg1MzI3bDI5LjEyNTA1NjEgMTYuNjQyODg5Yy45MjQ2MDUuNTc3ODc4IDIuMDgwMzYyLjU3Nzg3OCAzLjAwNDk2NyAwIC45MjQ2MDQtLjQ2MjMwMiAxLjUwMjQ4My0xLjUwMjQ4MyAxLjUwMjQ4My0yLjU0MjY2M3oiLz48cGF0aCBmaWxsPSIjMzMzIiBkPSJtMzQ1LjU3MTEwNi4zNDY3MjY4NmMtLjkyNDYwNS0uNDYyMzAyNDgtMi4wODAzNjEtLjQ2MjMwMjQ4LTIuODg5MzkgMC0uOTI0NjA1LjU3Nzg3ODExLTEuNTAyNDgzIDEuNTAyNDgzMDctMS41MDI0ODMgMi41NDI2NjM2NnY3NS4xMjQxNTM0OGMwIC42OTM0NTM3LS4zNDY3MjcgMS4zODY5MDc1LTEuMDQwMTgxIDEuODQ5MjEtLjY5MzQ1NC4zNDY3MjY4LTEuMzg2OTA4LjM0NjcyNjgtMi4wODAzNjEgMGwtMTIuMjUxMDE2LTcuMDUwMTEyOWMtMS44NDkyMS0xLjA0MDE4MDYtNC4wNDUxNDctMS4wNDAxODA2LTUuODk0MzU3IDBsLTQ5LjAwNDA2MyAyOC4zMTYwMjY5Yy0xLjg0OTIxIDEuMDQwMTgxLTMuMDA0OTY2IDMuMDA0OTY2LTMuMDA0OTY2IDUuMDg1MzI3djU2LjUxNjQ3OWMwIDIuMDgwMzYxIDEuMTU1NzU2IDQuMDQ1MTQ3IDMuMDA0OTY2IDUuMDg1MzI3bDQ5LjAwNDA2MyAyOC4zMTYwMjdjMS44NDkyMSAxLjA0MDE4MSA0LjA0NTE0NyAxLjA0MDE4MSA1Ljg5NDM1NyAwbDQ5LjAwNDA2My0yOC4zMTYwMjdjMS44NDkyMS0xLjA0MDE4IDMuMDA0OTY2LTMuMDA0OTY2IDMuMDA0OTY2LTUuMDg1MzI3di0xNDAuODg2NjgxN2MwLTIuMTk1OTM2OC0xLjE1NTc1Ni00LjE2MDcyMjMtMy4wMDQ5NjYtNS4yMDA5MDI5em0tNC41MDc0NDkgMTQzLjc3NjA3MjE0YzAgLjU3Nzg3OC0uMjMxMTUxIDEuMDQwMTgxLS42OTM0NTQgMS4yNzEzMzJsLTE2Ljc1ODQ2NSA5LjcwODM1MmMtLjQ2MjMwMi4yMzExNTEtMS4wNDAxOC4yMzExNTEtMS41MDI0ODMgMGwtMTYuNzU4NDY1LTkuNzA4MzUyYy0uNDYyMzAyLS4yMzExNTEtLjY5MzQ1NC0uODA5MDI5LS42OTM0NTQtMS4yNzEzMzJ2LTE5LjQxNjcwNGMwLS41Nzc4NzguMjMxMTUyLTEuMDQwMTgxLjY5MzQ1NC0xLjI3MTMzMmwxNi43NTg0NjUtOS43MDgzNTJjLjQ2MjMwMy0uMjMxMTUxIDEuMDQwMTgxLS4yMzExNTEgMS41MDI0ODMgMGwxNi43NTg0NjUgOS43MDgzNTJjLjQ2MjMwMy4yMzExNTEuNjkzNDU0LjgwOTAyOS42OTM0NTQgMS4yNzEzMzJ6Ii8+PGcgdHJhbnNmb3JtPSJ0cmFuc2xhdGUoNDAxLjA0NzQwNCA3MC41MDExMjkpIj48cGF0aCBmaWxsPSIjMzMzIiBkPSJtMTA3LjYwMDkwMyA1My43NDI2NjM3YzEuODQ5MjEtMS4wNDAxODA2IDIuODg5MzktMy4wMDQ5NjYyIDIuODg5MzktNS4wODUzMjc0di0xMy43NTM0OTg4YzAtMi4wODAzNjEyLTEuMTU1NzU2LTQuMDQ1MTQ2OC0yLjg4OTM5LTUuMDg1MzI3M2wtNDguNjU3MzM2NC0yOC4yMDA0NTE1MWMtMS44NDkyMDk5LTEuMDQwMTgwNTktNC4wNDUxNDY3LTEuMDQwMTgwNTktNS44OTQzNTY3IDBsLTQ5LjAwNDA2MzE3IDI4LjMxNjAyNzExYy0xLjg0OTIwOTk0IDEuMDQwMTgwNi0zLjAwNDk2NjE0IDMuMDA0OTY2MS0zLjAwNDk2NjE0IDUuMDg1MzI3M3Y1Ni41MTY0Nzg1YzAgMi4wODAzNjEyIDEuMTU1NzU2MiA0LjA0NTE0NjggMy4wMDQ5NjYxNCA1LjA4NTMyNzRsNDguNjU3MzM2MzcgMjcuNzM4MTQ5YzEuODQ5MjA5OSAxLjA0MDE4MSA0LjA0NTE0NjcgMS4wNDAxODEgNS43Nzg3ODEgMGwyOS40NzE3ODMzLTE2LjQxMTczOGMuOTI0NjA1LS40NjIzMDMgMS41MDI0ODMxLTEuNTAyNDgzIDEuNTAyNDgzMS0yLjU0MjY2NCAwLTEuMDQwMTgtLjU3Nzg3ODEtMi4wODAzNjEtMS41MDI0ODMxLTIuNTQyNjY0bC00OS4yMzUyMTQ0LTI4LjMxNjAyNjZjLS45MjQ2MDUtLjU3Nzg3ODEtMS41MDI0ODMxLTEuNTAyNDgzMS0xLjUwMjQ4MzEtMi41NDI2NjM3di0xNy42ODMwNjk5YzAtMS4wNDAxODA2LjU3Nzg3ODEtMi4wODAzNjEyIDEuNTAyNDgzMS0yLjU0MjY2MzdsMTUuMzcxNTU3NS04Ljc4Mzc0NzJjLjkyNDYwNS0uNTc3ODc4MSAyLjA4MDM2MTItLjU3Nzg3ODEgMy4wMDQ5NjYyIDBsMTUuMzcxNTU3NSA4Ljc4Mzc0NzJjLjkyNDYwNS41Nzc4NzgxIDEuNTAyNDgzMSAxLjUwMjQ4MzEgMS41MDI0ODMxIDIuNTQyNjYzN3YxMy44NjkwNzQ1YzAgMS4wNDAxODA1LjU3Nzg3ODEgMi4wODAzNjExIDEuNTAyNDgzMSAyLjU0MjY2MzYuOTI0NjA0OS41Nzc4NzgxIDIuMDgwMzYxMS41Nzc4NzgxIDMuMDA0OTY2MSAweiIvPjxwYXRoIGZpbGw9IiM1MzllNDMiIGQ9Im01NS4yNDUxNDY3IDUxLjA4NDQyNDRjLjM0NjcyNjktLjIzMTE1MTMuODA5MDI5NC0uMjMxMTUxMyAxLjE1NTc1NjIgMGw5LjM2MTYyNTMgNS40MzIwNTQyYy4zNDY3MjY5LjIzMTE1MTIuNTc3ODc4MS41Nzc4NzgxLjU3Nzg3ODEgMS4wNDAxODA1djEwLjg2NDEwODRjMCAuNDYyMzAyNS0uMjMxMTUxMi44MDkwMjkzLS41Nzc4NzgxIDEuMDQwMTgwNmwtOS4zNjE2MjUzIDUuNDMyMDU0MmMtLjM0NjcyNjguMjMxMTUxMi0uODA5MDI5My4yMzExNTEyLTEuMTU1NzU2MiAwbC05LjM2MTYyNTMtNS40MzIwNTQyYy0uMzQ2NzI2OC0uMjMxMTUxMy0uNTc3ODc4MS0uNTc3ODc4MS0uNTc3ODc4MS0xLjA0MDE4MDZ2LTEwLjg2NDEwODRjMC0uNDYyMzAyNC4yMzExNTEzLS44MDkwMjkzLjU3Nzg3ODEtMS4wNDAxODA1eiIvPjwvZz48ZyB0cmFuc2Zvcm09InRyYW5zbGF0ZSgxMzQuMDY3NzIgNzAuNTAxMTI5KSI+PHVzZSB4bGluazpocmVmPSIjYyIgZmlsbD0idXJsKCNiKSIvPjxnIG1hc2s9InVybCgjaykiPjxwYXRoIGQ9Im01MS44OTM0NTM3IDEuODQ5MjA5OTMtNDguNzcyOTExOTQgMjguMDg0ODc1ODdjLTEuODQ5MjA5OTMgMS4wNDAxODA2LTMuMTIwNTQxNzYgMy4wMDQ5NjYxLTMuMTIwNTQxNzYgNS4wODUzMjczdjU2LjI4NTMyNzNjMCAxLjM4NjkwNzUuNTc3ODc4MSAyLjY1ODIzOTMgMS41MDI0ODMwNyAzLjY5ODQxOTlsNTQuNzgyODQ0MjMtOTMuODQ3NDA0MDljLTEuMzg2OTA3NC0uMjMxMTUxMjQtMy4wMDQ5NjYxLS4xMTU1NzU2Mi00LjM5MTg3MzYuNjkzNDUzNzJ6Ii8+PHBhdGggZD0ibTU2LjYzMjA1NDIgMTI1LjA1MjgyMmMuNDYyMzAyNS0uMTE1NTc2LjkyNDYwNDktLjM0NjcyNyAxLjM4NjkwNzQtLjU3Nzg3OGw0OC43NzI5MTI0LTI4LjA4NDg3NjNjMS44NDkyMS0xLjA0MDE4MDYgMy4wMDQ5NjYtMy4wMDQ5NjYxIDMuMDA0OTY2LTUuMDg1MzI3M3YtNTYuMjg1MzI3M2MwLTEuNTAyNDgzMS0uNjkzNDU0LTMuMDA0OTY2MS0xLjczMzYzNS00LjA0NTE0Njd6Ii8+PHBhdGggZmlsbD0idXJsKCNkKSIgZD0ibTEwNi42NzYyOTggMjkuOTM0MDg1OC00OC44ODg0ODc2LTI4LjA4NDg3NTg3Yy0uNDYyMzAyNS0uMjMxMTUxMjQtMS4wNDAxODA2LS40NjIzMDI0OC0xLjUwMjQ4MzEtLjU3Nzg3ODFsLTU0Ljc4Mjg0NDIzIDkzLjg0NzQwNDA3Yy40NjIzMDI0OC41Nzc4NzgxIDEuMDQwMTgwNTkgMS4wNDAxODA2IDEuNjE4MDU4NjkgMS4zODY5MDc0bDQ4Ljg4ODQ4NzU0IDI4LjA4NDg3NTdjMS4zODY5MDc1LjgwOTAzIDMuMDA0OTY2MiAxLjA0MDE4MSA0LjUwNzQ0OTMuNTc3ODc4bDUxLjQzMTE1MTQtOTQuMDc4NTU1Yy0uMzQ2NzI3LS40NjIzMDI1LS44MDkwMy0uODA5MDI5NC0xLjI3MTMzMi0xLjE1NTc1NjJ6Ii8+PC9nPjxnIG1hc2s9InVybCgjaykiPjxnIHRyYW5zZm9ybT0idHJhbnNsYXRlKDAgLTkuMjQ2MDUpIj48cGF0aCBmaWxsPSJub25lIiBkPSJtMTA5Ljc5Njg0IDEwMC41NTA3OXYtNTYuMjg1MzI3MmMwLTIuMDgwMzYxMi0xLjI3MTMzMi00LjA0NTE0NjgtMy4xMjA1NDItNS4wODUzMjc0bC00OC44ODg0ODc2LTI4LjA4NDg3NThjLS41Nzc4NzgxLS4zNDY3MjY5LTEuMTU1NzU2Mi0uNTc3ODc4MS0xLjg0OTIwOTktLjY5MzQ1MzdsNTMuNTExNTEyNSA5MS40MjAzMTYxYy4yMzExNTEtLjM0NjcyNy4zNDY3MjctLjgwOTAyOS4zNDY3MjctMS4yNzEzMzJ6Ii8+PHBhdGggZmlsbD0ibm9uZSIgZD0ibTMuMTIwNTQxNzYgMzkuMTgwMTM1NGMtMS44NDkyMDk5MyAxLjA0MDE4MDYtMy4xMjA1NDE3NiAzLjAwNDk2NjItMy4xMjA1NDE3NiA1LjA4NTMyNzR2NTYuMjg1MzI3MmMwIDIuMDgwMzYxIDEuMzg2OTA3NDUgNC4wNDUxNDcgMy4xMjA1NDE3NiA1LjA4NTMyN2w0OC44ODg0ODc1NCAyOC4wODQ4NzZjMS4xNTU3NTYzLjY5MzQ1NCAyLjQyNzA4ODEuOTI0NjA1IDMuODEzOTk1NS42OTM0NTRsLTUyLjM1NTc1NjE4LTk1LjM0OTg4NzJ6Ii8+PGcgZmlsbC1ydWxlPSJldmVub2RkIj48cGF0aCBmaWxsPSJ1cmwoI2YpIiBkPSJtNTAuMzkwOTcwNy44MDkwMjkzNS0uNjkzNDUzOC4zNDY3MjY4NmguOTI0NjA1eiIvPjxwYXRoIGZpbGw9InVybCgjZykiIGQ9Im0xMDYuNzkxODc0IDEwNS42MzYxMTdjMS4zODY5MDctLjgwOTAyOSAyLjQyNzA4OC0yLjE5NTkzNiAyLjg4OTM5LTMuNjk4NDE5bC01My42MjcwODc5LTkxLjUzNTg5MjFjLTEuMzg2OTA3NS0uMjMxMTUxMy0yLjg4OTM5MDUtLjExNTU3NTctNC4xNjA3MjI0LjY5MzQ1MzdsLTQ4LjU0MTc2MDcgMjcuOTY5MzAwMiA1Mi4zNTU3NTYyIDk1LjQ2NTQ2MzJjLjY5MzQ1MzctLjExNTU3NiAxLjUwMjQ4MzEtLjM0NjcyNyAyLjE5NTkzNjgtLjY5MzQ1NHoiLz48cGF0aCBmaWxsPSJ1cmwoI2gpIiBkPSJtMTExLjI5OTMyMyAxMDQuNzExNTEyLS4zNDY3MjctLjU3Nzg3OHYuODA5MDN6Ii8+PHBhdGggZmlsbD0idXJsKCNpKSIgZD0ibTEwNi43OTE4NzQgMTA1LjYzNjExNy00OC43NzI5MTI0IDI4LjA4NDg3NmMtLjY5MzQ1MzcuMzQ2NzI3LTEuMzg2OTA3NC41Nzc4NzgtMi4xOTU5MzY4LjY5MzQ1NGwuOTI0NjA1IDEuNzMzNjM0IDU0LjA4OTM5MDItMzEuMzIwOTkzdi0uNjkzNDU0bC0xLjM4NjkwNy0yLjMxMTUxMmMtLjIzMTE1MSAxLjYxODA1OS0xLjI3MTMzMiAzLjAwNDk2Ni0yLjY1ODIzOSAzLjgxMzk5NXoiLz48cGF0aCBmaWxsPSJ1cmwoI2opIiBkPSJtMTA2Ljc5MTg3NCAxMDUuNjM2MTE3LTQ4Ljc3MjkxMjQgMjguMDg0ODc2Yy0uNjkzNDUzNy4zNDY3MjctMS4zODY5MDc0LjU3Nzg3OC0yLjE5NTkzNjguNjkzNDU0bC45MjQ2MDUgMS43MzM2MzQgNTQuMDg5MzkwMi0zMS4zMjA5OTN2LS42OTM0NTRsLTEuMzg2OTA3LTIuMzExNTEyYy0uMjMxMTUxIDEuNjE4MDU5LTEuMjcxMzMyIDMuMDA0OTY2LTIuNjU4MjM5IDMuODEzOTk1eiIvPjwvZz48L2c+PC9nPjwvZz48L2c+PC9zdmc+" vertex="1" parent="1">
          <mxGeometry x="649.25" y="250" width="81.63" height="50" as="geometry" />
        </mxCell>
        <mxCell id="EoUMbDXSJmn96Bxg5w5c-15" value="" style="rounded=0;whiteSpace=wrap;html=1;fillColor=#eeeeee;strokeColor=#36393d;" vertex="1" parent="1">
          <mxGeometry x="180" y="410" width="530" height="322" as="geometry" />
        </mxCell>
        <mxCell id="EoUMbDXSJmn96Bxg5w5c-16" value="" style="shape=image;verticalLabelPosition=bottom;verticalAlign=top;imageAspect=0;aspect=fixed;image=data:image/svg+xml,PHN2ZyB4bWxucz0iaHR0cDovL3d3dy53My5vcmcvMjAwMC9zdmciIHZpZXdCb3g9IjAgMCA0NDggNTEyIj48cGF0aCBkPSJtNDAwIDMyaC0zNTJjLTI2LjUgMC00OCAyMS41LTQ4IDQ4djM1MmMwIDI2LjUgMjEuNSA0OCA0OCA0OGgzNTJjMjYuNSAwIDQ4LTIxLjUgNDgtNDh2LTM1MmMwLTI2LjUtMjEuNS00OC00OC00OHptLTEyMi43IDM4My43Yy04LjQgMS41LTExLjUtMy43LTExLjUtOCAwLTUuNC4yLTMzIC4yLTU1LjMgMC0xNS42LTUuMi0yNS41LTExLjMtMzAuNyAzNy00LjEgNzYtOS4yIDc2LTczLjEgMC0xOC4yLTYuNS0yNy4zLTE3LjEtMzkgMS43LTQuMyA3LjQtMjItMS43LTQ1LTEzLjktNC4zLTQ1LjcgMTcuOS00NS43IDE3LjktMTMuMi0zLjctMjcuNS01LjYtNDEuNi01LjZzLTI4LjQgMS45LTQxLjYgNS42YzAgMC0zMS44LTIyLjItNDUuNy0xNy45LTkuMSAyMi45LTMuNSA0MC42LTEuNyA0NS0xMC42IDExLjctMTUuNiAyMC44LTE1LjYgMzkgMCA2My42IDM3LjMgNjkgNzQuMyA3My4xLTQuOCA0LjMtOS4xIDExLjctMTAuNiAyMi4zLTkuNSA0LjMtMzMuOCAxMS43LTQ4LjMtMTMuOS05LjEtMTUuOC0yNS41LTE3LjEtMjUuNS0xNy4xLTE2LjItLjItMS4xIDEwLjItMS4xIDEwLjIgMTAuOCA1IDE4LjQgMjQuMiAxOC40IDI0LjIgOS43IDI5LjcgNTYuMSAxOS43IDU2LjEgMTkuNyAwIDEzLjkuMiAzNi41LjIgNDAuNiAwIDQuMy0zIDkuNS0xMS41IDgtNjYtMjIuMS0xMTIuMi04NC45LTExMi4yLTE1OC4zIDAtOTEuOCA3MC4yLTE2MS41IDE2Mi0xNjEuNXMxNjYuMiA2OS43IDE2Ni4yIDE2MS41Yy4xIDczLjQtNDQuNyAxMzYuMy0xMTAuNyAxNTguM3ptLTk4LjEtNjEuMWMtMS45LjQtMy43LS40LTMuOS0xLjctLjItMS41IDEuMS0yLjggMy0zLjIgMS45LS4yIDMuNy42IDMuOSAxLjkuMyAxLjMtMSAyLjYtMyAzem0tOS41LS45YzAgMS4zLTEuNSAyLjQtMy41IDIuNC0yLjIuMi0zLjctLjktMy43LTIuNCAwLTEuMyAxLjUtMi40IDMuNS0yLjQgMS45LS4yIDMuNy45IDMuNyAyLjR6bS0xMy43LTEuMWMtLjQgMS4zLTIuNCAxLjktNC4xIDEuMy0xLjktLjQtMy4yLTEuOS0yLjgtMy4yczIuNC0xLjkgNC4xLTEuNWMyIC42IDMuMyAyLjEgMi44IDMuNHptLTEyLjMtNS40Yy0uOSAxLjEtMi44LjktNC4zLS42LTEuNS0xLjMtMS45LTMuMi0uOS00LjEuOS0xLjEgMi44LS45IDQuMy42IDEuMyAxLjMgMS44IDMuMy45IDQuMXptLTkuMS05LjFjLS45LjYtMi42IDAtMy43LTEuNXMtMS4xLTMuMiAwLTMuOWMxLjEtLjkgMi44LS4yIDMuNyAxLjMgMS4xIDEuNSAxLjEgMy4zIDAgNC4xem0tNi41LTkuN2MtLjkuOS0yLjQuNC0zLjUtLjYtMS4xLTEuMy0xLjMtMi44LS40LTMuNS45LS45IDIuNC0uNCAzLjUuNiAxLjEgMS4zIDEuMyAyLjguNCAzLjV6bS02LjctNy40Yy0uNC45LTEuNyAxLjEtMi44LjQtMS4zLS42LTEuOS0xLjctMS41LTIuNi40LS42IDEuNS0uOSAyLjgtLjQgMS4zLjcgMS45IDEuOCAxLjUgMi42eiIvPjwvc3ZnPg==" vertex="1" parent="1">
          <mxGeometry x="205.75" y="562" width="61.25" height="70" as="geometry" />
        </mxCell>
        <mxCell id="EoUMbDXSJmn96Bxg5w5c-17" value="" style="shape=image;verticalLabelPosition=bottom;verticalAlign=top;imageAspect=0;aspect=fixed;image=data:image/svg+xml,PHN2ZyB4bWxucz0iaHR0cDovL3d3dy53My5vcmcvMjAwMC9zdmciIHZpZXdCb3g9IjAgMCA3MiA3MiI+PHBhdGggZmlsbD0iIzkyZDNmNSIgZD0ibTE3LjEzNDcgNTguODk4OXMtMi0xMy41IDEwLTEzLjVjMy4xOTE4IDIuMTI3OSA1LjkyNjQgMy41OTg0IDkgMy41OTIyaC0uMTI0N2MzLjA3MzYuMDA2MiA1LjQwODEtMi4xNjQzIDguNi00LjI5MjIgMTUuNTcwNSAwIDEwLjggMTQuMiAxMC44IDE0LjIiLz48cGF0aCBmaWxsPSIjNjFiMmU0IiBkPSJtNDkuMjk3IDU4Ljg2MXYtMTIuODc1bC00LjQ5MS0uNzg0djcuMjQ1aC0xNy44NzdsLjAwMi03LjI0NS00LjY2Ni43ODR2MTIuODc1eiIvPjxwYXRoIGZpbGw9IiNkMGNmY2UiIGQ9Im02Ny4wODcgNDMuNDIzLTYuOTUgMTYuMzQ5aC0yNC45OWw2Ljk1LTE2LjM0OXoiLz48cGF0aCBmaWxsPSIjOWI5YjlhIiBkPSJtNjcuMzAzIDQzLjQyMy02Ljk1IDE2LjM0OWgtLjIyLTguNzdsNi45NS0xNi4zNDloOC43N3oiLz48cGF0aCBmaWxsPSIjZjRhYTQxIiBkPSJtNDkuMTYzMSAzMy43ODgzYy0yLjExMzEgNS4yODQ3LTcuNDE5MiA4LjcwMjQtMTMuNjMxMSA4LjcwMjQtNS4zNTUxIDAtMTEuMzEtMy4zMDc1LTEzLjQyMzMtOC41OTIybC0uMDc0Mi0uMTgxM2MtLjY3LTEuNjU3Ni0uNTYyMi0zLjY4NjUtLjU2MjItNS41ODM1bDIuMTUzOC0xOC43NjM3IDYuMDA3NiA1Ljg0MjlhMTQuMzU0NSAxNC4zNTQ1IDAgMCAxIDUuNTg2LTEuMTIzOWguNjI0NmExNC4zNTQ1IDE0LjM1NDUgMCAwIDEgNS41ODYgMS4xMjM5bDYuNTk1MS02LjQyMjkgMi4xODYzIDE5LjYzNjRhMTQuMjY3MiAxNC4yNjcyIDAgMCAxIC0xLjA0IDUuMzY1NyIvPjxwYXRoIGZpbGw9IiNlMjcwMjIiIGQ9Im0zNS41MzIgNDIuNDkwN2M2LjIzMTIuMTk4NSAxMS45NTUzLTMuMzk4MSAxNC4wNjg0LTguNjgyOGwuMDY1MS0uMTMzOWMuNjctMS42NTc2LjU2MjYtMy45OTc2LjU2MjYtNS44OTQ2bC0yLjIwMjctMTguOTg5NCIvPjxwYXRoIGZpbGw9IiNiMzk5YzgiIGQ9Im0yMi42NTIgMTcuNy0uNDg3IDQuNzI4IDI3LjEzMi0xLjY0MS0uMjgzLTIuNDU0eiIvPjxwYXRoIGZpbGw9IiNiMzk5YzgiIGQ9Im01MC44OTcyIDE5LjZhMiAyIDAgMSAxIC0yLTIgMi4wMDA3IDIuMDAwNyAwIDAgMSAyIDIiLz48cGF0aCBmaWxsPSIjZmZmIiBkPSJtNDcuMDcyMyAyNC45NzQ4cy04LjE2NzggMy40MDc1LTcuNzgzNyAzLjg0YzcuODE1NCA3LjAxNTkgOC40Mjg2LTIuODYyNyA3Ljc4MzctMy44NHoiLz48cGF0aCBmaWxsPSIjZmZmIiBkPSJtMjQuNjI4MSAyNC45NzQ4czcuNTU2OSA0LjAxIDcuNzgzNyAzLjg0Yy03LjU0NDUgNy4zODM5LTguNTQ1NS0yLjIzNjktNy43ODM3LTMuODR6Ii8+PHBhdGggZmlsbD0iI2ZmZiIgZD0ibTUzLjcyMTYgNTEuNzM3NmEzLjQyIDMuNDIgMCAwIDEgLTIuODQ4OSAyYy0xLjEwMzUgMC0xLjYyLS44OTU1LTEuMTUxMS0yYTMuNDIxMiAzLjQyMTIgMCAwIDEgMi44NDktMmMxLjEwMzUgMCAxLjYxOTQuODk2NSAxLjE1MSAyIi8+PGcgc3Ryb2tlLWxpbmVqb2luPSJyb3VuZCIgc3Ryb2tlLWxpbmVjYXA9InJvdW5kIiBzdHJva2U9IiMwMDAiIGZpbGw9Im5vbmUiPjxwYXRoIHN0cm9rZS13aWR0aD0iMiIgZD0ibTM2Ljg3MjMgNDguMzk4NmE2Ljg0NzIgNi44NDcyIDAgMCAxIC0xLjA2NjUuMDgxMWguMTI1Yy0zLjA3MzYuMDA2My01LjgwODEtMS40NjQyLTktMy41OTIxLTEyIDAtMTAgMTMtMTAgMTMiLz48cGF0aCBzdHJva2Utd2lkdGg9IjIiIGQ9Im0zNS40NjcgNTIuMTMzaC04LjUzOGwuMDAyLTcuMjQ1Ii8+PHBhdGggc3Ryb2tlLXdpZHRoPSIyIiBkPSJtMjIuMjY0OSA0NS43NTY5djEyLjEwOTciLz48cGF0aCBzdHJva2Utd2lkdGg9IjIiIGQ9Im0zNS4xNDcgNTkuNzcyaDI0Ljk5bDYuOTUtMTYuMzQ5aC0yNC45OXoiLz48cGF0aCBzdHJva2Utd2lkdGg9IjIiIGQ9Im0yNC4xNzY3IDU5Ljc3MjVoMTAuOTciLz48cGF0aCBzdHJva2Utd2lkdGg9IjEuOCIgZD0ibTM4LjI5MzYgMzUuNTg5LTIuNDQzNC0zLjAxNDMiLz48cGF0aCBzdHJva2Utd2lkdGg9IjEuOCIgZD0ibTMzLjQwNjggMzUuNTg5IDIuNDQzNC0zLjAxNDMiLz48cGF0aCBzdHJva2Utd2lkdGg9IjEuOCIgZD0ibTMzLjQwNjggMzIuNTc0N2g0Ljg4NjgiLz48cGF0aCBzdHJva2Utd2lkdGg9IjIiIGQ9Im00OS43NjY3IDIzLjg2OS40Mzg3IDQuMTg0NGExMy42NjQgMTMuNjY0IDAgMCAxIC0xLjAxNzEgNS4xODkiLz48cGF0aCBzdHJva2Utd2lkdGg9IjIiIGQ9Im0yMi41MTIxIDMzLjI0MjNhMTMuNjYzNSAxMy42NjM1IDAgMCAxIC0xLjAxNzEtNS4xODg5bDIuMTM4LTE4Ljk5IDYuNDQ5MiA2LjIxMDlhMTQuMTc1IDE0LjE3NSAwIDAgMSA1LjQ2MjYtMS4wODY4aC42MTA4YTE0LjE4MjUgMTQuMTgyNSAwIDAgMSA1LjQ2MzIgMS4wODY4bDYuNDQ4NS02LjIxMDkuNjY1NSA2LjM5OSIvPjxwYXRoIHN0cm9rZS13aWR0aD0iMS44IiBkPSJtMjguMTExOSAzOS43MjE5YTE0LjEyMDcgMTQuMTIwNyAwIDAgMCA3LjQzMjkgMi4wOTY5aC42MTA4YTE0LjExOTEgMTQuMTE5MSAwIDAgMCA3LjQzMjktMi4wOTY5Ii8+PC9nPjxlbGxpcHNlIHJ5PSIxLjIwNTciIHJ4PSIxLjIyMTciIGN5PSIyNy43NTIiIGN4PSIyOC41MTk5Ii8+PGVsbGlwc2Ugcnk9IjEuMjA1NyIgcng9IjEuMjIxNyIgY3k9IjI3Ljc1MiIgY3g9IjQzLjE4MDUiLz48cGF0aCBzdHJva2Utd2lkdGg9IjEuNiIgc3Ryb2tlLWxpbmVqb2luPSJyb3VuZCIgc3Ryb2tlLWxpbmVjYXA9InJvdW5kIiBzdHJva2U9IiMwMDAiIGZpbGw9Im5vbmUiIGQ9Im00Ny4wNzIzIDI0Ljk0NzRzLTguMTY3OCAzLjQwNzUtNy43ODM3IDMuODRjNy44MTU0IDcuMDE1OSA4LjQyODYtMi44NjI3IDcuNzgzNy0zLjg0eiIvPjxwYXRoIHN0cm9rZS13aWR0aD0iMS42IiBzdHJva2UtbGluZWpvaW49InJvdW5kIiBzdHJva2UtbGluZWNhcD0icm91bmQiIHN0cm9rZT0iIzAwMCIgZmlsbD0ibm9uZSIgZD0ibTUwLjkyMTYgMzcuMTk0Ny01LjQ5NzctMy4wMTQzIi8+PHBhdGggc3Ryb2tlLXdpZHRoPSIxLjYiIHN0cm9rZS1saW5lam9pbj0icm91bmQiIHN0cm9rZS1saW5lY2FwPSJyb3VuZCIgc3Ryb2tlPSIjMDAwIiBmaWxsPSJub25lIiBkPSJtNDguNjc4MiAzOS44MDg5LTUuNDk3Ny0zLjAxNDIiLz48cGF0aCBzdHJva2Utd2lkdGg9IjEuNiIgc3Ryb2tlLWxpbmVqb2luPSJyb3VuZCIgc3Ryb2tlLWxpbmVjYXA9InJvdW5kIiBzdHJva2U9IiMwMDAiIGZpbGw9Im5vbmUiIGQ9Im0yNC42MjgxIDI0Ljk0NzRzNy41NTY5IDQuMDEgNy43ODM3IDMuODRjLTcuNTQ0NSA3LjM4MzgtOC41NDU1LTIuMjM2OS03Ljc4MzctMy44NHoiLz48cGF0aCBzdHJva2Utd2lkdGg9IjEuNiIgc3Ryb2tlLWxpbmVqb2luPSJyb3VuZCIgc3Ryb2tlLWxpbmVjYXA9InJvdW5kIiBzdHJva2U9IiMwMDAiIGZpbGw9Im5vbmUiIGQ9Im0yMC43Nzg4IDM3LjE5NDcgNS40OTc3LTMuMDE0MyIvPjxwYXRoIHN0cm9rZS13aWR0aD0iMS42IiBzdHJva2UtbGluZWpvaW49InJvdW5kIiBzdHJva2UtbGluZWNhcD0icm91bmQiIHN0cm9rZT0iIzAwMCIgZmlsbD0ibm9uZSIgZD0ibTIzLjAyMjIgMzkuODA4OSA1LjQ5NzctMy4wMTQyIi8+PHBhdGggc3Ryb2tlLXdpZHRoPSIxLjYiIHN0cm9rZS1saW5lam9pbj0icm91bmQiIHN0cm9rZS1saW5lY2FwPSJyb3VuZCIgc3Ryb2tlPSIjMDAwIiBmaWxsPSJub25lIiBkPSJtNDYuOTk4IDE4LjI4NC0yNC4zNDYtLjU4NC0uNDg3IDQuNzI4IDI0Ljg0LTEuNTAyIi8+PHBhdGggc3Ryb2tlLXdpZHRoPSIxLjYiIHN0cm9rZS1saW5lam9pbj0icm91bmQiIHN0cm9rZS1saW5lY2FwPSJyb3VuZCIgc3Ryb2tlPSIjMDAwIiBmaWxsPSJub25lIiBkPSJtNTAuNDk3MiAxOS42YTIgMiAwIDEgMSAtMi0yIDIuMDAwNyAyLjAwMDcgMCAwIDEgMiAyIi8+PC9zdmc+" vertex="1" parent="1">
          <mxGeometry x="195" y="420" width="72" height="72" as="geometry" />
        </mxCell>
        <mxCell id="EoUMbDXSJmn96Bxg5w5c-18" value="" style="shape=image;verticalLabelPosition=bottom;verticalAlign=top;imageAspect=0;aspect=fixed;image=data:image/svg+xml,PHN2ZyB4bWxucz0iaHR0cDovL3d3dy53My5vcmcvMjAwMC9zdmciIHdpZHRoPSIyNTUuNjE1MjQ5NjMzNzg5MDYiIHZpZXdCb3g9IjAuMjYzNzUxMDI5OTY4MjYxNyAwLjMwMTk5NDMyMzczMDQ2ODc1IDI1NS42MTUyNDk2MzM3ODkwNiAzMTMuODM1OTk4NTM1MTU2MjUiIHByZXNlcnZlQXNwZWN0UmF0aW89InhNaWRZTWlkIiBoZWlnaHQ9IjMxMy44MzU5OTg1MzUxNTYyNSI+JiN4YTsgPGcgdHJhbnNmb3JtPSJ0cmFuc2xhdGUoMCAyODEuODYpIiBmaWxsPSIjMWExOTE4Ij4mI3hhOyAgPHBhdGggZD0ibTY3LjUxNjggMzIuMDAzNWMtLjU0MTUyIDAtMS4xMjYxNy0uMTM2ODUtMS41MzIxMi0uNjg1ODNsLTE3LjM4MzUtMjIuODYxMnYyMy4zMTg3aC0zLjk2NDMxdi0yOC43MTQyYzAtMS4xNDI1My45NDU5Mi0yLjA1NzEgMi4wMjc4LTIuMDU3MS42Mjk3MSAwIDEuMTcwODQuMTgyNiAxLjU3NDg1LjczMTU4bDE3LjMzOTYgMjIuODE1OXYtMjMuMjI3NmgzLjk2MzkydjI4LjY2ODFjMCAxLjE4OTA3LS45NDU5MiAyLjAxMTc1LTIuMDI2MjUgMi4wMTE3NSIvPiYjeGE7ICA8cGF0aCBkPSJtMTAwLjMwNiAzMi4yNzhjLTMuOTYyNzYgMC04LjEwNjkzLS44MjM0Ny0xMS45ODAzLTIuMjg1ODRsLjk0NjMxLTMuMjkyN2MzLjU1Nzk3IDEuMTQzMzIgNy40MzA5OSAxLjk2NjM5IDExLjAzNCAxLjk2NjM5IDQuOTk5NTggMCA3LjYxMTYzLTEuNzgzNCA3LjYxMTYzLTQuMjk3NTkgMC0yLjI4NjYzLTIuMDI3NDEtMy40Mjk1Ni05LjAwODE3LTYuNzIxODctNi45ODA3Ni0zLjI5MTkyLTkuNzI3MjItNS4zOTQ3Ny05LjcyNzIyLTkuNTEwNTUgMC01LjE2NTYzIDMuOTYyNzYtNy4yNzAwNiAxMS40Mzg0LTcuMjcwMDYgMy4xMDgxMyAwIDcuODgxNjIuNjQwODcgMTAuNjMgMS40NjM5NWwtLjYzMDg3IDMuMzgzMDJjLTMuMDE4MzktLjczMTE5LTYuODAwNTEtMS4yMzQwMi05LjkwODY0LTEuMjM0MDItNS4yNjgzOSAwLTcuNDMwNiAxLjAwNTI4LTcuNDMwNiAzLjUyMDY2IDAgMi40Njg0NCAxLjU3NTYyIDMuNTIwMjYgOC45NjE5NCA2Ljk0OTgyIDcuNzkxODggMy42MTIxNiA5Ljc3MzQ1IDUuNDQxMyA5Ljc3MzQ1IDkuMTg5OTIgMCA1LjQ0MTctNS4xMzUxNSA4LjEzODg4LTExLjcxIDguMTM4ODgiLz4mI3hhOyAgPHBhdGggZD0ibTEzMC43OTggMS4zMjM2N2g0LjA5ODMzdjMwLjQ1MTFoLTQuMDk4MzN6Ii8+JiN4YTsgIDxwYXRoIGQ9Im0xNjkuNzU4IDE3Ljk2NjloLTEwLjE3OTh2MTAuMzM0aDEwLjE3OThjMy40Njc0NiAwIDUuNTg0MjItMi4xOTUxNCA1LjU4NDIyLTUuMjU5MSAwLTIuODgwNTctMi4yMDY1LTUuMDc0OTItNS41ODQyMi01LjA3NDkybS0xLjk4Mjc0LTEzLjE2ODVoLTguMTk3MDV2OS43MzkyOWg4LjE5NzA1YzMuMjg4MzggMCA1LjY3NTEyLTIuMTAzNjQgNS42NzUxMi01LjAyOTU3IDAtMi44ODA1Ny0yLjA3MjA4LTQuNzA5NzItNS42NzUxMi00LjcwOTcybTIuMDI3NDEgMjYuOTc2NmgtMTIuMjQ5OWMtMS4xNzE2MiAwLTIuMDcyNDctLjkxNDk3LTIuMDcyNDctMi4wNTc1di0yNi4zMzYxYzAtMS4wOTc5Ni45MDA4Ni0yLjA1NzUgMi4wNzI0Ny0yLjA1NzVoMTAuMTMzMmM2LjIxNTA5IDAgOS45MDc4NiAzLjA2MzE3IDkuOTA3ODYgNy44NjQzOSAwIDIuNjA1NjktMS41MzEzNCA1LjAyOTE3LTMuODczOCA2LjQ0NjU5IDMuNDY5NCAxLjA1MTgyIDUuODA5OTIgMy45MzIgNS44MDk5MiA3LjQwNjkxIDAgNC44NDY1Ny00LjAwNzQzIDguNzMzMjItOS43MjcyMiA4LjczMzIyIi8+JiN4YTsgIDxwYXRoIGQ9Im0xOTkuMjEyIDMxLjc3NTFjLTEuMTI0MjIgMC0yLjAyNTQ3LS45NjAzMi0yLjAyNTQ3LTIuMDU3NXYtMjguMzkzNmg0LjA5NzU1djI2Ljc0NzloMTYuMzA0djMuNzAzMjZoLTE4LjM3NjF6Ii8+JiN4YTsgIDxwYXRoIGQ9Im0yNDUuNTI2IDMyLjI3OGMtOC4zNzczIDAtMTMuNDIxNS0zLjEwODkyLTEzLjQyMTUtOS4zNzI5MSAwLTIuOTcyMDcgMS42NjY5MS01LjgwNjkgNC45MDk4NC03LjEzMjgxLTIuNjEyNDQtMS42NDYxNi0zLjk2MzE0LTMuOTc4MTQtMy45NjMxNC02LjUzODQ4IDAtNS42NjkyNiA0LjM2OTg3LTguMzY4MDIgMTIuNTY1OC04LjM2ODAyIDIuNzQ3NjMgMCA2LjYyMDI2LjMyMDYzIDkuODYzNTggMS4wNTI2MWwtLjQ1MTAxIDMuMzgzMDJjLTMuNDIyMDEtLjU0ODk4LTYuNjIxMDQtLjg2ODA0LTkuNzI4MzktLjg2ODA0LTUuMzE0NjIgMC04LjE1MjM4IDEuNDYyMzctOC4xNTIzOCA0Ljk4MzQzIDAgMi43ODk0NyAyLjYxMjgzIDQuOTgzODIgNi4wODE0NiA0Ljk4MzgyaDcuMDI1MDRjLjk5MDk4IDAgMS43NTYyNi43NzczMyAxLjc1NjI2IDEuNzM3MjYgMCAxLjAwNTY4LS43NjUyOCAxLjc4MzAxLTEuNzU2MjYgMS43ODMwMWgtNy41NjUwMWMtMy45NjQ3IDAtNi40ODU0NiAxLjk2NTYxLTYuNDg1NDYgNC45ODQyMSAwIDQuNDM0ODQgNC4wOTgzMyA1Ljc2MDc1IDkuMjMyMzIgNS43NjA3NSAyLjc5MjY5IDAgNi41NzQ0Mi0uMzY0OCA5LjYzNjcxLTEuMDk2NzhsLjU4Njk3IDMuMzM3MjdjLTIuOTI4MjcuODIzNDctNi43NTcgMS4zNzE2Ni0xMC4xMzQ3IDEuMzcxNjYiLz4mI3hhOyAgPHBhdGggZD0ibTE0LjEzOCA3LjAzNDcgNy4xNzc3MSAxNy45ODQzLTEwLjg0MDYtOC42NjkzMyAzLjY2Mjg2LTkuMzE0OTN6bTEyLjc1MTQgMjIuMTI3Ny0xMS4wMzk5LTI2Ljk3NDZjLS4zMTUwNS0uNzc3MzMtLjk0NTkyLTEuMTg5MDctMS43MTE1OS0xLjE4OTA3cy0xLjQ0MTIxLjQxMTc0LTEuNzU2MjYgMS4xODkwN2wtMTIuMTE3OSAyOS41ODc0aDQuMTQ0NTZsNC43OTc1Ny0xMi4xOTgzIDE0LjMxNDIgMTEuNzQwOGMuNTc1NzEuNDcyMDguOTkwOTguNjg1ODMgMS41MzIxMi42ODU4MyAxLjA4MDMzIDAgMi4wMjYyNS0uODIyNjggMi4wMjYyNS0yLjAxMTM1IDAtLjE5Mjg1LS4wNjc5OC0uNDk5NjgtLjE4OTE4LS44Mjk3OHoiLz4mI3hhOyA8L2c+JiN4YTsgPHBhdGggZmlsbD0iIzFhMTkxOCIgZD0ibTI1NS44NzkgMTI3Ljg2OGMwIDcwLjQ1NTEtNTcuMTEwMSAxMjcuNTY1LTEyNy41NjYgMTI3LjU2NS03MC40NTAxIDAtMTI3LjU2Ni01Ny4xMDk2LTEyNy41NjYtMTI3LjU2NSAwLTcwLjQ1MDEgNTcuMTE2MS0xMjcuNTY2IDEyNy41NjYtMTI3LjU2NiA3MC40NTYxIDAgMTI3LjU2NiA1Ny4xMTYxIDEyNy41NjYgMTI3LjU2NiIvPiYjeGE7IDxwYXRoIGZpbGw9IiNmZmYiIGQ9Im0xMzAuNDYgNzguMjI4OSAzMy4wMTE2IDgxLjQ3NjMtNDkuODYzNS0zOS4yNzc4IDE2Ljg1MTktNDIuMTk4NHptNTguNjQ0NSAxMDAuMjQ1LTUwLjc3ODYtMTIyLjIwMmMtMS40NDk1Mi0zLjUyNDM2LTQuMzQ4MDctNS4zODkyNi03Ljg2NTkxLTUuMzg5MjYtMy41MjQzNiAwLTYuNjMzODYgMS44NjQ4OS04LjA4MzM5IDUuMzg5MjZsLTU1LjczMjkgMTM0LjA0aDE5LjA2NTNsMjIuMDYyMy01NS4yNjUzIDY1LjgzODkgNTMuMTg5OWMyLjY0NzkyIDIuMTQxMTQgNC41NTg1MiAzLjEwOTUgNy4wNDIyIDMuMTA5NSA0Ljk3Mzg5IDAgOS4zMjE0Ni0zLjcyODc4IDkuMzIxNDYtOS4xMTEwMSAwLS44NzU5NC0uMzA5MzktMi4yNjYyLS44Njk0MS0zLjc2MTQzeiIvPiYjeGE7PC9zdmc+" vertex="1" parent="1">
          <mxGeometry x="365" y="562" width="57.07" height="70" as="geometry" />
        </mxCell>
        <mxCell id="EoUMbDXSJmn96Bxg5w5c-19" value="" style="rounded=0;whiteSpace=wrap;html=1;fillColor=#f9f7ed;strokeColor=#36393d;" vertex="1" parent="1">
          <mxGeometry x="515" y="492" width="180" height="230" as="geometry" />
        </mxCell>
        <mxCell id="EoUMbDXSJmn96Bxg5w5c-20" value="" style="shape=image;verticalLabelPosition=bottom;verticalAlign=top;imageAspect=0;aspect=fixed;image=data:image/svg+xml,PHN2ZyB4bWxucz0iaHR0cDovL3d3dy53My5vcmcvMjAwMC9zdmciIHZpZXdCb3g9IjAgMCAxMjggMTI4Ij48ZyBmaWxsLXJ1bGU9ImV2ZW5vZGQiIGNsaXAtcnVsZT0iZXZlbm9kZCI+PHBhdGggZmlsbD0iIzk0Nzk1ZCIgZD0ibTg3LjI1OSAxMDAuMTM5Yy4xNjktLjMyNS4zMzEtLjYxMi40NjktLjkwOS4wODctLjE5LjIyMS0uMjI4LjQxLS4yMjMgMS4xMzMuMDMyIDIuMjY2LjA2NyAzLjQuMDc4Ljk2My4wMSAxLjkyOC0uMDA4IDIuODkyLS4wMTkgMS4wODYtLjAxMyAyLjE3Mi0uMDcgMy4yNTctLjAzOSAxLjQ0NS4wNDIgMi44NTMuMzI1IDQuMTYuOTY4IDEuNTYxLjc2OSAyLjc0MiAxLjk0IDMuNTQ3IDMuNDgzLjUxNC45ODUuODEyIDIuMDMuOTMxIDMuMTQuMTcyIDEuNjA4LjA1OSAzLjE3OS0uNDUxIDQuNzE3LS42MzIgMS45MDYtMS44MzIgMy4zNjUtMy40OTkgNC40NTgtMS4yODMuODQxLTIuNjkgMS4zMzgtNC4xOTggMS42MjItMS41OTYuMzAxLTMuMTk3LjIwNC00Ljc5OC4yMDktMS43NTYuMDA3LTMuNTExLS4wMzEtNS4yNjctLjA1MS0uMzA3LS4wMDMtLjM1MS0uMDYxLS4yNy0uMzU0bC4wNzUtLjI3Yy4xNzEtLjUzOC4yNjMtLjU2Mi44MDktLjY1Mi4zNzgtLjA2MS43Ny0uMjAzIDEuMDg3LS40MTMuMTg0LS4xMjIuMjYtLjQ0LjMzMi0uNjg1LjA2Mi0uMjE0LjA2NS0uNDQ5LjA2Ny0uNjc1LjAyNS0zLjQyNS4wNTEtNi44NDkuMDY1LTEwLjI3Mi4wMDMtLjg2NS0uMDE3LTEuNzMyLS4wNjUtMi41OTYtLjAzNC0uNjA1LS4zNTctMS4wMTktMS4wNzctMS4xNjItLjU2LS4xMTEtMS4xMjQtLjE5Ny0xLjY4Ny0uMjk2em0xNi4wNzYgOC4yOTNjLS4wNzYtLjY4Mi0uMTEzLTEuMzctLjIzNS0yLjA0Mi0uMjkyLTEuNjEzLS45OTgtMy4wMTgtMi4yMzgtNC4xMTktMi4wMDUtMS43NzktNC40MTktMi4wNTMtNi45NDktMS44NDEtLjU3Ni4wNDgtLjcuMjQ1LS43MDkuODM3LS4wMTQuODQtLjAyOCAxLjY4LS4wMjkgMi41Mi0uMDA0IDIuNjY0LS4wMDQgNS4zMjggMCA3Ljk5Mi4wMDEuNzU4LjAwOSAxLjUxNi4wMzEgMi4yNzIuMDI0Ljc3NC4zMDUgMS40MjkgMS4wNjMgMS43MjkgMS4xOTUuNDczIDIuNDUyLjUyOSAzLjcwNi4zMzYgMi4wMDMtLjMwNyAzLjQwNC0xLjQ3NCA0LjM0NC0zLjIyMy43NDQtMS4zODguOTU0LTIuOTAzIDEuMDE2LTQuNDYxem00Ljg2OSA5LjA3MWMtLjAyNC0uNDE1LjE0Ni0uNzU4LjM1Ni0xLjA3My4wNTctLjA4NS4yNTMtLjA4MS4zODgtLjEwOGwxLjE0Ni0uMjI3Yy40MDUtLjA4Ni42MTgtLjM1OC42NzUtLjc1NS4wMzgtLjI2Mi4wNzQtLjUyNy4wNzctLjc5Mi4wMjUtMi4wOTcuMDQ5LTQuMTk0LjA1OS02LjI5MS4wMS0yLjEuMDAyLTQuMi4wMDItNi4zbC0uMDA5LS40MDFjLS4wNDEtLjY3NS0uMzY3LTEuMDI1LTEuMDM3LTEuMTI0bC0xLjQ1My0uMjIxYy0uMTc5LS4wMjQtLjI0NC0uMTEtLjE3OS0uMjY5LjExMi0uMjcxLjIxOS0uNTUyLjM3Ny0uNzk2LjA1OS0uMDkuMjU4LS4xMjUuMzkyLS4xMjIuNjk0LjAxIDEuMzg4LjA2MiAyLjA4Mi4wNjFsNi4wNDEtLjAzNmMxLjE2NC0uMDAxIDIuMjg4LjIwMiAzLjMzMi43NTkgMS4xNDkuNjEyIDEuNzkyIDEuNTU5IDEuOTc2IDIuODQ5LjE5MiAxLjM1NS0uMjE5IDIuNDk3LTEuMjA5IDMuNDA0LS40MDcuMzc0LS45MzQuNjE4LTEuNDA2LjkyMmwtLjE1NC4wOTZjLjQzOC4xNjEuODU1LjMgMS4yNjEuNDY2IDEuMTg4LjQ4NyAyLjEzMyAxLjI0OCAyLjYzMyAyLjQ2My4zOTUuOTU5LjM5NSAxLjk1OS4xNjEgMi45NTMtLjM2NCAxLjU1Ni0xLjM4OSAyLjU5MS0yLjcyMiAzLjM3NC0xLjI1MS43MzUtMi42MDUgMS4xNjMtNC4wNDcgMS4yMzUtMS4zMy4wNjctMi42NjYuMDQyLTMuOTk5LjA1N2wtLjc3Mi4wMDRjLTEuMjg0LS4wMjktMi41NjktLjA2Mi0zLjg1NC0uMDk2em01LjUzNy02LjA4OWguMDEzYzAgLjY1OC0uMDA5IDEuMzE2LjAwMyAxLjk3NC4wMDguNDI2LS4wMDcuODY0LjA4NSAxLjI3NC4xMzguNjEzLjQxOCAxLjE2NiAxLjEwNiAxLjM0Mi45MjkuMjM5IDEuODc4LjI4NyAyLjgxOC4xMjQgMS4xNzctLjIwNSAyLjExNi0uNzk1IDIuNjMxLTEuOTE2LjM4Mi0uODMzLjQzOS0xLjcxNi4zMDgtMi42MTgtLjE3NC0xLjE4OC0uODA1LTIuMDUtMS44NTQtMi42MTUtLjY4OC0uMzcxLTEuNDIyLS41OTgtMi4yMDQtLjYyOC0uODc2LS4wMzMtMS43NTMtLjAzNS0yLjYyOS0uMDYyLS4yNDYtLjAwNy0uMjguMTE4LS4yNzkuMzIuMDA1LjkzNC4wMDIgMS44NjkuMDAyIDIuODA1em0xLjg2NS00LjQ3NWMuNDc5LS4wMjQgMS4wMjEtLjAzMSAxLjU2LS4wODUgMS4wMzItLjEwMyAxLjc1OS0uNjIyIDIuMTM4LTEuNjA5LjE5My0uNTAxLjE4NS0xLjAxNy4xOS0xLjUzOC4wMTUtMS4zNTctLjc3Ny0yLjQ2OS0yLjA2Ni0yLjkyOS0uOTk1LS4zNTUtMi4wMjEtLjM2MS0zLjA1My0uMzMzLS40MTguMDExLS42MDUuMTk0LS42MTEuNjE1bC0uMDYyIDUuNDg5Yy0uMDAzLjIxOC4wOTEuMzEyLjMwMy4zMTl6Ii8+PHBhdGggZmlsbD0iIzUwMzgyYiIgZD0ibTEwLjU0MyAxMTYuNDQ4LS4wNzMuOTQ0Yy0uNjggMC0xLjMwNy0uMDA1LTEuOTM0LjAwMi0xLjE4MS4wMTItMi4zNjIuMDMxLTMuNTQ0LjA0OGwtLjExNC4wMDdjLS4xNjktLjAyLS40NzYtLjAyLS40ODQtLjA3LS4wNS0uMjgxLS4wMzQtLjU3Ni0uMDIxLS44NjcuMDAxLS4wMzMuMTE2LS4wNzUuMTgzLS4wOTFsLjkxOS0uMjA1Yy41NzMtLjE0OS43NzUtLjM5Ni44MDItLjk4OC4wMzEtLjY2Ny4wNjItMS4zMzUuMDY1LTIuMDAyLjAwOS0xLjY0Mi0uMDAxLTMuMjgyLjAwNi00LjkyNC4wMDEtLjM4NC0uMTMyLS42Ny0uNDktLjgyNi0uNDI2LS4xODgtLjg1NC0uMzcyLTEuMjg1LS41NDYtLjIwNC0uMDgyLS40NjktLjEyNy0uNDQ1LS40MDEuMDI0LS4yNzkuMjgxLS4zNTIuNTIzLS40MDcgMS4wMDItLjIyOSAyLjAwNS0uNDUyIDMuMDA0LS42OTYuMzIyLS4wNzkuNjMtLjIxMiAxLjAxNS0uMzQ2LjAyLjIwOC4wNTcuNDA2LjA1My42MDRsLS4wNTkuOTQxYy0uMDAxLjEwNi4wNTQuMjQ4LjEzMy4zMDcuMDQ4LjAzNy4yMDktLjAzLjI4OS0uMDkyLjg1NC0uNjUgMS43NTgtMS4yMTEgMi43ODktMS41MzggMS41OTctLjUwNyAyLjk2OC0uMDM3IDMuOTI4IDEuMzQuMzM4LjQ4NS4zMzkuNDg1LjgwOC4xNDYuODA1LS41ODUgMS42NDctMS4xMDEgMi41ODktMS40NDEgMi4wNjgtLjc0NyA0LjA1NS4yMDEgNC43NzQgMi4yODQuMjYyLjc1Ni4zNjIgMS41MzcuMzYgMi4zMzVsLS4wMTkgNS4yOThjLS4wMDEuNDM3LjE0NC42ODYuNTYuODIyLjQ2Ny4xNTMuOTUxLjI1OCAxLjQ3Ny4zOTZsLS4xMjIuOTExYy0uNTk4IDAtMS4xNDgtLjAwNC0xLjY5OC4wMDEtMS4zNDQuMDEyLTIuNjg4LjAxOS00LjAzMS4wNS0uMjM0LjAwNi0uMjk1LS4wNTItLjMwNy0uMjcxLS4wMzktLjcwMS0uMDQ1LS43LjYxNS0uODU4bC4yMjItLjA1N2MuNjQ1LS4xNzYuODYtLjM3NC44NjUtMS4wMjguMDE1LTEuODc4LjA1NC0zLjc2MS0uMDQxLTUuNjM1LS4wOTktMS45NDQtMS42NDItMi45NzktMy41MjYtMi40ODEtLjYxNS4xNjItMS4xNzIuNDQ2LTEuNjkuODE0LS4xNzUuMTI1LS4yMDguMjY5LS4xOTQuNDg4LjA1My44MjguMDg2IDEuNjU3LjA5MyAyLjQ4Ni4wMTIgMS40NTEtLjAwNiAyLjkwMiAwIDQuMzU0LjAwMi41ODguMjAzLjgxMy43ODQuOTQ5bC44NjMuMTk5LjE2LjAzNmMuMDEyLjI3Ni4wMjMuNTUyLjAxLjgyOC0uMDA4LjE3My0uMTQyLjE4OC0uMjkyLjE4NS0uODM5LS4wMjEtMS42NzktLjA0OS0yLjUxOC0uMDQ3LTEuMDIxLjAwMi0yLjA0MS4wMzEtMy4wNjEuMDQ5aC0uMjRjMC0uMjkzLS4wMTQtLjU3My4wMS0uODUyLjAwNS0uMDY3LjEyMy0uMTYxLjIwNC0uMTgybDEuMDA2LS4yMTNjLjQyNy0uMTA1LjYzMS0uMzI0LjY1NS0uNzU4LjExNC0yLjAxLjE5Ni00LjAyMS4wMDctNi4wMy0uMDM3LS4zOS0uMTY0LS43ODYtLjMyNi0xLjE0NS0uNTE1LTEuMTM4LTEuNjc0LTEuNjEzLTMuMDExLTEuMjcxLS42MzUuMTYyLTEuMjA4LjQ1My0xLjc1LjgyLS4yNTYuMTc0LS4zNzguNDA0LS4zNzguNjk1IDAgMi4wMDUuMDA3IDQuMDEuMDEzIDYuMDE0bC4wMTEuNzczYy4wMTIuNTM5LjI0MS44MjMuNzc2LjkzOS4zNDQuMDc4LjY5Mi4xMzEgMS4wODIuMjAzeiIvPjxwYXRoIGZpbGw9IiM0ZjM4MmIiIGQ9Im03MS4wMDEgMTA1LjI4NWMuMTU1Ljc1NC4xNTIgMS40MzItLjQwMiAxLjk0Ni0uNTUuNTExLTEuMjQ2LjMzOS0xLjkyNS4yMjUuMDYzLjM1OC4xMzMuNjYyLjE2Ny45Ny4yNDcgMi4yODktLjczOCAzLjk4OC0yLjg2MSA0Ljk1OS0uODAyLjM2Ni0xLjY1My41MDItMi41MjIuNTcyLS40MzIuMDM0LS44MS4zNjQtLjg1MS43MTktLjA0Mi4zNi4xODQuNzMuNjM2LjgzOC41MzMuMTI3IDEuMDg5LjE2MyAxLjYzNi4yMjYgMS4xNzQuMTM0IDIuMzYxLjE5NSAzLjUyMS40MDUgMS43NTQuMzE2IDIuNzMzIDEuODQ3IDIuNDI0IDMuNjA5LS4yNzUgMS41NjgtMS4xODMgMi43MDktMi40NDkgMy41ODQtMi4xMzMgMS40NzgtNC40NzMgMS45MS02Ljk2NSAxLjE1Ni0xLjQyNS0uNDMyLTIuNDMtMS4zNjktMi43NzctMi44ODUtLjE3NC0uNzU5LjAxMS0xLjQ0Ni41ODItMS45NjEuNjc5LS42MSAxLjQxOC0xLjE1NCAyLjEyOS0xLjczbC4yMy0uMjMxLS4yNjQtLjE4NWMtLjcyNS0uMzQ0LTEuMzA1LS44MTUtMS41My0xLjYzMy0uMDc3LS4yNzcuMDAzLS40NTkuMjM4LS42MDEuNC0uMjQxLjc5OC0uNDg2IDEuMTkzLS43MzUuMTg2LS4xMTYuMzctLjIzNi41NDMtLjM3LjIzNi0uMTguMjE1LS4zMTQtLjA2Ny0uNDE4LS42NTYtLjI0Mi0xLjIzOS0uNTkzLTEuNjkxLTEuMTMzLS43NTUtLjkwMS0uOTY5LTEuOTc0LS45MDctMy4xMDcuMDk3LTEuNzcgMS4wNTgtMi45MzYgMi42Mi0zLjY4NiAxLjg1Ny0uODkxIDMuNzItLjk0NyA1LjYxMy0uMTM1LjcuMyAxLjQzOC4zNjQgMi4xODkuMzEyLjU2MS0uMDQgMS4wNTEtLjI1MiAxLjQ5LS43MTF6bS02Ljg0MyAxMi42ODFjLTEuMzk0LS4wMTItMS44MzEuMTYtMi42NDkuOTkzLS45MTYuOTM0LS45MTEgMi4yMjkuMDAzIDMuMTY3LjY5NC43MTEgMS41NiAxLjA0NCAyLjUyMyAxLjE0NCAxLjEyNS4xMTYgMi4yMzMuMDY5IDMuMjU1LS40OTQgMS4wOS0uNjAzIDEuNjMyLTEuNzIzIDEuMzg3LTIuODUxLS4yMDMtLjkzMS0uODg5LTEuMzU3LTEuNzI0LTEuNjAyLS45NS0uMjc4LTEuOTMyLS4zMzEtMi43OTUtLjM1N3ptLTIuNzM4LTguOTA4Yy4wNTEuMzg3LjA3Mi43NzkuMTU4IDEuMTU4LjIyMy45ODIuNjUgMS44NDUgMS42MjcgMi4yODIgMS4xNDcuNTE1IDIuNjEyLjI5NCAzLjExNC0xLjMxNi4zNDQtMS4xMDMuMzAyLTIuMTk4LS4xMTMtMy4yNzQtLjE4NS0uNDgtLjQ4My0uODg2LS45MS0xLjE4NC0uOTk2LS42OTUtMi43OTMtLjc4Ny0zLjUyNS43NDktLjIzOC40OTktLjMzMSAxLjAzLS4zNTEgMS41ODV6Ii8+PHBhdGggZmlsbD0iIzRmMzcyYiIgZD0ibTQ3LjM1IDEwNS4wMzhjLjAzNy4xNzEuMTExLjM2NS4xMTMuNTYuMDAzLjM3MS0uMDM3Ljc0Mi0uMDU4IDEuMTEzdi4zMjJsLjMxNC0uMjRjLjg2LS43MDggMS43ODQtMS4zMTEgMi44Ni0xLjYzNiAxLjk0Mi0uNTg1IDMuODgyLjQ3OCA0LjUxNSAyLjQ1Ni4yNC43NTIuMzM1IDEuNTI1LjM0NCAyLjMxMS4wMiAxLjc0Ni4wMzIgMy40OTIuMDUgNS4yMzguMDA2LjYyNy4wNzguNzM5LjY3MS45Mi4zMzYuMTAzLjY4My4xNzUgMS4wMy4yMjkuMTkxLjAzLjI3My4xMDUuMjYzLjI5MmwuMDAyLjE3MmMtLjAwNy43MjMtLjA1Ny43NTYtLjc1OC43NTQtMS42NzgtLjAwMy0zLjM1NS4wMDctNS4wMzMuMDIxLS41LjAwNC0uNTAxLjAxOS0uNTUxLS40NzVsLS4wMS0uMjg0Yy4wMzEtLjQyNi4wNDEtLjQyMi40Ni0uNDg0LjI4Mi0uMDQyLjU2Mi0uMTA3LjgzNy0uMTc5LjI4My0uMDczLjQxOS0uMjgyLjQ1Ny0uNTYyLjAxOS0uMTQyLjA0NC0uMjg0LjA0My0uNDI2LS4wMjQtMS45MDguMDA3LTMuODE4LS4wOTctNS43MjMtLjA4NC0xLjU0MS0xLjI2LTIuNDU5LTIuODA3LTIuMzU0LS43NTkuMDUzLTEuNDQ1LjMwNi0yLjA3MS43NDMtLjQxMy4yODktLjQ5Ni43MDYtLjQ5NCAxLjE1NS4wMDggMS43ODQuMDI1IDMuNTY4LjA0NCA1LjM1My4wMDQuMzkxLjAxNS43ODIuMDUyIDEuMTcuMDM5LjQyNC4xODguNTk1LjYwNC42ODcuMzk4LjA4OC44MDQuMTM5IDEuMjI5LjIxbC4wMzYuMzI4Yy4wMTQuNzY1LS4wNjYuODIyLS44MDkuODE5LTEuNzM1LS4wMDctMy40Ny4wMDQtNS4yMDQuMDIzLS4yNzMuMDA0LS4zODktLjA4Mi0uMzgyLS4zNDhsLS4wMDQtLjExNGMtLjA0NS0uNjg5LS4wMjUtLjcxNS42MjctLjgyN2wuMzA4LS4wNjJjLjcwNi0uMTU5Ljg4Ny0uMzQ3Ljg5Ny0xLjA2NC4wMzMtMi4yNzEuMDQ1LTQuNTQxLjA2OC02LjgxMi4wMDMtLjMyNi0uMTItLjU3OS0uNDI0LS43MTQtLjQyNi0uMTg4LS44NTYtLjM2Ny0xLjI4Ny0uNTQ0LS4yMzgtLjA5OC0uNTEtLjE2LS41MTktLjQ4OS0uMDA2LS4yMzIuMjQyLS40MzcuNTgxLS41MDYuNjgxLS4xMzggMS4zNjgtLjI1MyAyLjA0MS0uNDIyLjY3LS4xNjcgMS4zMjgtLjM5MSAyLjA2Mi0uNjExeiIvPjxwYXRoIGZpbGw9IiM0ZjM4MmIiIGQ9Im04NC44NjUgMTEwLjk3Yy0uMDMyIDIuMTIxLS41ODMgMy44MzYtMi4wODMgNS4xMjMtMS45IDEuNjMzLTQuODY0IDIuMTg4LTcuMjg3Ljk2Ny0xLjAzNC0uNTIxLTEuNzk0LTEuMzItMi4yODktMi4zNTctLjc1OS0xLjU5NS0uOTQ5LTMuMjcyLS41NTMtNC45OS4zOTItMS42OTkgMS40MjEtMi45MyAyLjk2MS0zLjcyNyAxLjU4NC0uODE5IDMuMjUyLTEuMTM5IDUuMDExLS43MDkgMi4yMjUuNTQzIDMuODI0IDIuMzU3IDQuMTQyIDQuNjY3LjA1Ny40MDUuMDc5LjgxNS4wOTggMS4wMjZ6bS0yLjU3NyAxLjE0OS0uMDg2LS4wMWMwLS4yLjAxMS0uNC0uMDAyLS42LS4wNzMtMS4yNDYtLjM1My0yLjQzMy0xLjA3NS0zLjQ3Ni0uNjg1LS45ODgtMS42MTgtMS41NzEtMi44MzItMS42NTYtMS4zNTktLjA5Ni0yLjUwMS42NjQtMi45MDIgMi4wNTItLjYwMiAyLjA4NC0uMzk4IDQuMTE1LjY2IDYuMDI0LjQ2MS44MzIgMS4xNDQgMS40NDYgMi4wNTkgMS43NjkgMS43OTMuNjMxIDMuMzgzLS4xODYgMy44NS0yLjAyMi4xNzItLjY3OC4yMjItMS4zODcuMzI4LTIuMDgxeiIvPjxwYXRoIGZpbGw9IiM0ZjM3MmIiIGQ9Im00MC44MTkgMTExLjEzNGMtLjAzNyAxLjUyMi0uMzk2IDIuOTI5LTEuMzM2IDQuMTUyLTEuMDA3IDEuMzEtMi4zOTEgMi4wMS0zLjk2NSAyLjMwNS0xLjg2MS4zNDgtMy42MDkuMDMyLTUuMTA0LTEuMjE3LS43MS0uNTk0LTEuMTk1LTEuMzU1LTEuNTE1LTIuMjIxLS41MjUtMS40Mi0uNjU2LTIuODc1LS4zMzMtNC4zNTguMzQ1LTEuNTg3IDEuMjQxLTIuOCAyLjYzLTMuNjE0IDEuNjA2LS45MzkgMy4zMzktMS4zNTggNS4xOS0uOTM2IDIuMzguNTQ0IDMuNzU0IDIuMDk1IDQuMjYyIDQuNDQzLjEwMi40NzQuMTE2Ljk2NC4xNzEgMS40NDZ6bS0yLjYwNiAxLjAwNC0uMDY5LS4wMXYtLjI4NmMtLjAzOS0xLjM5Ni0uMzEyLTIuNzI2LTEuMTQ1LTMuODg2LS42MTctLjg2MS0xLjQ0My0xLjQwMS0yLjUwMi0xLjU1Mi0xLjcyNi0uMjQ2LTIuODU0Ljc3OC0zLjIyOCAyLjE2OS0uNDg4IDEuODE3LS4zMzUgMy42MTIuNDIgNS4zMzUuNDcxIDEuMDc0IDEuMjE1IDEuOTExIDIuMzU4IDIuMzE3IDEuNzgyLjYzMyAzLjM5Ni0uMjA1IDMuODQ3LTIuMDM0LjE2Ni0uNjY5LjIxNi0xLjM2Ny4zMTktMi4wNTN6Ii8+PHBhdGggZmlsbD0iIzQzOTkzNCIgZD0ibTgyLjM2MiAzMy41NDRjMS4yMjcgMy41NDcgMi4xMDkgNy4xNjggMi40IDEwLjkyLjM2IDQuNjU2LjE5NiA5LjI4LS43ODYgMTMuODU5bC0uMTI2LjM2NmMtLjMwOC4wMDEtLjYyMi0uMDM4LS45MjMuMDA5LTIuNTQzLjQtNS4wODMuODE0LTcuNjI0IDEuMjI2LTIuNjI3LjQyNi01LjI1Ni44MzUtNy44NzggMS4yODktLjkyOS4xNi0yLjA3OS0uMDMxLTIuNDU0IDEuMjUzbC0uMTguMDYxLjEyNy03LjY3OC0uMTI5LTE4LjUyNiAxLjIyNC0uMjFjMi4wMDEtLjMyNyA0LjAwMi0uNjYgNi4wMDYtLjk3OSAyLjM5LS4zNzkgNC43ODItLjc0OSA3LjE3NC0xLjExOSAxLjA1Ni0uMTYyIDIuMTEzLS4zMTMgMy4xNjktLjQ3MXoiLz48cGF0aCBmaWxsPSIjNDVhNTM4IiBkPSJtNjIuMjY1IDg0LjkxMWMtMS4yOTEtMS4xMS0yLjYyNy0yLjE3MS0zLjg2NC0zLjMzOS02LjY1OC02LjI4LTExLjUyOS0xMy42NzMtMTMuOTI4LTIyLjU4Ni0uNjYxLTIuNDUyLTEuMTAxLTQuOTQ1LTEuMjQzLTcuNDc5LS4xLTEuNzc0LS4yNDMtMy41NjMtLjExNy01LjMyOC4zMzMtNC42OTMgMS4wMTItOS4zNDEgMi4zODgtMTMuODYybC4wNzYtLjEwNWMuMTM0LjE3OC4zMjYuMzM2LjM5NC41MzcgMS4zNDQgMy45NTYgMi42NzcgNy45MTYgNC4wMDQgMTEuODc5IDQuMTY5IDEyLjQ1MSA4LjMzMyAyNC45MDUgMTIuNTA5IDM3LjM1NC4wODIuMjQzLjI5My40NDIuNDQ1LjY2MXoiLz48cGF0aCBmaWxsPSIjNDZhMDM3IiBkPSJtODIuMzYyIDMzLjU0NGMtMS4wNTcuMTU3LTIuMTE0LjMwOS0zLjE2OS40NzEtMi4zOTIuMzctNC43ODQuNzQtNy4xNzQgMS4xMTktMi4wMDMuMzE4LTQuMDA0LjY1MS02LjAwNi45NzlsLTEuMjI0LjIxLS4wMS0uNzk4Yy0uMDQxLS42NTYtLjEwOS0xLjMxMi0uMTE4LTEuOTY4bC0uMTM3LTEyLjU1NGMtLjAzMi0yLjYxOS0uMDgtNS4yMzgtLjEzMy03Ljg1Ni0uMDMzLTEuNjI3LS4wNjgtMy4yNTUtLjE0MS00Ljg4LS4wNC0uODczLS4xODEtMS43NDItLjIzNy0yLjYxNS0uMDMzLS41MDIuMDExLTEuMDA4LjAyMi0xLjUxMi42MjQgMS4yMDkgMS4yMzUgMi40MjcgMS44NzYgMy42MjcgMS4wMTMgMS44OTcgMi42MjggMy4yOTUgNC4wODMgNC44MiA1Ljc0NiA2LjAzMSA5LjgyNSAxMy4wMzkgMTIuMzY4IDIwLjk1N3oiLz48cGF0aCBmaWxsPSIjNDA5NDMzIiBkPSJtNjQuNzkyIDYyLjUyNy4xOC0uMDYxYy4zNzUtMS4yODQgMS41MjUtMS4wOTMgMi40NTQtMS4yNTMgMi42MjItLjQ1NCA1LjI1MS0uODYzIDcuODc4LTEuMjg5IDIuNTQxLS40MTEgNS4wODEtLjgyNSA3LjYyNC0xLjIyNi4zMDEtLjA0Ny42MTUtLjAwOC45MjMtLjAwOS0uNDc1IDEuNjk2LS44NDkgMy40MjktMS40NTIgNS4wNzgtLjY4NSAxLjg3LTEuNTEzIDMuNjk2LTIuMzkyIDUuNDg2LTEuMzE0IDIuNjc1LTIuOTUxIDUuMTcxLTQuODUzIDcuNDU4LTEuNDY2IDEuNzYyLTMuMSAzLjM5My00LjczNyA1LjAwMi0uOTA2Ljg4OS0xLjk3MiAxLjYxNC0yLjk2NiAyLjQxNGwtLjI1OC0uMTc2LS45MjctLjc5Mi0uOTU5LTIuMTA0Yy0uNjYxLTIuNDYyLTEuMDA3LTQuOTY4LTEuMDY1LTcuNTE2bC4wMTgtLjQyOC4xMzEtMS44NTRjLjA0My0uNjMzLjEwMS0xLjI2NS4xMjgtMS44OTguMDk2LTIuMjc2LjE4Mi00LjU1NC4yNzMtNi44MzJ6Ii8+PHBhdGggZmlsbD0iIzRmYWE0MSIgZD0ibTY0Ljc5MiA2Mi41MjdjLS4wOSAyLjI3OC0uMTc2IDQuNTU3LS4yNzMgNi44MzUtLjAyNy42MzQtLjA4NCAxLjI2Ni0uMTI4IDEuODk4bC0uNTg0LjIyMWMtMS4yOTgtMy44MjEtMi41OTctNy42MDItMy44NjctMTEuMzkyLTIuMTAxLTYuMjcxLTQuMTc2LTEyLjU1MS02LjI3NC0xOC44MjQtMS42OTMtNS4wNjItMy40MDEtMTAuMTIxLTUuMTE4LTE1LjE3Ni0uMDgxLS4yMzYtLjMxMS0uNDIyLS40NzEtLjYzMWwzLjc0LTYuODc3Yy4xMjkuMjIzLjI5OC40MzIuMzc5LjY3MiAxLjczIDUuMTIgMy40NTcgMTAuMjQxIDUuMTY5IDE1LjM2NyAyLjIyOCA2LjY3IDQuNDQxIDEzLjM0MyA2LjY2NyAyMC4wMTQuMDg5LjI2Ni4yMzUuNTEyLjM3NS44MTFsLjUxMi0uNTk2Yy0uMDQzIDIuNTYtLjA4NSA1LjExOC0uMTI3IDcuNjc4eiIvPjxwYXRoIGZpbGw9IiM0YWE3M2MiIGQ9Im00OC4wNzYgMjUuNDU4Yy4xNjEuMjA5LjM5MS4zOTUuNDcxLjYzMSAxLjcxNyA1LjA1NSAzLjQyNSAxMC4xMTMgNS4xMTggMTUuMTc2IDIuMDk4IDYuMjczIDQuMTczIDEyLjU1MyA2LjI3NCAxOC44MjQgMS4yNyAzLjc5IDIuNTY5IDcuNTcgMy44NjcgMTEuMzkybC41ODQtLjIyMS0uMTMxIDEuODU0LS4xMTkuNDI3Yy0uMjAzIDIuMDI5LS4zNzQgNC4wNjItLjYyMiA2LjA4Ny0uMTI0IDEuMDE1LS4zODkgMi4wMTEtLjU5IDMuMDE1LS4xNTEtLjIxOS0uMzYzLS40MTgtLjQ0NS0uNjYxLTQuMTc3LTEyLjQ0OS04LjM0LTI0LjkwMy0xMi41MDktMzcuMzU0LTEuMzI3LTMuOTYzLTIuNjYxLTcuOTIzLTQuMDA0LTExLjg3OS0uMDY4LS4yMDEtLjI2LS4zNTktLjM5NC0uNTM3eiIvPjxwYXRoIGZpbGw9IiM1N2FlNDciIGQ9Im02NC45MTggNTQuODQ5LS41MTIuNTk2Yy0uMTQtLjI5OS0uMjg2LS41NDUtLjM3NS0uODExLTIuMjI2LTYuNjcxLTQuNDM5LTEzLjM0NC02LjY2Ny0yMC4wMTQtMS43MTItNS4xMjYtMy40MzktMTAuMjQ3LTUuMTY5LTE1LjM2Ny0uMDgxLS4yNC0uMjUtLjQ0OS0uMzc5LS42NzJsNC42MjUtNi4wODRjLjE0Ni4xOTQuMzU0LjM2Ny40MjkuNTg2IDEuMjg0IDMuNzYgMi41NTYgNy41MjMgMy44MjIgMTEuMjg5IDEuMTgyIDMuNTE4IDIuMzQ2IDcuMDQgMy41NDIgMTAuNTUyLjA4LjIzNS4zNTkuNDAxLjU0NS42MDFsLjAxLjc5OHoiLz48cGF0aCBmaWxsPSIjNjBiMjRmIiBkPSJtNjQuNzc5IDM1LjUyNWMtLjE4Ny0uMTk5LS40NjUtLjM2NS0uNTQ1LS42MDEtMS4xOTUtMy41MTItMi4zNi03LjAzNC0zLjU0Mi0xMC41NTItMS4yNjYtMy43NjYtMi41MzgtNy41MjktMy44MjItMTEuMjg5LS4wNzUtLjIxOS0uMjgzLS4zOTItLjQyOS0uNTg2IDEuNTA0LTEuNDczIDIuOTYxLTIuOTk5IDQuNTI2LTQuNDA0IDEuMzkxLTEuMjQ4IDIuNTA5LTIuNTg2IDIuNTYxLTQuNTU5bC4xMS0uMzkzLjM5Ni45OThjLS4wMS41MDQtLjA1NSAxLjAxLS4wMjIgMS41MTIuMDU3Ljg3My4xOTggMS43NDIuMjM3IDIuNjE1LjA3MyAxLjYyNS4xMDggMy4yNTMuMTQxIDQuODguMDUzIDIuNjE4LjEwMSA1LjIzNy4xMzMgNy44NTZsLjEzNyAxMi41NTRjLjAxLjY1Ny4wNzkgMS4zMTMuMTE5IDEuOTY5eiIvPjxwYXRoIGZpbGw9IiNhOWFhODgiIGQ9Im02Mi45MjkgODIuNjQyYy4yMDEtMS4wMDQuNDY2LTIgLjU5LTMuMDE1LjI0OC0yLjAyNC40MTktNC4wNTguNjIyLTYuMDg3bC4wNTEtLjAwOC4wNS4wMDljLjA1OCAyLjU0OC40MDQgNS4wNTQgMS4wNjUgNy41MTYtLjEzNS4xNzgtLjMyNC4zMzUtLjM5Ni41MzUtLjU1NSAxLjU2Ni0xLjA3OSAzLjE0NS0xLjYzNyA0LjcxLS4wNzYuMjE0LS4yOS4zODEtLjQzOS41NjhsLS41NzEtMS45NnoiLz48cGF0aCBmaWxsPSIjYjZiNTk4IiBkPSJtNjIuODM1IDg2Ljg3MWMuMTQ5LS4xODguMzYzLS4zNTQuNDM5LS41NjguNTU4LTEuNTY1IDEuMDgyLTMuMTQ0IDEuNjM3LTQuNzEuMDcxLS4yLjI2MS0uMzU3LjM5Ni0uNTM1bC45NTkgMi4xMDRjLS4xODkuMjY4LS40NTEuNTExLS41NTYuODFsLTEuODM2IDUuMzkyYy0uMDc2LjIxNy0uMzMzLjM2OS0uNTA3LjU1MnoiLz48cGF0aCBmaWxsPSIjYzJjMWE3IiBkPSJtNjMuMzY3IDg5LjkxNWMuMTczLS4xODMuNDMxLS4zMzUuNTA3LS41NTJsMS44MzYtNS4zOTJjLjEwNC0uMjk5LjM2Ny0uNTQyLjU1Ni0uODFsLjkyOC43OTFjLS40NDguNDQzLS42OTcuOTU1LS41NDcgMS42MDJsLS4yODIuOTIzYy0uMTI4LjE1OC0uMzE0LjI5Ni0uMzc3LjQ3Ny0uNjQxIDEuODM2LTEuMjUyIDMuNjgyLTEuODk4IDUuNTE3LS4wODIuMjMyLS4zMDkuNDE1LS40NjguNjIxeiIvPjxwYXRoIGZpbGw9IiNjZWNkYjciIGQ9Im02My42MjEgOTMuMDkxYy4xNi0uMjA2LjM4Ny0uMzg5LjQ2OC0uNjIxLjY0Ni0xLjgzNSAxLjI1OC0zLjY4MSAxLjg5OC01LjUxNy4wNjMtLjE4MS4yNDktLjMxOC4zNzctLjQ3N2wtLjM4OSA0LjIzNmMtLjEwNC4xMi0uMjU0LjIyNS0uMzA0LjM2NGwtMS4yOTQgMy43MDhjLS4wOTEuMjUzLS4yNjUuNDc5LS40MDEuNzE2LS4xMjEtLjE1OC0uMzM3LS4zMTEtLjM0Ny0uNDc1LS4wMzgtLjY0Mi0uMDExLTEuMjg5LS4wMDgtMS45MzR6Ii8+PHBhdGggZmlsbD0iI2RiZGFjNyIgZD0ibTYzLjk3NyA5NS41MDFjLjEzNi0uMjM3LjMxLS40NjMuNDAxLS43MTZsMS4yOTQtMy43MDhjLjA1LS4xNC4yMDEtLjI0NC4zMDQtLjM2NGwuMDEgMi43OC0uOTMxIDIuMzg3eiIvPjxwYXRoIGZpbGw9IiNlYmU5ZGMiIGQ9Im02NS4wNTUgOTUuODguOTMxLTIuMzg3LjE5MiAyLjgyNHoiLz48cGF0aCBmaWxsPSIjY2VjZGI3IiBkPSJtNjYuNjQ2IDg1LjU1NGMtLjE0OS0uNjQ2LjA5OS0xLjE1OC41NDctMS42MDJsLjI1OC4xNzZ6Ii8+PHBhdGggZmlsbD0iIzRmYWE0MSIgZD0ibTY0LjI0MiA3My41NDItLjA1LS4wMDktLjA1MS4wMDguMTE5LS40Mjd6Ii8+PC9nPjwvc3ZnPg==" vertex="1" parent="1">
          <mxGeometry x="575" y="502" width="60" height="60" as="geometry" />
        </mxCell>
        <mxCell id="EoUMbDXSJmn96Bxg5w5c-21" value="" style="shape=image;verticalLabelPosition=bottom;verticalAlign=top;imageAspect=0;aspect=fixed;image=data:image/svg+xml,PHN2ZyB4bWxucz0iaHR0cDovL3d3dy53My5vcmcvMjAwMC9zdmciIGhlaWdodD0iNjAiIHdpZHRoPSIxMjAiIHZpZXdCb3g9IjAgMCAxMjAgNjAiPjxwYXRoIGQ9Ik00MCA0MS43NTNWMTguNzA4aDEuMjV2My42MjVhNC43NCA0Ljc0IDAgMCAwIC40MDgtLjUxMWMxLjA0NC0yLjE2NiAzLjI0Ni0zLjUzMyA1LjY1LTMuNTA2IDIuODUtLjA4NSA1LjE2Ni45NyA2LjUyNyAzLjUwNmExMS4yNyAxMS4yNyAwIDAgMSAuMjcyIDEwLjMzMWMtMS4yNjggMi44NDItNC40IDQuMjU1LTcuNzUzIDMuNzM2YTYuMjcgNi4yNyAwIDAgMS01LjAwNC0zLjMwMnY5LjE2NXptMS4yNS0xNC44OTNsLjI4IDIuNzA2Yy40OTQgMy4wOCAyLjMxNSA0LjkgNS4xNzQgNS4yNDJhNS44OCA1Ljg4IDAgMCAwIDYuNDU5LTMuNzM2YzEuMTEyLTIuNjUgMS4wMy01LjY1LS4yMi04LjIzOGE1Ljc2IDUuNzYgMCAwIDAtNi4wNjgtMy4zNTMgNS42MSA1LjYxIDAgMCAwLTUuMDEyIDQuMTQ0IDI4LjYyIDI4LjYyIDAgMCAwLS42MTMgMy4yMzR6bTM5LjQ5OCAzLjEzMmE2Ljc0IDYuNzQgMCAwIDEtNi41ODcgNS45NTdjLTUuMjQyLjI2NC03LjcwMi0zLjIxNy04LjA5My03LjIzNGExMS41OSAxMS41OSAwIDAgMSAxLjAyMS02LjM4MyA3LjEyIDcuMTIgMCAwIDEgNy40MTItMy45NzQgNi44MSA2LjgxIDAgMCAxIDYuMDQyIDUuMTgzIDM0Ljk3IDM0Ljk3IDAgMCAxIC41ODcgMy44M0g2Ny4zNjNjLS4yNTUgMy42NDIgMS43MDIgNi41NyA0LjQ3NiA3LjI3NiAzLjQ1NS44NSA2LjQwOC0uNjQ3IDcuNDgtMy45MzIuMjM4LS44NDMuNjcyLS45NjIgMS40MzgtLjcyM3ptLTEzLjM5NS0zLjc4N2gxMi4zMTRjLS4wNzctMy44OC0yLjQ5My02LjctNS43Ny02LjczMi0zLjctLjA2LTYuMzgzIDIuNjQ3LTYuNTQ0IDYuNzMyem0xNS45NCAzLjg3Mkg4NC41YTQuODQgNC44NCAwIDAgMCAyLjg0MiA0LjE3IDcuNDMgNy40MyAwIDAgMCA2LjQ1MS0uMTcgMi45IDIuOSAwIDAgMCAxLjcwMi0yLjg1MSAyLjYzIDIuNjMgMCAwIDAtMS43Ny0yLjYzYy0xLjMyOC0uNDk0LTIuNzQtLjc2Ni00LjA5My0xLjJhMzAgMzAgMCAwIDEtNC4xMTktMS41MDZjLTIuMTgtMS4wNjQtMi4zMTUtNS4yMDguMTUzLTYuNTJhOC42OSA4LjY5IDAgMCAxIDguMzA2LS4xMjhjMS41OTQuODggMi40NzUgMi42NTcgMi4yMTMgNC40Nkg5NS4xNWMwLS4wNS0uMDk0LS4wOTQtLjA5NC0uMTQ1LS4xMjgtMy4zLTIuOTAyLTQuMzMyLTUuODgtNC4wNDItLjkuMS0xLjc1My4zNzItMi41NTMuNzc0YTIuNTUgMi41NSAwIDAgMC0xLjQ4IDIuNTUzIDIuNTUgMi41NSAwIDAgMCAxLjcwMiAyLjRjMS4zLjQ3NyAyLjY4Ljc4MyA0LjAyNSAxLjE1N2wzLjI1Ljg1YTMuODQgMy44NCAwIDAgMSAyLjYzOCAzLjQ2NGMuMjYgMS43NDUtLjYzIDMuNDYtMi4yMDQgNC4yNTUtMi44NDIgMS42MDgtNy41MjMgMS4xODMtOS42MDgtLjg1LTEuMDY3LTEuMDczLTEuNjYyLTIuNTMtMS42NS00LjA0MnptMjguNzgtNi4zNzRoLTEuMTMyYzAtLjE1My0uMDYtLjMtLjA3Ny0uNDE3YTMuNyAzLjcgMCAwIDAtMy4wMTMtMy41NTcgNy40MyA3LjQzIDAgMCAwLTQuNzc0LjIzIDIuOSAyLjkgMCAwIDAtMi4xMDIgMi43NjYgMi42NyAyLjY3IDAgMCAwIDIuMDQyIDIuNjg5bDUuMTc0IDEuMzI4YTE0LjM5IDE0LjM5IDAgMCAxIDEuNjUuNTAyYzEuNjUuNiAyLjc3IDIuMTMyIDIuODIgMy44ODNhNC4yNSA0LjI1IDAgMCAxLTIuNiA0LjA0IDkuNDcgOS40NyAwIDAgMS03LjY1OS4wNzcgNS4zMSA1LjMxIDAgMCAxLTMuMi01LjE1N2gxLjEwNmMuNDE2IDIuMDA1IDEuNzkzIDMuNjc1IDMuNjgyIDQuNDY1czQuMDQ2LjU5NiA1Ljc2NC0uNTE2YTMuMDQgMy4wNCAwIDAgMCAxLjYzNC0yLjg0MiAyLjYzIDIuNjMgMCAwIDAtMS43OTYtMi42MTNjLTEuMzI4LS40OTQtMi43NC0uNzU3LTQuMDkzLTEuMmEzMC4xNSAzMC4xNSAwIDAgMS00LjE0NC0xLjQ4OWMtMi4xMjgtMS4wNDctMi4yOTgtNS4xNTcuMTI4LTYuNDY4YTguNTcgOC41NyAwIDAgMSA4LjQ0Mi0uMDk0IDQuNDUgNC40NSAwIDAgMSAyLjEzNiA0LjM2NnptLTc0LjEzIDExLjgzYTEuOTUgMS45NSAwIDAgMS0yLjQxNy0uOTE5bC00LjQtNi4wODUtLjYzOC0uODUtNS4xMDYgNi45NDRhMS44NyAxLjg3IDAgMCAxLTIuMjk4LjkwMmw2LjU3OC04LjgyNS02LjEyLTcuOTc0Yy45MDgtLjMyOCAxLjkyLjAyOCAyLjQyNS44NWw0LjU2IDYuMTYgNC41ODctNi4xMzZhMS44MyAxLjgzIDAgMCAxIDIuMjgxLS44NTFMMzUuMDIgMjEuOWwtMy4yMTcgNC4xODdhLjg1Ljg1IDAgMCAwIDAgMS4yNjhsNi4xMjcgOC4xNzh6bTI3LjkzLTE2Ljg5MnYxLjJhNi4xNyA2LjE3IDAgMCAwLTYuNTcgNi4zNzRxMCA0LjIwNCAwIDguNDA4di45NTNoLTEuMjE3di0xNi44NmgxLjJ2My40NTVjMS40NzItMi41MiAzLjc0NC0zLjQ1NSA2LjU5NS0zLjUyM3pNNy4zMzMgMjYuNTlsLjUzNi0yLjY0N2MxLjQ3Mi01LjIzNCA3LjQ3Mi03LjQxMiAxMS42LTQuMTcgMi40MTcgMS44OTggMy4wMiA0LjU4NyAyLjkwMiA3LjYxN0g4Ljc1NGMtLjIyIDUuNDEyIDMuNjg1IDguNjggOC42OCA3LjAxMiAxLjY0Ni0uNiAyLjg4NS0xLjk2OCAzLjI5My0zLjY2OC4yNjQtLjg1LjctLjk5NiAxLjQ5OC0uNzVhNi45MSA2LjkxIDAgMCAxLTMuMzAyIDUuMDQ3IDggOCAwIDAgMS05LjMxOS0xLjE5MWMtMS4yMTYtMS4zNjctMS45NS0zLjA5NS0yLjA5My00LjkyIDAtLjMtLjEtLjU4LS4xNy0uODVxLS4wMS0uNzU3LS4wMS0xLjQ4em0xLjQzOC0uMzY2aDEyLjMxNGMtLjA3Ny0zLjkyMy0yLjU1My02LjcwNi01Ljg1NS02LjczMi0zLjY3Ni0uMDUtNi4zMDYgMi42NzItNi40NjggNi43MTV6Ii8+PC9zdmc+" vertex="1" parent="1">
          <mxGeometry x="566" y="562" width="78" height="39" as="geometry" />
        </mxCell>
        <mxCell id="EoUMbDXSJmn96Bxg5w5c-22" value="" style="shape=image;verticalLabelPosition=bottom;verticalAlign=top;imageAspect=0;aspect=fixed;image=data:image/svg+xml,PHN2ZyB4bWxuczp4bGluaz0iaHR0cDovL3d3dy53My5vcmcvMTk5OS94bGluayIgeG1sbnM9Imh0dHA6Ly93d3cudzMub3JnLzIwMDAvc3ZnIiB4bWw6c3BhY2U9InByZXNlcnZlIiBzdHlsZT0iZW5hYmxlLWJhY2tncm91bmQ6bmV3IDAgMCAxMjIuODggMTA5LjQzIiB2aWV3Qm94PSIwIDAgMTIyLjg4IDEwOS40MyIgeT0iMHB4IiB4PSIwcHgiIGlkPSJMYXllcl8xIiB2ZXJzaW9uPSIxLjEiPjxzdHlsZSB0eXBlPSJ0ZXh0L2NzcyI+LnN0MHtmaWxsLXJ1bGU6ZXZlbm9kZDtjbGlwLXJ1bGU6ZXZlbm9kZDtmaWxsOiMwMEQ4RkY7fTwvc3R5bGU+PGc+PHBhdGggZD0iTTEyMi44OCw1NC43M2MwLTguMTQtMTAuMTktMTUuODUtMjUuODItMjAuNjRjMy42MS0xNS45MywyLTI4LjYtNS4wNi0zMi42NmMtMS42My0wLjk1LTMuNTMtMS40LTUuNjEtMS40IHY1LjU5YzEuMTUsMCwyLjA4LDAuMjMsMi44NiwwLjY1YzMuNDEsMS45NSw0Ljg4LDkuMzksMy43MywxOC45NmMtMC4yOCwyLjM1LTAuNzMsNC44My0xLjI4LDcuMzZjLTQuOTEtMS4yLTEwLjI3LTIuMTMtMTUuOS0yLjczIGMtMy4zOC00LjYzLTYuODktOC44NC0xMC40Mi0xMi41MkM3My41NCw5Ljc0LDgxLjIsNS41OSw4Ni40MSw1LjU5VjBsMCwwYy02Ljg5LDAtMTUuOSw0LjkxLTI1LjAyLDEzLjQzIEM1Mi4yNyw0Ljk2LDQzLjI2LDAuMSwzNi4zNywwLjF2NS41OWM1LjE4LDAsMTIuODcsNC4xMywyMS4wNCwxMS42N2MtMy41MSwzLjY4LTcuMDEsNy44Ni0xMC4zNCwxMi41IGMtNS42NiwwLjYtMTEuMDIsMS41My0xNS45MywyLjc1Yy0wLjU4LTIuNS0xLTQuOTMtMS4zLTcuMjZjLTEuMTgtOS41NywwLjI4LTE3LjAxLDMuNjYtMTguOTljMC43NS0wLjQ1LDEuNzMtMC42NSwyLjg4LTAuNjVWMC4xMyBsMCwwYy0yLjEsMC00LjAxLDAuNDUtNS42NiwxLjRjLTcuMDQsNC4wNi04LjYyLDE2LjcxLTQuOTgsMzIuNTlDMTAuMTQsMzguOTIsMCw0Ni42MSwwLDU0LjczYzAsOC4xNCwxMC4xOSwxNS44NSwyNS44MiwyMC42NCBjLTMuNjEsMTUuOTMtMiwyOC42LDUuMDYsMzIuNjZjMS42MywwLjk1LDMuNTMsMS40LDUuNjQsMS40YzYuODksMCwxNS45LTQuOTEsMjUuMDItMTMuNDNjOS4xMiw4LjQ3LDE4LjEzLDEzLjMzLDI1LjAyLDEzLjMzIGMyLjEsMCw0LjAxLTAuNDUsNS42Ni0xLjRjNy4wNC00LjA2LDguNjItMTYuNzEsNC45OC0zMi41OUMxMTIuNzQsNzAuNTYsMTIyLjg4LDYyLjg0LDEyMi44OCw1NC43M0wxMjIuODgsNTQuNzN6IE03Mi44Niw1NC43MyBjMC02LjMyLTUuMTItMTEuNDUtMTEuNDUtMTEuNDVjLTYuMzIsMC0xMS40NSw1LjEyLTExLjQ1LDExLjQ1czUuMTIsMTEuNDUsMTEuNDUsMTEuNDVDNjcuNzQsNjYuMTcsNzIuODYsNjEuMDUsNzIuODYsNTQuNzMgTDcyLjg2LDU0LjczeiBNMzYuMzQsMC4xTDM2LjM0LDAuMUwzNi4zNCwwLjFMMzYuMzQsMC4xeiBNOTAuMjcsMzguMDJjLTAuOTMsMy4yMy0yLjA4LDYuNTYtMy4zOCw5Ljg5Yy0xLjAzLTItMi4xLTQuMDEtMy4yOC02LjAxIGMtMS4xNS0yLTIuMzgtMy45Ni0zLjYxLTUuODZDODMuNTYsMzYuNTcsODYuOTksMzcuMjIsOTAuMjcsMzguMDJMOTAuMjcsMzguMDJ6IE03OC44LDY0LjdjLTEuOTUsMy4zOC0zLjk2LDYuNTktNi4wNCw5LjU3IGMtMy43MywwLjMzLTcuNTEsMC41LTExLjMyLDAuNWMtMy43OCwwLTcuNTYtMC4xOC0xMS4yNy0wLjQ4Yy0yLjA4LTIuOTgtNC4xMS02LjE2LTYuMDYtOS41MmMtMS45LTMuMjgtMy42My02LjYxLTUuMjEtOS45NyBjMS41NS0zLjM2LDMuMzEtNi43MSw1LjE4LTkuOTljMS45NS0zLjM4LDMuOTYtNi41OSw2LjA0LTkuNTdjMy43My0wLjMzLDcuNTEtMC41LDExLjMyLTAuNWMzLjc4LDAsNy41NiwwLjE4LDExLjI3LDAuNDggYzIuMDgsMi45OCw0LjExLDYuMTYsNi4wNiw5LjUyYzEuOSwzLjI4LDMuNjMsNi42MSw1LjIxLDkuOTdDODIuNCw1OC4wNiw4MC42OCw2MS40MSw3OC44LDY0LjdMNzguOCw2NC43eiBNODYuODksNjEuNDQgYzEuMzUsMy4zNiwyLjUsNi43MSwzLjQ2LDkuOTdjLTMuMjgsMC44LTYuNzQsMS40OC0xMC4zMiwyYzEuMjMtMS45MywyLjQ1LTMuOTEsMy42MS01Ljk0Qzg0Ljc4LDY1LjQ3LDg1Ljg2LDYzLjQ0LDg2Ljg5LDYxLjQ0IEw4Ni44OSw2MS40NHogTTYxLjQ5LDg4LjE2Yy0yLjMzLTIuNC00LjY2LTUuMDgtNi45Ni04LjAxYzIuMjUsMC4xLDQuNTYsMC4xOCw2Ljg5LDAuMThjMi4zNSwwLDQuNjgtMC4wNSw2Ljk2LTAuMTggQzY2LjEyLDgzLjA4LDYzLjc5LDg1Ljc2LDYxLjQ5LDg4LjE2TDYxLjQ5LDg4LjE2eiBNNDIuODYsNzMuNDFjLTMuNTYtMC41My02Ljk5LTEuMTgtMTAuMjctMS45OGMwLjkzLTMuMjMsMi4wOC02LjU2LDMuMzgtOS44OSBjMS4wMywyLDIuMSw0LjAxLDMuMjgsNi4wMUM0MC40Myw2OS41Niw0MS42Myw3MS41MSw0Mi44Niw3My40MUw0Mi44Niw3My40MXogTTYxLjM2LDIxLjI5YzIuMzMsMi40LDQuNjYsNS4wOCw2Ljk2LDguMDEgYy0yLjI1LTAuMS00LjU2LTAuMTgtNi44OS0wLjE4Yy0yLjM1LDAtNC42OCwwLjA1LTYuOTYsMC4xOEM1Ni43MywyNi4zNyw1OS4wNiwyMy42OSw2MS4zNiwyMS4yOUw2MS4zNiwyMS4yOXogTTQyLjgzLDM2LjA0IGMtMS4yMywxLjkzLTIuNDUsMy45MS0zLjYxLDUuOTRjLTEuMTUsMi0yLjIzLDQuMDEtMy4yNiw2LjAxYy0xLjM1LTMuMzYtMi41LTYuNzEtMy40Ni05Ljk3QzM1Ljc5LDM3LjI0LDM5LjI1LDM2LjU3LDQyLjgzLDM2LjA0IEw0Mi44MywzNi4wNHogTTIwLjE2LDY3LjRjLTguODctMy43OC0xNC42LTguNzQtMTQuNi0xMi42N2MwLTMuOTMsNS43NC04LjkyLDE0LjYtMTIuNjdjMi4xNS0wLjkzLDQuNTEtMS43NSw2Ljk0LTIuNTMgYzEuNDMsNC45MSwzLjMxLDEwLjAyLDUuNjQsMTUuMjVjLTIuMyw1LjIxLTQuMTYsMTAuMjktNS41NiwxNS4xOEMyNC43LDY5LjE4LDIyLjM0LDY4LjMzLDIwLjE2LDY3LjRMMjAuMTYsNjcuNHogTTMzLjY0LDEwMy4xOSBjLTMuNDEtMS45NS00Ljg4LTkuMzktMy43My0xOC45NmMwLjI4LTIuMzUsMC43My00LjgzLDEuMjgtNy4zNmM0LjkxLDEuMiwxMC4yNywyLjEzLDE1LjksMi43M2MzLjM4LDQuNjMsNi44OSw4Ljg0LDEwLjQyLDEyLjUyIGMtOC4xNyw3LjU5LTE1LjgzLDExLjc1LTIxLjA0LDExLjc1QzM1LjM0LDEwMy44NCwzNC4zOSwxMDMuNjIsMzMuNjQsMTAzLjE5TDMzLjY0LDEwMy4xOXogTTkzLjA1LDg0LjExIGMxLjE4LDkuNTctMC4yOCwxNy4wMS0zLjY2LDE4Ljk5Yy0wLjc1LDAuNDUtMS43MywwLjY1LTIuODgsMC42NWMtNS4xOCwwLTEyLjg3LTQuMTMtMjEuMDQtMTEuNjdjMy41MS0zLjY4LDcuMDEtNy44NiwxMC4zNC0xMi41IGM1LjY2LTAuNiwxMS4wMi0xLjUzLDE1LjkzLTIuNzZDOTIuMzIsNzkuMzUsOTIuNzcsODEuNzgsOTMuMDUsODQuMTFMOTMuMDUsODQuMTF6IE0xMDIuNjksNjcuNGMtMi4xNSwwLjkzLTQuNTEsMS43NS02Ljk0LDIuNTMgYy0xLjQzLTQuOTEtMy4zMS0xMC4wMi01LjY0LTE1LjI1YzIuMy01LjIxLDQuMTYtMTAuMjksNS41Ni0xNS4xOGMyLjQ4LDAuNzgsNC44MywxLjYzLDcuMDQsMi41NWM4Ljg3LDMuNzgsMTQuNiw4Ljc0LDE0LjYsMTIuNjcgQzExNy4yOSw1OC42NiwxMTEuNTYsNjMuNjQsMTAyLjY5LDY3LjRMMTAyLjY5LDY3LjR6IiBjbGFzcz0ic3QwIi8+PC9nPjwvc3ZnPg==" vertex="1" parent="1">
          <mxGeometry x="576.29" y="601" width="57.55" height="51" as="geometry" />
        </mxCell>
        <mxCell id="EoUMbDXSJmn96Bxg5w5c-23" value="" style="shape=image;verticalLabelPosition=bottom;verticalAlign=top;imageAspect=0;aspect=fixed;image=data:image/svg+xml,PHN2ZyB4bWxuczp4bGluaz0iaHR0cDovL3d3dy53My5vcmcvMTk5OS94bGluayIgeG1sbnM9Imh0dHA6Ly93d3cudzMub3JnLzIwMDAvc3ZnIiB3aWR0aD0iNTExLjMwNjU0OTA3MjI2NTYiIHZpZXdCb3g9IjAuMjMxMTUyMDU3NjQ3NzA1MDggMCA1MTEuMzA2NTQ5MDcyMjY1NiAzMTMuMDk0MzYwMzUxNTYyNSIgcHJlc2VydmVBc3BlY3RSYXRpbz0ieE1pZFlNaWQiIGhlaWdodD0iMzEzLjA5NDM2MDM1MTU2MjUiPjxkZWZzPjxsaW5lYXJHcmFkaWVudCBpZD0iYSI+PHN0b3Agc3RvcC1jb2xvcj0iIzQxODczZiIgb2Zmc2V0PSIwIi8+PHN0b3Agc3RvcC1jb2xvcj0iIzQxOGIzZCIgb2Zmc2V0PSIuMzI4OCIvPjxzdG9wIHN0b3AtY29sb3I9IiM0MTk2MzciIG9mZnNldD0iLjYzNTIiLz48c3RvcCBzdG9wLWNvbG9yPSIjM2ZhOTJkIiBvZmZzZXQ9Ii45MzE5Ii8+PHN0b3Agc3RvcC1jb2xvcj0iIzNmYWUyYSIgb2Zmc2V0PSIxIi8+PC9saW5lYXJHcmFkaWVudD48bGluZWFyR3JhZGllbnQgeTI9Ijg5Ljc1NTE0MiUiIHkxPSIxNy40ODY4MzElIiB4bGluazpocmVmPSIjYSIgeDI9IjI3LjgyMjY5NCUiIHgxPSI2OC4xODg0NDElIiBpZD0iYiIvPjxwYXRoIGQ9Im01Ny45MDMzODYgMS44NDkyMDk5M2MtMS44NDkyMDk5LTEuMDQwMTgwNTgtNC4wNDUxNDY3LTEuMDQwMTgwNTgtNS44OTQzNTY3IDBsLTQ4LjY1NzMzNjMgMjguMDg0ODc1ODdjLTEuODQ5MjA5OTMgMS4wNDAxODA2LTIuODg5MzkwNTIgMy4wMDQ5NjYxLTIuODg5MzkwNTIgNS4wODUzMjczdjU2LjI4NTMyNzNjMCAyLjA4MDM2MTIgMS4xNTU3NTYyMSA0LjA0NTE0NjcgMi44ODkzOTA1MiA1LjA4NTMyNzNsNDguNjU3MzM2MyAyOC4wODQ4NzYzYzEuODQ5MjEgMS4wNDAxOCA0LjA0NTE0NjggMS4wNDAxOCA1Ljg5NDM1NjcgMGw0OC42NTczMzYtMjguMDg0ODc2M2MxLjg0OTIxLTEuMDQwMTgwNiAyLjg4OTM5MS0zLjAwNDk2NjEgMi44ODkzOTEtNS4wODUzMjczdi01Ni4yODUzMjczYzAtMi4wODAzNjEyLTEuMTU1NzU2LTQuMDQ1MTQ2Ny0yLjg4OTM5MS01LjA4NTMyNzN6IiBpZD0iYyIvPjxsaW5lYXJHcmFkaWVudCB5Mj0iLTE4LjMwNjEzOCUiIHkxPSI1NS4xNjg3NzclIiB4Mj0iMTU5LjI0NTI3NyUiIHgxPSI0My4yNzY1NDclIiBpZD0iZCI+PHN0b3Agc3RvcC1jb2xvcj0iIzQxODczZiIgb2Zmc2V0PSIuMTM3NiIvPjxzdG9wIHN0b3AtY29sb3I9IiM1NGEwNDQiIG9mZnNldD0iLjQwMzIiLz48c3RvcCBzdG9wLWNvbG9yPSIjNjZiODQ4IiBvZmZzZXQ9Ii43MTM2Ii8+PHN0b3Agc3RvcC1jb2xvcj0iIzZjYzA0YSIgb2Zmc2V0PSIuOTA4MSIvPjwvbGluZWFyR3JhZGllbnQ+PGxpbmVhckdyYWRpZW50IGlkPSJlIj48c3RvcCBzdG9wLWNvbG9yPSIjNmNjMDRhIiBvZmZzZXQ9Ii4wOTE5MTY0NiIvPjxzdG9wIHN0b3AtY29sb3I9IiM2NmI4NDgiIG9mZnNldD0iLjI4NjQiLz48c3RvcCBzdG9wLWNvbG9yPSIjNTRhMDQ0IiBvZmZzZXQ9Ii41OTY4Ii8+PHN0b3Agc3RvcC1jb2xvcj0iIzQxODczZiIgb2Zmc2V0PSIuODYyNCIvPjwvbGluZWFyR3JhZGllbnQ+PGxpbmVhckdyYWRpZW50IHkyPSIxMy40MyUiIHkxPSIxMy40MyUiIHhsaW5rOmhyZWY9IiNlIiB4Mj0iNTMyNy45MyUiIHgxPSItNDQxMy43NyUiIGlkPSJmIi8+PGxpbmVhckdyYWRpZW50IHkyPSI0OS45OTcyMDclIiB5MT0iNDkuOTk3MjA3JSIgeGxpbms6aHJlZj0iI2UiIHgyPSIxMDEuNDk5MjM5JSIgeDE9Ii00LjM4ODgwNCUiIGlkPSJnIi8+PGxpbmVhckdyYWRpZW50IHkyPSIzNi4yMSUiIHkxPSIzNi4yMSUiIHhsaW5rOmhyZWY9IiNlIiB4Mj0iMjcuOTMlIiB4MT0iLTk3MTMuNzclIiBpZD0iaCIvPjxsaW5lYXJHcmFkaWVudCB5Mj0iNTAuMjc1NDIxJSIgeTE9IjUwLjI3NTQyMSUiIHhsaW5rOmhyZWY9IiNlIiB4Mj0iMTAwLjc5Njg0OSUiIHgxPSItMTAzLjg2MDcxNCUiIGlkPSJpIi8+PGxpbmVhckdyYWRpZW50IHkyPSIyMDEuNjA1Mzg3JSIgeTE9Ii0yMTEuMDY5MzYlIiB4bGluazpocmVmPSIjYSIgeDI9IjQuMzkzMjc3JSIgeDE9IjEzMC42MTMwMjUlIiBpZD0iaiIvPjxtYXNrIGZpbGw9IiNmZmYiIGlkPSJrIj48dXNlIHhsaW5rOmhyZWY9IiNjIiBmaWxsPSIjZmZmIi8+PC9tYXNrPjwvZGVmcz48ZyBmaWxsPSJub25lIj48cGF0aCBmaWxsPSIjNTM5ZTQzIiBkPSJtMjUzLjExMDYwOSAzMTMuMDk0MzU3Yy0xLjczMzYzNCAwLTMuMzUxNjkzLS40NjIzMDMtNC44NTQxNzYtMS4yNzEzMzJsLTE1LjM3MTU1Ny05LjEzMDQ3NGMtMi4zMTE1MTMtMS4yNzEzMzItMS4xNTU3NTYtMS43MzM2MzUtLjQ2MjMwMy0xLjk2NDc4NiAzLjEyMDU0Mi0xLjA0MDE4IDMuNjk4NDItMS4yNzEzMzIgNi45MzQ1MzgtMy4xMjA1NDIuMzQ2NzI2LS4yMzExNTEuODA5MDI5LS4xMTU1NzUgMS4xNTU3NTYuMTE1NTc2bDExLjc4ODcxMyA3LjA1MDExM2MuNDYyMzAzLjIzMTE1MSAxLjA0MDE4MS4yMzExNTEgMS4zODY5MDggMGw0Ni4xMTQ2NzItMjYuNjk3OTY4Yy40NjIzMDMtLjIzMTE1Mi42OTM0NTQtLjY5MzQ1NC42OTM0NTQtMS4yNzEzMzJ2LTUzLjI4MDM2MWMwLS41Nzc4NzktLjIzMTE1MS0xLjA0MDE4MS0uNjkzNDU0LTEuMjcxMzMybC00Ni4xMTQ2NzItMjYuNTgyMzkzYy0uNDYyMzAzLS4yMzExNTEtMS4wNDAxODEtLjIzMTE1MS0xLjM4NjkwOCAwbC00Ni4xMTQ2NzMgMjYuNTgyMzkzYy0uNDYyMzAyLjIzMTE1MS0uNjkzNDUzLjgwOTAyOS0uNjkzNDUzIDEuMjcxMzMydjUzLjI4MDM2MWMwIC40NjIzMDIuMjMxMTUxIDEuMDQwMTguNjkzNDUzIDEuMjcxMzMybDEyLjU5Nzc0MyA3LjI4MTI2NGM2LjgxODk2MiAzLjQ2NzI2OCAxMS4wOTUyNi0uNTc3ODc4IDExLjA5NTI2LTQuNjIzMDI1di01Mi41ODY5MDhjMC0uNjkzNDUzLjU3Nzg3OC0xLjM4NjkwNyAxLjM4NjkwNy0xLjM4NjkwN2g1Ljg5NDM1N2MuNjkzNDU0IDAgMS4zODY5MDcuNTc3ODc4IDEuMzg2OTA3IDEuMzg2OTA3djUyLjU4NjkwOGMwIDkuMTMwNDc0LTQuOTY5NzUxIDE0LjQ0Njk1Mi0xMy42Mzc5MjMgMTQuNDQ2OTUyLTIuNjU4MjM5IDAtNC43Mzg2IDAtMTAuNjMyOTU3LTIuODg5MzlsLTEyLjEzNTQ0LTYuOTM0NTM3Yy0zLjAwNDk2Ni0xLjczMzYzNS00Ljg1NDE3Ni00Ljk2OTc1Mi00Ljg1NDE3Ni04LjQzNzAyMXYtNTMuMjgwMzYxYzAtMy40NjcyNjggMS44NDkyMS02LjcwMzM4NiA0Ljg1NDE3Ni04LjQzNzAybDQ2LjExNDY3Mi0yNi42OTc5NjljMi44ODkzOTEtMS42MTgwNTggNi44MTg5NjItMS42MTgwNTggOS43MDgzNTMgMGw0Ni4xMTQ2NzIgMjYuNjk3OTY5YzMuMDA0OTY2IDEuNzMzNjM0IDQuODU0MTc2IDQuOTY5NzUyIDQuODU0MTc2IDguNDM3MDJ2NTMuMjgwMzYxYzAgMy40NjcyNjktMS44NDkyMSA2LjcwMzM4Ni00Ljg1NDE3NiA4LjQzNzAyMWwtNDYuMTE0NjcyIDI2LjY5Nzk2OGMtMS41MDI0ODQuNjkzNDU0LTMuMjM2MTE4IDEuMDQwMTgxLTQuODU0MTc3IDEuMDQwMTgxem0xNC4yMTU4MDItMzYuNjM3NDcyYy0yMC4yMjU3MzQgMC0yNC4zODY0NTYtOS4yNDYwNS0yNC4zODY0NTYtMTcuMTA1MTkyIDAtLjY5MzQ1NC41Nzc4NzgtMS4zODY5MDcgMS4zODY5MDctMS4zODY5MDdoNi4wMDk5MzNjLjY5MzQ1MyAwIDEuMjcxMzMxLjQ2MjMwMiAxLjI3MTMzMSAxLjE1NTc1Ni45MjQ2MDUgNi4xMjU1MDggMy41ODI4NDUgOS4xMzA0NzQgMTUuODMzODYgOS4xMzA0NzQgOS43MDgzNTMgMCAxMy44NjkwNzUtMi4xOTU5MzcgMTMuODY5MDc1LTcuMzk2ODQgMC0zLjAwNDk2Ni0xLjE1NTc1Ni01LjIwMDkwMy0xNi4yOTYxNjMtNi43MDMzODYtMTIuNTk3NzQyLTEuMjcxMzMyLTIwLjQ1Njg4NC00LjA0NTE0Ny0yMC40NTY4ODQtMTQuMTAwMjI2IDAtOS4zNjE2MjUgNy44NTkxNDItMTQuOTA5MjU1IDIxLjAzNDc2My0xNC45MDkyNTUgMTQuNzkzNjc5IDAgMjIuMDc0OTQzIDUuMDg1MzI4IDIyLjk5OTU0OCAxNi4xODA1ODcgMCAuMzQ2NzI3LS4xMTU1NzYuNjkzNDU0LS4zNDY3MjcgMS4wNDAxODEtLjIzMTE1MS4yMzExNTEtLjU3Nzg3OC40NjIzMDItLjkyNDYwNS40NjIzMDJoLTYuMDA5OTMyYy0uNTc3ODc4IDAtMS4xNTU3NTYtLjQ2MjMwMi0xLjI3MTMzMi0xLjA0MDE4LTEuMzg2OTA3LTYuMzU2NjU5LTQuOTY5NzUyLTguNDM3MDIxLTE0LjQ0Njk1Mi04LjQzNzAyMS0xMC42MzI5NTggMC0xMS45MDQyODkgMy42OTg0Mi0xMS45MDQyODkgNi40NzIyMzUgMCAzLjM1MTY5MyAxLjUwMjQ4MyA0LjM5MTg3NCAxNS44MzM4NiA2LjI0MTA4NCAxNC4yMTU4MDEgMS44NDkyMSAyMC45MTkxODcgNC41MDc0NDkgMjAuOTE5MTg3IDE0LjQ0Njk1Mi0uMTE1NTc2IDEwLjE3MDY1NS04LjQzNzAyIDE1Ljk0OTQzNi0yMy4xMTUxMjQgMTUuOTQ5NDM2eiIvPjxwYXRoIGZpbGw9IiMzMzMiIGQ9Im0xMTAuMDI3OTkxIDEwNC43MTE1MTJjMC0yLjA4MDM2MS0xLjE1NTc1Ni00LjA0NTE0Ni0zLjAwNDk2Ni01LjA4NTMyNjlsLTQ5LjAwNDA2MzQtMjguMjAwNDUxNWMtLjgwOTAyOTMtLjQ2MjMwMjQtMS43MzM2MzQzLS42OTM0NTM3LTIuNjU4MjM5My0uODA5MDI5M2gtLjQ2MjMwMjRjLS45MjQ2MDUgMC0xLjg0OTIxLjM0NjcyNjktMi42NTgyMzkzLjgwOTAyOTNsLTQ5LjAwNDA2MzIyIDI4LjIwMDQ1MTVjLTEuODQ5MjA5OTMgMS4wNDAxODA5LTMuMDA0OTY2MTQgMy4wMDQ5NjU5LTMuMDA0OTY2MTQgNS4wODUzMjY5bC4xMTU1NzU2MiA3NS44MTc2MDhjMCAxLjA0MDE4LjU3Nzg3ODExIDIuMDgwMzYxIDEuNTAyNDgzMDcgMi41NDI2NjMuOTI0NjA0OTcuNTc3ODc4IDIuMDgwMzYxMTguNTc3ODc4IDIuODg5MzkwNTIgMGwyOS4xMjUwNTY0NS0xNi42NDI4ODljMS44NDkyMDk5LTEuMDQwMTgxIDMuMDA0OTY2MS0zLjAwNDk2NiAzLjAwNDk2NjEtNS4wODUzMjd2LTM1LjQ4MTcxNmMwLTIuMDgwMzYxIDEuMTU1NzU2Mi00LjA0NTE0NyAzLjAwNDk2NjItNS4wODUzMjdsMTIuMzY2NTkxNC03LjE2NTY4OWMuOTI0NjA1LS41Nzc4NzggMS45NjQ3ODU1LS44MDkwMjkgMy4wMDQ5NjYxLS44MDkwMjlzMi4wODAzNjEyLjIzMTE1MSAyLjg4OTM5MDUuODA5MDI5bDEyLjM2NjU5MTUgNy4xNjU2ODljMS44NDkyMDk5IDEuMDQwMTggMy4wMDQ5NjYxIDMuMDA0OTY2IDMuMDA0OTY2MSA1LjA4NTMyN3YzNS40ODE3MTZjMCAyLjA4MDM2MSAxLjE1NTc1NjIgNC4wNDUxNDYgMy4wMDQ5NjYxIDUuMDg1MzI3bDI5LjEyNTA1NjEgMTYuNjQyODg5Yy45MjQ2MDUuNTc3ODc4IDIuMDgwMzYyLjU3Nzg3OCAzLjAwNDk2NyAwIC45MjQ2MDQtLjQ2MjMwMiAxLjUwMjQ4My0xLjUwMjQ4MyAxLjUwMjQ4My0yLjU0MjY2M3oiLz48cGF0aCBmaWxsPSIjMzMzIiBkPSJtMzQ1LjU3MTEwNi4zNDY3MjY4NmMtLjkyNDYwNS0uNDYyMzAyNDgtMi4wODAzNjEtLjQ2MjMwMjQ4LTIuODg5MzkgMC0uOTI0NjA1LjU3Nzg3ODExLTEuNTAyNDgzIDEuNTAyNDgzMDctMS41MDI0ODMgMi41NDI2NjM2NnY3NS4xMjQxNTM0OGMwIC42OTM0NTM3LS4zNDY3MjcgMS4zODY5MDc1LTEuMDQwMTgxIDEuODQ5MjEtLjY5MzQ1NC4zNDY3MjY4LTEuMzg2OTA4LjM0NjcyNjgtMi4wODAzNjEgMGwtMTIuMjUxMDE2LTcuMDUwMTEyOWMtMS44NDkyMS0xLjA0MDE4MDYtNC4wNDUxNDctMS4wNDAxODA2LTUuODk0MzU3IDBsLTQ5LjAwNDA2MyAyOC4zMTYwMjY5Yy0xLjg0OTIxIDEuMDQwMTgxLTMuMDA0OTY2IDMuMDA0OTY2LTMuMDA0OTY2IDUuMDg1MzI3djU2LjUxNjQ3OWMwIDIuMDgwMzYxIDEuMTU1NzU2IDQuMDQ1MTQ3IDMuMDA0OTY2IDUuMDg1MzI3bDQ5LjAwNDA2MyAyOC4zMTYwMjdjMS44NDkyMSAxLjA0MDE4MSA0LjA0NTE0NyAxLjA0MDE4MSA1Ljg5NDM1NyAwbDQ5LjAwNDA2My0yOC4zMTYwMjdjMS44NDkyMS0xLjA0MDE4IDMuMDA0OTY2LTMuMDA0OTY2IDMuMDA0OTY2LTUuMDg1MzI3di0xNDAuODg2NjgxN2MwLTIuMTk1OTM2OC0xLjE1NTc1Ni00LjE2MDcyMjMtMy4wMDQ5NjYtNS4yMDA5MDI5em0tNC41MDc0NDkgMTQzLjc3NjA3MjE0YzAgLjU3Nzg3OC0uMjMxMTUxIDEuMDQwMTgxLS42OTM0NTQgMS4yNzEzMzJsLTE2Ljc1ODQ2NSA5LjcwODM1MmMtLjQ2MjMwMi4yMzExNTEtMS4wNDAxOC4yMzExNTEtMS41MDI0ODMgMGwtMTYuNzU4NDY1LTkuNzA4MzUyYy0uNDYyMzAyLS4yMzExNTEtLjY5MzQ1NC0uODA5MDI5LS42OTM0NTQtMS4yNzEzMzJ2LTE5LjQxNjcwNGMwLS41Nzc4NzguMjMxMTUyLTEuMDQwMTgxLjY5MzQ1NC0xLjI3MTMzMmwxNi43NTg0NjUtOS43MDgzNTJjLjQ2MjMwMy0uMjMxMTUxIDEuMDQwMTgxLS4yMzExNTEgMS41MDI0ODMgMGwxNi43NTg0NjUgOS43MDgzNTJjLjQ2MjMwMy4yMzExNTEuNjkzNDU0LjgwOTAyOS42OTM0NTQgMS4yNzEzMzJ6Ii8+PGcgdHJhbnNmb3JtPSJ0cmFuc2xhdGUoNDAxLjA0NzQwNCA3MC41MDExMjkpIj48cGF0aCBmaWxsPSIjMzMzIiBkPSJtMTA3LjYwMDkwMyA1My43NDI2NjM3YzEuODQ5MjEtMS4wNDAxODA2IDIuODg5MzktMy4wMDQ5NjYyIDIuODg5MzktNS4wODUzMjc0di0xMy43NTM0OTg4YzAtMi4wODAzNjEyLTEuMTU1NzU2LTQuMDQ1MTQ2OC0yLjg4OTM5LTUuMDg1MzI3M2wtNDguNjU3MzM2NC0yOC4yMDA0NTE1MWMtMS44NDkyMDk5LTEuMDQwMTgwNTktNC4wNDUxNDY3LTEuMDQwMTgwNTktNS44OTQzNTY3IDBsLTQ5LjAwNDA2MzE3IDI4LjMxNjAyNzExYy0xLjg0OTIwOTk0IDEuMDQwMTgwNi0zLjAwNDk2NjE0IDMuMDA0OTY2MS0zLjAwNDk2NjE0IDUuMDg1MzI3M3Y1Ni41MTY0Nzg1YzAgMi4wODAzNjEyIDEuMTU1NzU2MiA0LjA0NTE0NjggMy4wMDQ5NjYxNCA1LjA4NTMyNzRsNDguNjU3MzM2MzcgMjcuNzM4MTQ5YzEuODQ5MjA5OSAxLjA0MDE4MSA0LjA0NTE0NjcgMS4wNDAxODEgNS43Nzg3ODEgMGwyOS40NzE3ODMzLTE2LjQxMTczOGMuOTI0NjA1LS40NjIzMDMgMS41MDI0ODMxLTEuNTAyNDgzIDEuNTAyNDgzMS0yLjU0MjY2NCAwLTEuMDQwMTgtLjU3Nzg3ODEtMi4wODAzNjEtMS41MDI0ODMxLTIuNTQyNjY0bC00OS4yMzUyMTQ0LTI4LjMxNjAyNjZjLS45MjQ2MDUtLjU3Nzg3ODEtMS41MDI0ODMxLTEuNTAyNDgzMS0xLjUwMjQ4MzEtMi41NDI2NjM3di0xNy42ODMwNjk5YzAtMS4wNDAxODA2LjU3Nzg3ODEtMi4wODAzNjEyIDEuNTAyNDgzMS0yLjU0MjY2MzdsMTUuMzcxNTU3NS04Ljc4Mzc0NzJjLjkyNDYwNS0uNTc3ODc4MSAyLjA4MDM2MTItLjU3Nzg3ODEgMy4wMDQ5NjYyIDBsMTUuMzcxNTU3NSA4Ljc4Mzc0NzJjLjkyNDYwNS41Nzc4NzgxIDEuNTAyNDgzMSAxLjUwMjQ4MzEgMS41MDI0ODMxIDIuNTQyNjYzN3YxMy44NjkwNzQ1YzAgMS4wNDAxODA1LjU3Nzg3ODEgMi4wODAzNjExIDEuNTAyNDgzMSAyLjU0MjY2MzYuOTI0NjA0OS41Nzc4NzgxIDIuMDgwMzYxMS41Nzc4NzgxIDMuMDA0OTY2MSAweiIvPjxwYXRoIGZpbGw9IiM1MzllNDMiIGQ9Im01NS4yNDUxNDY3IDUxLjA4NDQyNDRjLjM0NjcyNjktLjIzMTE1MTMuODA5MDI5NC0uMjMxMTUxMyAxLjE1NTc1NjIgMGw5LjM2MTYyNTMgNS40MzIwNTQyYy4zNDY3MjY5LjIzMTE1MTIuNTc3ODc4MS41Nzc4NzgxLjU3Nzg3ODEgMS4wNDAxODA1djEwLjg2NDEwODRjMCAuNDYyMzAyNS0uMjMxMTUxMi44MDkwMjkzLS41Nzc4NzgxIDEuMDQwMTgwNmwtOS4zNjE2MjUzIDUuNDMyMDU0MmMtLjM0NjcyNjguMjMxMTUxMi0uODA5MDI5My4yMzExNTEyLTEuMTU1NzU2MiAwbC05LjM2MTYyNTMtNS40MzIwNTQyYy0uMzQ2NzI2OC0uMjMxMTUxMy0uNTc3ODc4MS0uNTc3ODc4MS0uNTc3ODc4MS0xLjA0MDE4MDZ2LTEwLjg2NDEwODRjMC0uNDYyMzAyNC4yMzExNTEzLS44MDkwMjkzLjU3Nzg3ODEtMS4wNDAxODA1eiIvPjwvZz48ZyB0cmFuc2Zvcm09InRyYW5zbGF0ZSgxMzQuMDY3NzIgNzAuNTAxMTI5KSI+PHVzZSB4bGluazpocmVmPSIjYyIgZmlsbD0idXJsKCNiKSIvPjxnIG1hc2s9InVybCgjaykiPjxwYXRoIGQ9Im01MS44OTM0NTM3IDEuODQ5MjA5OTMtNDguNzcyOTExOTQgMjguMDg0ODc1ODdjLTEuODQ5MjA5OTMgMS4wNDAxODA2LTMuMTIwNTQxNzYgMy4wMDQ5NjYxLTMuMTIwNTQxNzYgNS4wODUzMjczdjU2LjI4NTMyNzNjMCAxLjM4NjkwNzUuNTc3ODc4MSAyLjY1ODIzOTMgMS41MDI0ODMwNyAzLjY5ODQxOTlsNTQuNzgyODQ0MjMtOTMuODQ3NDA0MDljLTEuMzg2OTA3NC0uMjMxMTUxMjQtMy4wMDQ5NjYxLS4xMTU1NzU2Mi00LjM5MTg3MzYuNjkzNDUzNzJ6Ii8+PHBhdGggZD0ibTU2LjYzMjA1NDIgMTI1LjA1MjgyMmMuNDYyMzAyNS0uMTE1NTc2LjkyNDYwNDktLjM0NjcyNyAxLjM4NjkwNzQtLjU3Nzg3OGw0OC43NzI5MTI0LTI4LjA4NDg3NjNjMS44NDkyMS0xLjA0MDE4MDYgMy4wMDQ5NjYtMy4wMDQ5NjYxIDMuMDA0OTY2LTUuMDg1MzI3M3YtNTYuMjg1MzI3M2MwLTEuNTAyNDgzMS0uNjkzNDU0LTMuMDA0OTY2MS0xLjczMzYzNS00LjA0NTE0Njd6Ii8+PHBhdGggZmlsbD0idXJsKCNkKSIgZD0ibTEwNi42NzYyOTggMjkuOTM0MDg1OC00OC44ODg0ODc2LTI4LjA4NDg3NTg3Yy0uNDYyMzAyNS0uMjMxMTUxMjQtMS4wNDAxODA2LS40NjIzMDI0OC0xLjUwMjQ4MzEtLjU3Nzg3ODFsLTU0Ljc4Mjg0NDIzIDkzLjg0NzQwNDA3Yy40NjIzMDI0OC41Nzc4NzgxIDEuMDQwMTgwNTkgMS4wNDAxODA2IDEuNjE4MDU4NjkgMS4zODY5MDc0bDQ4Ljg4ODQ4NzU0IDI4LjA4NDg3NTdjMS4zODY5MDc1LjgwOTAzIDMuMDA0OTY2MiAxLjA0MDE4MSA0LjUwNzQ0OTMuNTc3ODc4bDUxLjQzMTE1MTQtOTQuMDc4NTU1Yy0uMzQ2NzI3LS40NjIzMDI1LS44MDkwMy0uODA5MDI5NC0xLjI3MTMzMi0xLjE1NTc1NjJ6Ii8+PC9nPjxnIG1hc2s9InVybCgjaykiPjxnIHRyYW5zZm9ybT0idHJhbnNsYXRlKDAgLTkuMjQ2MDUpIj48cGF0aCBmaWxsPSJub25lIiBkPSJtMTA5Ljc5Njg0IDEwMC41NTA3OXYtNTYuMjg1MzI3MmMwLTIuMDgwMzYxMi0xLjI3MTMzMi00LjA0NTE0NjgtMy4xMjA1NDItNS4wODUzMjc0bC00OC44ODg0ODc2LTI4LjA4NDg3NThjLS41Nzc4NzgxLS4zNDY3MjY5LTEuMTU1NzU2Mi0uNTc3ODc4MS0xLjg0OTIwOTktLjY5MzQ1MzdsNTMuNTExNTEyNSA5MS40MjAzMTYxYy4yMzExNTEtLjM0NjcyNy4zNDY3MjctLjgwOTAyOS4zNDY3MjctMS4yNzEzMzJ6Ii8+PHBhdGggZmlsbD0ibm9uZSIgZD0ibTMuMTIwNTQxNzYgMzkuMTgwMTM1NGMtMS44NDkyMDk5MyAxLjA0MDE4MDYtMy4xMjA1NDE3NiAzLjAwNDk2NjItMy4xMjA1NDE3NiA1LjA4NTMyNzR2NTYuMjg1MzI3MmMwIDIuMDgwMzYxIDEuMzg2OTA3NDUgNC4wNDUxNDcgMy4xMjA1NDE3NiA1LjA4NTMyN2w0OC44ODg0ODc1NCAyOC4wODQ4NzZjMS4xNTU3NTYzLjY5MzQ1NCAyLjQyNzA4ODEuOTI0NjA1IDMuODEzOTk1NS42OTM0NTRsLTUyLjM1NTc1NjE4LTk1LjM0OTg4NzJ6Ii8+PGcgZmlsbC1ydWxlPSJldmVub2RkIj48cGF0aCBmaWxsPSJ1cmwoI2YpIiBkPSJtNTAuMzkwOTcwNy44MDkwMjkzNS0uNjkzNDUzOC4zNDY3MjY4NmguOTI0NjA1eiIvPjxwYXRoIGZpbGw9InVybCgjZykiIGQ9Im0xMDYuNzkxODc0IDEwNS42MzYxMTdjMS4zODY5MDctLjgwOTAyOSAyLjQyNzA4OC0yLjE5NTkzNiAyLjg4OTM5LTMuNjk4NDE5bC01My42MjcwODc5LTkxLjUzNTg5MjFjLTEuMzg2OTA3NS0uMjMxMTUxMy0yLjg4OTM5MDUtLjExNTU3NTctNC4xNjA3MjI0LjY5MzQ1MzdsLTQ4LjU0MTc2MDcgMjcuOTY5MzAwMiA1Mi4zNTU3NTYyIDk1LjQ2NTQ2MzJjLjY5MzQ1MzctLjExNTU3NiAxLjUwMjQ4MzEtLjM0NjcyNyAyLjE5NTkzNjgtLjY5MzQ1NHoiLz48cGF0aCBmaWxsPSJ1cmwoI2gpIiBkPSJtMTExLjI5OTMyMyAxMDQuNzExNTEyLS4zNDY3MjctLjU3Nzg3OHYuODA5MDN6Ii8+PHBhdGggZmlsbD0idXJsKCNpKSIgZD0ibTEwNi43OTE4NzQgMTA1LjYzNjExNy00OC43NzI5MTI0IDI4LjA4NDg3NmMtLjY5MzQ1MzcuMzQ2NzI3LTEuMzg2OTA3NC41Nzc4NzgtMi4xOTU5MzY4LjY5MzQ1NGwuOTI0NjA1IDEuNzMzNjM0IDU0LjA4OTM5MDItMzEuMzIwOTkzdi0uNjkzNDU0bC0xLjM4NjkwNy0yLjMxMTUxMmMtLjIzMTE1MSAxLjYxODA1OS0xLjI3MTMzMiAzLjAwNDk2Ni0yLjY1ODIzOSAzLjgxMzk5NXoiLz48cGF0aCBmaWxsPSJ1cmwoI2opIiBkPSJtMTA2Ljc5MTg3NCAxMDUuNjM2MTE3LTQ4Ljc3MjkxMjQgMjguMDg0ODc2Yy0uNjkzNDUzNy4zNDY3MjctMS4zODY5MDc0LjU3Nzg3OC0yLjE5NTkzNjguNjkzNDU0bC45MjQ2MDUgMS43MzM2MzQgNTQuMDg5MzkwMi0zMS4zMjA5OTN2LS42OTM0NTRsLTEuMzg2OTA3LTIuMzExNTEyYy0uMjMxMTUxIDEuNjE4MDU5LTEuMjcxMzMyIDMuMDA0OTY2LTIuNjU4MjM5IDMuODEzOTk1eiIvPjwvZz48L2c+PC9nPjwvZz48L2c+PC9zdmc+" vertex="1" parent="1">
          <mxGeometry x="564.25" y="662" width="81.63" height="50" as="geometry" />
        </mxCell>
      </root>
    </mxGraphModel>
  </diagram>
</mxfile>
